<svg xmlns="http://www.w3.org/2000/svg" viewBox="0 0 1590.41 778.84"><defs><style>.cls-1{fill:#064a00;}.cls-2,.cls-3,.cls-4{fill:none;stroke-linecap:round;stroke-linejoin:round;}.cls-2,.cls-3{stroke:#064a00;}.cls-2{stroke-width:0.5px;}.cls-4{stroke:#214a23;stroke-width:1.5px;}</style></defs><title>alzado</title><g id="Layer_0" data-name="Layer 0"><polyline class="cls-1" points="992.55 671.53 1458.75 681.26 1501.3 678.74 4178.44 678.94 4176.05 835.18 -367.92 821.4 -365.62 400.94 -353.57 389.68 -146.07 542.76 -17.3 568.24 129.52 640.73 134.93 643.28 134.74 671.53 157.13 671.53 167.63 671.53 992.55 671.53"/></g><g id="Layer_1" data-name="Layer 1"><line class="cls-2" x1="186.94" y1="666.92" x2="181.38" y2="659.74"/><line class="cls-2" x1="245.99" y1="671.78" x2="245.99" y2="671.55"/><line class="cls-2" x1="263.13" y1="614.12" x2="257.8" y2="607.17"/><line class="cls-2" x1="327.74" y1="625.93" x2="322.42" y2="618.98"/><line class="cls-2" x1="392.36" y1="637.74" x2="387.03" y2="630.79"/><line class="cls-2" x1="456.97" y1="649.55" x2="451.65" y2="642.6"/><line class="cls-2" x1="521.59" y1="661.36" x2="516.26" y2="654.41"/><line class="cls-2" x1="584.81" y1="671.78" x2="580.64" y2="666.22"/><line class="cls-2" x1="598.01" y1="608.79" x2="595" y2="605.08"/><line class="cls-2" x1="662.62" y1="620.6" x2="657.07" y2="613.65"/><line class="cls-2" x1="181.38" y1="659.74" x2="182.77" y2="644.69"/><line class="cls-2" x1="245.99" y1="671.78" x2="247.38" y2="656.5"/><line class="cls-2" x1="257.8" y1="607.17" x2="258.04" y2="605.08"/><line class="cls-2" x1="311.76" y1="671.78" x2="312" y2="668.54"/><line class="cls-2" x1="322.42" y1="618.98" x2="323.81" y2="605.08"/><line class="cls-2" x1="387.03" y1="630.79" x2="388.42" y2="615.74"/><line class="cls-2" x1="451.64" y1="642.6" x2="453.03" y2="627.55"/><line class="cls-2" x1="516.26" y1="654.41" x2="517.65" y2="639.36"/><line class="cls-2" x1="580.64" y1="666.22" x2="582.26" y2="651.17"/><line class="cls-2" x1="645.95" y1="671.78" x2="646.64" y2="662.98"/><line class="cls-2" x1="657.07" y1="613.65" x2="657.99" y2="605.08"/><line class="cls-2" x1="182.77" y1="644.69" x2="192.03" y2="639.13"/><line class="cls-2" x1="247.38" y1="656.5" x2="256.41" y2="650.94"/><line class="cls-2" x1="388.42" y1="615.74" x2="397.45" y2="609.95"/><line class="cls-2" x1="312" y1="668.54" x2="321.03" y2="662.75"/><line class="cls-2" x1="453.03" y1="627.55" x2="462.07" y2="621.76"/><line class="cls-2" x1="517.65" y1="639.36" x2="526.68" y2="633.8"/><line class="cls-2" x1="582.26" y1="651.17" x2="591.29" y2="645.61"/><line class="cls-2" x1="646.64" y1="662.98" x2="655.68" y2="657.42"/><line class="cls-2" x1="171.42" y1="616.66" x2="157.99" y2="613.42"/><line class="cls-2" x1="236.03" y1="628.47" x2="222.37" y2="625.23"/><line class="cls-2" x1="300.42" y1="640.29" x2="286.98" y2="637.04"/><line class="cls-2" x1="365.03" y1="652.1" x2="351.6" y2="649.09"/><line class="cls-2" x1="429.64" y1="663.91" x2="416.21" y2="660.9"/><line class="cls-2" x1="506.07" y1="611.34" x2="492.64" y2="608.09"/><line class="cls-2" x1="570.68" y1="623.15" x2="557.25" y2="619.91"/><line class="cls-2" x1="635.3" y1="634.96" x2="621.86" y2="631.72"/><polyline class="cls-2" points="699.68 646.77 686.25 643.53 673.04 646.54"/><line class="cls-2" x1="621.86" y1="631.72" x2="608.43" y2="634.73"/><line class="cls-2" x1="416.21" y1="660.9" x2="403.01" y2="663.68"/><line class="cls-2" x1="557.25" y1="619.91" x2="544.05" y2="622.92"/><line class="cls-2" x1="351.6" y1="649.09" x2="338.4" y2="651.87"/><line class="cls-2" x1="492.64" y1="608.09" x2="479.44" y2="611.11"/><line class="cls-2" x1="286.98" y1="637.04" x2="273.78" y2="640.05"/><line class="cls-2" x1="222.37" y1="625.23" x2="209.17" y2="628.24"/><path class="cls-2" d="M158,613.42,146.87,616S141,634.4,140.28,634s7.62,15,7.62,15l19.58,4.2,10.66-3.93"/><line class="cls-2" x1="673.05" y1="646.54" x2="670.03" y2="659.97"/><line class="cls-2" x1="608.43" y1="634.73" x2="605.42" y2="648.16"/><line class="cls-2" x1="544.05" y1="622.92" x2="540.81" y2="636.35"/><line class="cls-2" x1="479.44" y1="611.11" x2="476.19" y2="624.54"/><line class="cls-2" x1="403.01" y1="663.68" x2="401.16" y2="671.78"/><line class="cls-2" x1="413.43" y1="605.08" x2="411.58" y2="612.73"/><line class="cls-2" x1="338.4" y1="651.87" x2="335.39" y2="665.3"/><line class="cls-2" x1="273.78" y1="640.05" x2="270.77" y2="653.49"/><line class="cls-2" x1="209.17" y1="628.24" x2="206.16" y2="641.68"/><line class="cls-2" x1="686.71" y1="605.08" x2="690.18" y2="611.57"/><line class="cls-2" x1="670.04" y1="659.97" x2="676.06" y2="671.78"/><line class="cls-2" x1="605.42" y1="648.16" x2="613.76" y2="664.37"/><line class="cls-2" x1="540.81" y1="636.35" x2="549.14" y2="652.56"/><line class="cls-2" x1="476.19" y1="624.54" x2="484.53" y2="640.75"/><line class="cls-2" x1="411.58" y1="612.73" x2="420.15" y2="628.94"/><line class="cls-2" x1="349.28" y1="605.08" x2="355.54" y2="616.9"/><line class="cls-2" x1="335.39" y1="665.3" x2="338.63" y2="671.78"/><line class="cls-2" x1="290.92" y1="605.08" x2="290.92" y2="604.85"/><line class="cls-2" x1="270.77" y1="653.49" x2="279.11" y2="669.7"/><line class="cls-2" x1="206.16" y1="641.68" x2="214.5" y2="657.89"/><line class="cls-2" x1="690.18" y1="611.57" x2="705.47" y2="619.67"/><line class="cls-2" x1="635.3" y1="605.08" x2="640.85" y2="607.86"/><line class="cls-2" x1="613.76" y1="664.37" x2="627.65" y2="671.78"/><line class="cls-2" x1="549.14" y1="652.56" x2="564.43" y2="660.67"/><line class="cls-2" x1="484.53" y1="640.75" x2="499.82" y2="648.85"/><line class="cls-2" x1="420.15" y1="628.94" x2="435.2" y2="637.04"/><line class="cls-2" x1="355.54" y1="616.9" x2="370.59" y2="625.23"/><line class="cls-2" x1="290.92" y1="605.08" x2="306.21" y2="613.19"/><line class="cls-2" x1="279.11" y1="669.7" x2="282.82" y2="671.78"/><line class="cls-2" x1="214.5" y1="657.89" x2="229.78" y2="665.99"/><line class="cls-2" x1="306.21" y1="613.19" x2="318.94" y2="608.33"/><line class="cls-2" x1="229.78" y1="665.99" x2="242.52" y2="661.13"/><line class="cls-2" x1="370.59" y1="625.23" x2="383.56" y2="620.14"/><line class="cls-2" x1="435.2" y1="637.04" x2="448.17" y2="631.95"/><line class="cls-2" x1="499.82" y1="648.85" x2="512.79" y2="643.76"/><line class="cls-2" x1="640.86" y1="607.86" x2="648.5" y2="605.08"/><line class="cls-2" x1="564.43" y1="660.67" x2="577.4" y2="655.57"/><line class="cls-2" x1="705.47" y1="619.67" x2="710.33" y2="617.82"/><line class="cls-2" x1="630.9" y1="671.78" x2="642.01" y2="667.61"/><line class="cls-2" x1="178.14" y1="649.32" x2="182.07" y2="634.03"/><line class="cls-2" x1="242.52" y1="661.13" x2="246.69" y2="645.84"/><line class="cls-2" x1="318.94" y1="608.33" x2="319.87" y2="605.08"/><line class="cls-2" x1="307.6" y1="671.78" x2="311.3" y2="657.66"/><line class="cls-2" x1="383.56" y1="620.14" x2="387.73" y2="605.08"/><line class="cls-2" x1="375.22" y1="671.78" x2="375.92" y2="669.47"/><line class="cls-2" x1="448.17" y1="631.95" x2="452.34" y2="616.66"/><line class="cls-2" x1="512.79" y1="643.76" x2="516.95" y2="628.47"/><line class="cls-2" x1="577.4" y1="655.57" x2="581.57" y2="640.52"/><line class="cls-2" x1="642.01" y1="667.61" x2="645.95" y2="652.33"/><line class="cls-2" x1="182.07" y1="634.03" x2="171.42" y2="616.66"/><line class="cls-2" x1="246.69" y1="645.84" x2="236.03" y2="628.47"/><line class="cls-2" x1="311.3" y1="657.66" x2="300.42" y2="640.29"/><line class="cls-2" x1="375.91" y1="669.47" x2="365.03" y2="652.1"/><line class="cls-2" x1="434.51" y1="671.78" x2="429.64" y2="663.91"/><line class="cls-2" x1="452.34" y1="616.66" x2="444.93" y2="605.08"/><line class="cls-2" x1="516.95" y1="628.47" x2="506.07" y2="611.34"/><line class="cls-2" x1="581.57" y1="640.52" x2="570.68" y2="623.15"/><line class="cls-2" x1="645.95" y1="652.33" x2="635.3" y2="634.96"/><line class="cls-2" x1="710.33" y1="663.44" x2="699.68" y2="646.77"/><line class="cls-2" x1="170.73" y1="615.74" x2="176.28" y2="611.57"/><line class="cls-2" x1="235.34" y1="627.78" x2="240.9" y2="623.38"/><line class="cls-2" x1="299.95" y1="639.59" x2="305.51" y2="635.19"/><line class="cls-2" x1="364.57" y1="651.4" x2="369.89" y2="647"/><line class="cls-2" x1="429.18" y1="663.21" x2="434.51" y2="658.81"/><line class="cls-2" x1="505.61" y1="610.41" x2="510.93" y2="606.24"/><line class="cls-2" x1="497.96" y1="671.78" x2="499.12" y2="670.62"/><line class="cls-2" x1="569.99" y1="622.22" x2="575.55" y2="618.05"/><line class="cls-2" x1="634.6" y1="634.26" x2="640.16" y2="629.86"/><line class="cls-2" x1="699.21" y1="646.08" x2="704.77" y2="641.68"/><line class="cls-2" x1="176.28" y1="611.57" x2="178.6" y2="605.08"/><line class="cls-2" x1="240.9" y1="623.38" x2="245.07" y2="610.87"/><line class="cls-2" x1="305.51" y1="635.19" x2="309.68" y2="622.68"/><line class="cls-2" x1="369.89" y1="647" x2="374.29" y2="634.5"/><line class="cls-2" x1="434.51" y1="658.81" x2="438.91" y2="646.31"/><line class="cls-2" x1="510.93" y1="606.24" x2="511.39" y2="605.08"/><line class="cls-2" x1="499.12" y1="670.62" x2="503.52" y2="658.12"/><line class="cls-2" x1="575.55" y1="618.05" x2="579.95" y2="605.32"/><line class="cls-2" x1="567.44" y1="671.78" x2="568.13" y2="669.93"/><line class="cls-2" x1="640.16" y1="629.86" x2="644.56" y2="617.36"/><line class="cls-2" x1="704.77" y1="641.68" x2="708.94" y2="629.17"/><line class="cls-2" x1="230.71" y1="671.78" x2="228.16" y2="667.61"/><line class="cls-2" x1="245.07" y1="610.87" x2="241.13" y2="605.08"/><line class="cls-2" x1="309.68" y1="622.68" x2="304.35" y2="615.04"/><line class="cls-2" x1="374.29" y1="634.5" x2="368.97" y2="626.85"/><line class="cls-2" x1="438.91" y1="646.31" x2="433.58" y2="638.66"/><line class="cls-2" x1="503.52" y1="658.12" x2="498.19" y2="650.48"/><line class="cls-2" x1="568.13" y1="669.93" x2="562.81" y2="662.29"/><line class="cls-2" x1="579.95" y1="605.32" x2="579.48" y2="605.08"/><line class="cls-2" x1="644.56" y1="617.36" x2="639.23" y2="609.72"/><line class="cls-2" x1="708.94" y1="629.17" x2="703.85" y2="621.53"/><line class="cls-2" x1="177.44" y1="660.43" x2="176.28" y2="655.57"/><line class="cls-2" x1="241.82" y1="671.78" x2="240.9" y2="667.38"/><line class="cls-2" x1="253.63" y1="607.63" x2="253.17" y2="605.08"/><line class="cls-2" x1="318.25" y1="619.44" x2="317.32" y2="614.58"/><line class="cls-2" x1="382.86" y1="631.25" x2="381.7" y2="626.39"/><line class="cls-2" x1="447.48" y1="643.3" x2="446.32" y2="638.43"/><line class="cls-2" x1="512.09" y1="655.11" x2="510.93" y2="650.24"/><line class="cls-2" x1="576.7" y1="666.92" x2="575.54" y2="662.06"/><line class="cls-2" x1="653.13" y1="614.12" x2="651.97" y2="609.25"/><line class="cls-2" x1="575.54" y1="662.06" x2="568.6" y2="663.44"/><line class="cls-2" x1="710.33" y1="622.45" x2="709.64" y2="622.45"/><line class="cls-2" x1="510.93" y1="650.24" x2="503.98" y2="651.63"/><line class="cls-2" x1="651.97" y1="609.25" x2="645.02" y2="610.64"/><line class="cls-2" x1="446.32" y1="638.43" x2="439.37" y2="639.82"/><line class="cls-2" x1="240.9" y1="667.38" x2="233.95" y2="668.77"/><line class="cls-2" x1="381.7" y1="626.39" x2="374.76" y2="627.78"/><line class="cls-2" x1="176.28" y1="655.57" x2="169.33" y2="656.96"/><line class="cls-2" x1="317.32" y1="614.58" x2="310.37" y2="615.97"/><line class="cls-2" x1="709.64" y1="622.45" x2="710.33" y2="624.31"/><line class="cls-2" x1="645.02" y1="610.64" x2="648.96" y2="621.53"/><line class="cls-2" x1="582.72" y1="605.08" x2="584.35" y2="609.48"/><line class="cls-2" x1="568.6" y1="663.44" x2="571.61" y2="671.78"/><line class="cls-2" x1="503.98" y1="651.63" x2="507.92" y2="662.29"/><line class="cls-2" x1="439.37" y1="639.82" x2="443.54" y2="650.48"/><line class="cls-2" x1="374.76" y1="627.78" x2="378.92" y2="638.66"/><line class="cls-2" x1="310.37" y1="615.97" x2="314.31" y2="626.85"/><line class="cls-2" x1="245.99" y1="605.08" x2="249.7" y2="615.04"/><line class="cls-2" x1="233.95" y1="668.77" x2="234.88" y2="671.78"/><polyline class="cls-2" points="169.34 656.96 173.27 667.61 177.44 660.43"/><line class="cls-2" x1="249.7" y1="615.04" x2="253.63" y2="607.63"/><line class="cls-2" x1="314.31" y1="626.85" x2="318.25" y2="619.44"/><line class="cls-2" x1="378.92" y1="638.66" x2="382.86" y2="631.25"/><line class="cls-2" x1="443.54" y1="650.48" x2="447.48" y2="643.3"/><line class="cls-2" x1="507.92" y1="662.29" x2="512.09" y2="655.11"/><line class="cls-2" x1="584.35" y1="609.48" x2="586.89" y2="605.08"/><line class="cls-2" x1="573.92" y1="671.78" x2="576.7" y2="666.92"/><line class="cls-2" x1="648.96" y1="621.53" x2="653.13" y2="614.12"/><line class="cls-2" x1="646.87" y1="636.35" x2="648.26" y2="647.93"/><line class="cls-2" x1="582.26" y1="624.54" x2="583.65" y2="636.12"/><line class="cls-2" x1="517.88" y1="612.73" x2="519.04" y2="624.31"/><line class="cls-2" x1="453.73" y1="605.08" x2="454.42" y2="612.49"/><line class="cls-2" x1="441.45" y1="665.53" x2="442.15" y2="671.78"/><line class="cls-2" x1="376.84" y1="653.72" x2="378" y2="665.3"/><line class="cls-2" x1="312.23" y1="641.68" x2="313.38" y2="653.25"/><line class="cls-2" x1="247.61" y1="629.86" x2="248.77" y2="641.44"/><line class="cls-2" x1="183" y1="618.05" x2="184.39" y2="629.63"/><line class="cls-2" x1="648.26" y1="647.93" x2="656.6" y2="652.79"/><line class="cls-2" x1="583.65" y1="636.12" x2="591.99" y2="640.98"/><line class="cls-2" x1="519.04" y1="624.31" x2="527.37" y2="629.17"/><line class="cls-2" x1="454.42" y1="612.49" x2="462.99" y2="617.36"/><line class="cls-2" x1="397.45" y1="605.08" x2="398.38" y2="605.55"/><line class="cls-2" x1="378" y1="665.3" x2="386.57" y2="670.16"/><line class="cls-2" x1="313.38" y1="653.25" x2="321.95" y2="658.12"/><line class="cls-2" x1="248.77" y1="641.44" x2="257.34" y2="646.31"/><line class="cls-2" x1="184.39" y1="629.63" x2="192.73" y2="634.5"/><line class="cls-2" x1="520.89" y1="664.6" x2="511.16" y2="666.92"/><line class="cls-2" x1="661.93" y1="623.84" x2="652.2" y2="625.93"/><line class="cls-2" x1="456.28" y1="652.79" x2="446.55" y2="655.11"/><line class="cls-2" x1="597.31" y1="612.03" x2="587.59" y2="614.12"/><line class="cls-2" x1="391.89" y1="640.98" x2="381.94" y2="643.3"/><line class="cls-2" x1="327.28" y1="629.17" x2="317.55" y2="631.49"/><line class="cls-2" x1="262.67" y1="617.36" x2="252.94" y2="619.44"/><line class="cls-2" x1="198.05" y1="605.55" x2="188.33" y2="607.63"/><line class="cls-2" x1="652.2" y1="625.93" x2="646.88" y2="636.35"/><line class="cls-2" x1="587.59" y1="614.12" x2="582.26" y2="624.54"/><line class="cls-2" x1="511.16" y1="666.92" x2="508.85" y2="671.78"/><line class="cls-2" x1="521.82" y1="605.08" x2="517.88" y2="612.73"/><line class="cls-2" x1="446.55" y1="655.11" x2="441.45" y2="665.53"/><line class="cls-2" x1="381.94" y1="643.3" x2="376.84" y2="653.72"/><line class="cls-2" x1="317.55" y1="631.49" x2="312.23" y2="641.68"/><line class="cls-2" x1="252.94" y1="619.44" x2="247.61" y2="629.86"/><line class="cls-2" x1="188.33" y1="607.63" x2="183" y2="618.05"/><line class="cls-2" x1="671.42" y1="640.98" x2="665.63" y2="650.48"/><line class="cls-2" x1="606.81" y1="629.17" x2="601.25" y2="638.66"/><line class="cls-2" x1="542.43" y1="617.13" x2="536.64" y2="626.85"/><line class="cls-2" x1="466" y1="669.93" x2="464.85" y2="671.78"/><line class="cls-2" x1="477.81" y1="605.32" x2="472.02" y2="615.04"/><line class="cls-2" x1="401.39" y1="658.12" x2="395.6" y2="667.84"/><line class="cls-2" x1="336.78" y1="646.31" x2="330.99" y2="655.8"/><line class="cls-2" x1="272.16" y1="634.5" x2="266.37" y2="643.99"/><line class="cls-2" x1="207.55" y1="622.68" x2="201.76" y2="632.18"/><line class="cls-2" x1="143.17" y1="610.64" x2="134.56" y2="621.9"/><line class="cls-2" x1="665.63" y1="650.48" x2="656.6" y2="652.79"/><line class="cls-2" x1="601.25" y1="638.66" x2="591.99" y2="640.98"/><line class="cls-2" x1="395.6" y1="667.84" x2="386.57" y2="670.16"/><line class="cls-2" x1="536.64" y1="626.85" x2="527.38" y2="629.17"/><line class="cls-2" x1="330.99" y1="655.8" x2="321.95" y2="658.12"/><line class="cls-2" x1="472.03" y1="615.04" x2="462.99" y2="617.36"/><line class="cls-2" x1="266.37" y1="643.99" x2="257.34" y2="646.31"/><line class="cls-2" x1="400.23" y1="605.08" x2="398.38" y2="605.55"/><line class="cls-2" x1="201.76" y1="632.18" x2="192.73" y2="634.5"/><line class="cls-2" x1="661.93" y1="624.54" x2="670.04" y2="629.86"/><line class="cls-2" x1="597.32" y1="612.49" x2="605.65" y2="618.05"/><line class="cls-2" x1="538.95" y1="605.08" x2="541.04" y2="606.24"/><line class="cls-2" x1="520.89" y1="665.3" x2="529.23" y2="670.86"/><line class="cls-2" x1="456.28" y1="653.49" x2="464.61" y2="659.04"/><line class="cls-2" x1="391.66" y1="641.68" x2="400" y2="647.23"/><line class="cls-2" x1="327.05" y1="629.86" x2="335.39" y2="635.42"/><line class="cls-2" x1="262.44" y1="618.05" x2="270.77" y2="623.61"/><line class="cls-2" x1="198.05" y1="606.24" x2="206.39" y2="611.57"/><line class="cls-2" x1="670.04" y1="629.86" x2="671.42" y2="640.98"/><line class="cls-2" x1="605.65" y1="618.05" x2="606.81" y2="629.17"/><line class="cls-2" x1="541.04" y1="606.24" x2="542.43" y2="617.13"/><line class="cls-2" x1="529.23" y1="670.86" x2="529.23" y2="671.78"/><line class="cls-2" x1="477.82" y1="605.08" x2="477.82" y2="605.32"/><line class="cls-2" x1="464.61" y1="659.04" x2="466" y2="669.93"/><line class="cls-2" x1="400" y1="647.23" x2="401.39" y2="658.12"/><line class="cls-2" x1="335.39" y1="635.42" x2="336.78" y2="646.31"/><line class="cls-2" x1="270.77" y1="623.61" x2="272.16" y2="634.5"/><line class="cls-2" x1="206.39" y1="611.57" x2="207.55" y2="622.68"/><line class="cls-2" x1="142.24" y1="605.08" x2="143.17" y2="610.64"/><line class="cls-2" x1="655.68" y1="657.42" x2="660.54" y2="660.2"/><line class="cls-2" x1="591.29" y1="645.61" x2="595.93" y2="648.39"/><line class="cls-2" x1="526.68" y1="633.8" x2="531.54" y2="636.58"/><line class="cls-2" x1="462.07" y1="621.76" x2="466.93" y2="624.77"/><line class="cls-2" x1="397.45" y1="609.95" x2="402.32" y2="612.96"/><line class="cls-2" x1="321.03" y1="662.75" x2="325.89" y2="665.53"/><line class="cls-2" x1="256.41" y1="650.94" x2="261.28" y2="653.72"/><line class="cls-2" x1="192.03" y1="639.13" x2="196.66" y2="641.91"/><line class="cls-2" x1="263.13" y1="614.12" x2="266.6" y2="614.12"/><line class="cls-2" x1="598.01" y1="608.79" x2="601.25" y2="608.79"/><line class="cls-2" x1="327.74" y1="625.93" x2="331.22" y2="625.93"/><line class="cls-2" x1="662.62" y1="620.6" x2="665.87" y2="620.6"/><line class="cls-2" x1="392.36" y1="637.74" x2="395.83" y2="637.74"/><line class="cls-2" x1="456.97" y1="649.55" x2="460.21" y2="649.55"/><line class="cls-2" x1="186.94" y1="666.92" x2="190.18" y2="666.69"/><line class="cls-2" x1="521.59" y1="661.36" x2="524.83" y2="661.36"/><line class="cls-2" x1="190.18" y1="666.69" x2="195.74" y2="654.41"/><line class="cls-2" x1="266.6" y1="614.12" x2="270.77" y2="605.08"/><line class="cls-2" x1="257.8" y1="671.78" x2="260.35" y2="666.22"/><line class="cls-2" x1="331.22" y1="625.93" x2="336.78" y2="613.65"/><line class="cls-2" x1="395.83" y1="637.74" x2="401.39" y2="625.46"/><line class="cls-2" x1="460.21" y1="649.55" x2="466" y2="637.27"/><line class="cls-2" x1="524.83" y1="661.36" x2="530.39" y2="649.09"/><line class="cls-2" x1="601.25" y1="608.79" x2="602.87" y2="605.08"/><line class="cls-2" x1="590.14" y1="671.78" x2="595" y2="660.9"/><line class="cls-2" x1="665.87" y1="620.6" x2="671.43" y2="608.09"/><line class="cls-2" x1="195.74" y1="654.41" x2="196.66" y2="641.91"/><line class="cls-2" x1="260.35" y1="666.22" x2="261.28" y2="653.72"/><line class="cls-2" x1="325.43" y1="671.78" x2="325.89" y2="665.53"/><line class="cls-2" x1="336.78" y1="613.65" x2="337.47" y2="605.08"/><line class="cls-2" x1="401.39" y1="625.46" x2="402.32" y2="612.96"/><line class="cls-2" x1="466" y1="637.27" x2="466.93" y2="624.77"/><line class="cls-2" x1="530.39" y1="649.09" x2="531.54" y2="636.58"/><line class="cls-2" x1="595" y1="660.9" x2="595.93" y2="648.39"/><line class="cls-2" x1="659.61" y1="671.78" x2="660.54" y2="660.2"/><line class="cls-2" x1="671.42" y1="608.09" x2="671.66" y2="605.08"/><line class="cls-2" x1="703.85" y1="621.53" x2="695.05" y2="625.23"/><line class="cls-2" x1="562.81" y1="662.29" x2="554.01" y2="665.99"/><line class="cls-2" x1="639.23" y1="609.72" x2="630.43" y2="613.42"/><line class="cls-2" x1="498.2" y1="650.48" x2="489.39" y2="654.18"/><line class="cls-2" x1="433.58" y1="638.66" x2="425.01" y2="642.37"/><line class="cls-2" x1="368.97" y1="626.85" x2="360.4" y2="630.56"/><line class="cls-2" x1="228.16" y1="667.61" x2="219.36" y2="671.55"/><line class="cls-2" x1="304.35" y1="615.04" x2="295.78" y2="618.75"/><line class="cls-2" x1="235.57" y1="605.08" x2="231.17" y2="606.94"/><line class="cls-2" x1="695.05" y1="625.23" x2="690.18" y2="640.98"/><line class="cls-2" x1="630.43" y1="613.42" x2="625.57" y2="629.17"/><line class="cls-2" x1="554.01" y1="665.99" x2="552.39" y2="671.78"/><line class="cls-2" x1="564.89" y1="605.08" x2="560.96" y2="617.36"/><line class="cls-2" x1="489.39" y1="654.18" x2="484.53" y2="670.16"/><line class="cls-2" x1="496.57" y1="605.08" x2="496.34" y2="605.55"/><line class="cls-2" x1="425.01" y1="642.37" x2="419.92" y2="658.12"/><line class="cls-2" x1="360.4" y1="630.56" x2="355.54" y2="646.31"/><line class="cls-2" x1="295.78" y1="618.75" x2="290.92" y2="634.5"/><line class="cls-2" x1="219.36" y1="671.55" x2="219.36" y2="671.78"/><line class="cls-2" x1="231.17" y1="606.94" x2="226.31" y2="622.68"/><line class="cls-2" x1="163.55" y1="605.08" x2="161.69" y2="610.87"/><line class="cls-2" x1="690.18" y1="640.98" x2="695.28" y2="645.38"/><line class="cls-2" x1="625.57" y1="629.17" x2="630.9" y2="633.34"/><line class="cls-2" x1="560.96" y1="617.36" x2="566.28" y2="621.53"/><line class="cls-2" x1="496.34" y1="605.55" x2="501.67" y2="609.72"/><line class="cls-2" x1="484.53" y1="670.16" x2="486.62" y2="671.78"/><line class="cls-2" x1="419.92" y1="658.12" x2="425.24" y2="662.52"/><line class="cls-2" x1="355.54" y1="646.31" x2="360.63" y2="650.71"/><line class="cls-2" x1="290.92" y1="634.5" x2="296.02" y2="638.9"/><line class="cls-2" x1="226.31" y1="622.68" x2="231.4" y2="627.08"/><line class="cls-2" x1="161.69" y1="610.87" x2="167.02" y2="615.04"/><line class="cls-2" x1="501.67" y1="609.72" x2="505.61" y2="610.41"/><line class="cls-2" x1="566.28" y1="621.53" x2="569.99" y2="622.22"/><line class="cls-2" x1="630.9" y1="633.34" x2="634.6" y2="634.26"/><line class="cls-2" x1="695.28" y1="645.38" x2="699.22" y2="646.08"/><line class="cls-2" x1="167.02" y1="615.04" x2="170.73" y2="615.74"/><line class="cls-2" x1="231.4" y1="627.08" x2="235.34" y2="627.78"/><line class="cls-2" x1="296.02" y1="638.9" x2="299.95" y2="639.59"/><line class="cls-2" x1="360.63" y1="650.71" x2="364.57" y2="651.4"/><line class="cls-2" x1="425.24" y1="662.52" x2="429.18" y2="663.21"/><line class="cls-2" x1="198.05" y1="653.49" x2="206.62" y2="650.48"/><line class="cls-2" x1="338.86" y1="612.73" x2="347.43" y2="609.48"/><line class="cls-2" x1="262.44" y1="665.3" x2="271" y2="662.29"/><line class="cls-2" x1="403.47" y1="624.54" x2="412.04" y2="621.3"/><line class="cls-2" x1="468.09" y1="636.35" x2="476.66" y2="633.11"/><line class="cls-2" x1="532.7" y1="648.16" x2="541.27" y2="645.15"/><line class="cls-2" x1="673.74" y1="607.17" x2="679.99" y2="605.08"/><line class="cls-2" x1="597.32" y1="659.97" x2="605.89" y2="656.96"/><line class="cls-2" x1="662.16" y1="671.78" x2="670.5" y2="668.77"/><line class="cls-2" x1="682.77" y1="605.08" x2="692.96" y2="618.05"/><line class="cls-2" x1="627.42" y1="605.08" x2="628.35" y2="606.24"/><line class="cls-2" x1="670.5" y1="668.77" x2="672.58" y2="671.78"/><line class="cls-2" x1="605.89" y1="656.96" x2="616.54" y2="670.86"/><line class="cls-2" x1="541.27" y1="645.15" x2="551.92" y2="659.04"/><line class="cls-2" x1="476.66" y1="633.11" x2="487.54" y2="647.23"/><line class="cls-2" x1="412.04" y1="621.3" x2="422.93" y2="635.42"/><line class="cls-2" x1="347.43" y1="609.48" x2="358.31" y2="623.61"/><line class="cls-2" x1="288.61" y1="605.08" x2="293.7" y2="611.57"/><line class="cls-2" x1="271.01" y1="662.29" x2="278.42" y2="671.78"/><line class="cls-2" x1="206.62" y1="650.48" x2="217.28" y2="664.37"/><line class="cls-2" x1="692.96" y1="618.05" x2="689.95" y2="634.96"/><line class="cls-2" x1="628.35" y1="606.24" x2="625.34" y2="623.15"/><line class="cls-2" x1="616.54" y1="670.86" x2="616.54" y2="671.78"/><line class="cls-2" x1="561.88" y1="605.08" x2="560.73" y2="611.34"/><line class="cls-2" x1="551.92" y1="659.04" x2="549.61" y2="671.78"/><line class="cls-2" x1="487.54" y1="647.23" x2="484.3" y2="663.91"/><line class="cls-2" x1="422.93" y1="635.42" x2="419.69" y2="652.1"/><line class="cls-2" x1="358.32" y1="623.61" x2="355.3" y2="640.29"/><line class="cls-2" x1="293.7" y1="611.57" x2="290.69" y2="628.47"/><line class="cls-2" x1="228.16" y1="605.08" x2="226.08" y2="616.66"/><line class="cls-2" x1="217.28" y1="664.37" x2="215.89" y2="671.78"/><line class="cls-2" x1="689.95" y1="634.96" x2="682.54" y2="642.37"/><line class="cls-2" x1="625.34" y1="623.15" x2="617.93" y2="630.33"/><line class="cls-2" x1="560.73" y1="611.34" x2="553.55" y2="618.52"/><line class="cls-2" x1="484.3" y1="663.91" x2="477.12" y2="671.32"/><line class="cls-2" x1="490.55" y1="605.08" x2="488.93" y2="606.71"/><line class="cls-2" x1="419.69" y1="652.1" x2="412.51" y2="659.51"/><line class="cls-2" x1="355.3" y1="640.29" x2="347.89" y2="647.7"/><line class="cls-2" x1="290.69" y1="628.47" x2="283.28" y2="635.89"/><line class="cls-2" x1="226.08" y1="616.66" x2="218.67" y2="623.84"/><polyline class="cls-2" points="161.23 605.08 154.05 612.03 145.48 607.86"/><line class="cls-2" x1="218.67" y1="623.84" x2="210.1" y2="619.67"/><line class="cls-2" x1="283.28" y1="635.89" x2="274.71" y2="631.49"/><line class="cls-2" x1="347.89" y1="647.7" x2="339.32" y2="643.3"/><line class="cls-2" x1="412.51" y1="659.51" x2="403.94" y2="655.34"/><line class="cls-2" x1="477.12" y1="671.32" x2="468.55" y2="667.15"/><line class="cls-2" x1="488.93" y1="606.71" x2="485.23" y2="605.08"/><line class="cls-2" x1="553.55" y1="618.52" x2="544.98" y2="614.35"/><line class="cls-2" x1="617.93" y1="630.33" x2="609.36" y2="626.16"/><line class="cls-2" x1="682.54" y1="642.37" x2="673.97" y2="637.97"/><line class="cls-2" x1="145.48" y1="607.86" x2="144.79" y2="605.08"/><line class="cls-2" x1="194.35" y1="671.78" x2="193.65" y2="669.47"/><line class="cls-2" x1="210.1" y1="619.67" x2="205.47" y2="605.08"/><line class="cls-2" x1="274.71" y1="631.49" x2="270.08" y2="616.66"/><line class="cls-2" x1="339.32" y1="643.3" x2="334.69" y2="628.47"/><line class="cls-2" x1="403.94" y1="655.34" x2="399.31" y2="640.29"/><line class="cls-2" x1="468.55" y1="667.15" x2="463.92" y2="652.33"/><line class="cls-2" x1="530.85" y1="671.78" x2="528.3" y2="664.14"/><line class="cls-2" x1="544.98" y1="614.35" x2="541.97" y2="605.08"/><line class="cls-2" x1="609.36" y1="626.16" x2="604.73" y2="611.34"/><line class="cls-2" x1="673.97" y1="637.97" x2="669.34" y2="623.15"/><line class="cls-2" x1="193.65" y1="669.47" x2="198.05" y2="653.49"/><line class="cls-2" x1="270.08" y1="616.66" x2="273.32" y2="605.08"/><line class="cls-2" x1="260.82" y1="671.78" x2="262.44" y2="665.3"/><line class="cls-2" x1="334.69" y1="628.47" x2="338.86" y2="612.73"/><line class="cls-2" x1="399.31" y1="640.29" x2="403.48" y2="624.54"/><line class="cls-2" x1="463.92" y1="652.33" x2="468.09" y2="636.35"/><line class="cls-2" x1="528.3" y1="664.14" x2="532.7" y2="648.16"/><line class="cls-2" x1="604.73" y1="611.34" x2="606.58" y2="605.08"/><line class="cls-2" x1="594.07" y1="671.78" x2="597.32" y2="659.97"/><line class="cls-2" x1="669.34" y1="623.15" x2="673.74" y2="607.17"/><line class="cls-2" x1="1037.11" y1="672.71" x2="1036.88" y2="672.25"/><line class="cls-2" x1="1145.95" y1="611.34" x2="1141.09" y2="605.08"/><line class="cls-2" x1="1231.87" y1="627.08" x2="1224.7" y2="617.59"/><line class="cls-2" x1="1318.03" y1="642.83" x2="1310.85" y2="633.57"/><line class="cls-2" x1="1404.18" y1="658.58" x2="1397" y2="649.32"/><line class="cls-2" x1="779.11" y1="619.21" x2="780.5" y2="605.08"/><line class="cls-2" x1="1036.88" y1="672.25" x2="1038.73" y2="652.1"/><line class="cls-2" x1="1124.19" y1="674.56" x2="1124.88" y2="667.84"/><line class="cls-2" x1="1224.7" y1="617.59" x2="1226.09" y2="605.08"/><line class="cls-2" x1="1310.85" y1="633.57" x2="1312.7" y2="613.42"/><line class="cls-2" x1="1397" y1="649.32" x2="1398.85" y2="629.17"/><line class="cls-2" x1="868.74" y1="619.21" x2="878.7" y2="612.96"/><line class="cls-2" x1="1038.73" y1="652.1" x2="1050.77" y2="644.45"/><line class="cls-2" x1="1124.88" y1="667.84" x2="1136.92" y2="660.2"/><line class="cls-2" x1="1312.7" y1="613.42" x2="1324.97" y2="605.78"/><line class="cls-2" x1="1222.15" y1="676.65" x2="1223.07" y2="676.18"/><line class="cls-2" x1="1398.85" y1="629.17" x2="1410.89" y2="621.53"/><line class="cls-2" x1="1023.44" y1="614.58" x2="1005.38" y2="610.41"/><line class="cls-2" x1="1109.36" y1="630.33" x2="1091.53" y2="626.16"/><line class="cls-2" x1="1195.52" y1="646.08" x2="1177.68" y2="641.91"/><line class="cls-2" x1="1281.67" y1="661.82" x2="1263.83" y2="657.65"/><polyline class="cls-2" points="1367.82 677.8 1349.76 673.63 1332.15 677.34"/><line class="cls-2" x1="1263.83" y1="657.65" x2="1246" y2="661.59"/><line class="cls-2" x1="1443.78" y1="605.08" x2="1434.05" y2="607.17"/><line class="cls-2" x1="1177.68" y1="641.91" x2="1160.08" y2="645.84"/><line class="cls-2" x1="1091.53" y1="626.16" x2="1073.93" y2="630.1"/><line class="cls-2" x1="1005.38" y1="610.41" x2="987.78" y2="614.35"/><line class="cls-2" x1="1434.05" y1="607.17" x2="1429.88" y2="625"/><line class="cls-2" x1="1332.15" y1="677.34" x2="1331.92" y2="678.96"/><line class="cls-2" x1="1344.89" y1="605.08" x2="1343.73" y2="609.25"/><line class="cls-2" x1="1246" y1="661.59" x2="1242.53" y2="677.11"/><line class="cls-2" x1="1160.08" y1="645.84" x2="1155.91" y2="663.68"/><line class="cls-2" x1="1073.93" y1="630.1" x2="1069.76" y2="647.93"/><line class="cls-2" x1="987.78" y1="614.35" x2="986.62" y2="619.21"/><line class="cls-2" x1="900.24" y1="605.08" x2="897.46" y2="616.43"/><line class="cls-2" x1="1429.88" y1="625" x2="1441" y2="646.77"/><line class="cls-2" x1="1343.73" y1="609.25" x2="1355.08" y2="630.79"/><line class="cls-2" x1="1263.6" y1="605.08" x2="1268.93" y2="615.04"/><line class="cls-2" x1="1155.91" y1="663.68" x2="1161.7" y2="675.26"/><line class="cls-2" x1="1069.76" y1="647.93" x2="1080.88" y2="669.7"/><line class="cls-2" x1="992.41" y1="649.32" x2="994.73" y2="653.72"/><line class="cls-2" x1="897.46" y1="616.43" x2="899.08" y2="619.21"/><line class="cls-2" x1="813.62" y1="605.08" x2="821.03" y2="619.21"/><line class="cls-2" x1="735.81" y1="605.08" x2="736.5" y2="606.47"/><line class="cls-2" x1="1441" y1="646.77" x2="1458.6" y2="656.03"/><line class="cls-2" x1="1355.08" y1="630.79" x2="1375.23" y2="641.68"/><line class="cls-2" x1="1268.93" y1="615.04" x2="1289.08" y2="625.93"/><line class="cls-2" x1="1193.43" y1="605.08" x2="1203.16" y2="610.18"/><line class="cls-2" x1="1080.88" y1="669.7" x2="1088.52" y2="673.87"/><line class="cls-2" x1="994.73" y1="653.72" x2="1015.11" y2="664.6"/><polyline class="cls-2" points="736.5 606.47 756.65 617.36 774.02 610.64"/><line class="cls-2" x1="1015.11" y1="664.6" x2="1032.24" y2="658.12"/><line class="cls-2" x1="1203.16" y1="610.18" x2="1216.59" y2="605.08"/><line class="cls-2" x1="1117.01" y1="674.33" x2="1118.4" y2="673.87"/><line class="cls-2" x1="1289.08" y1="625.93" x2="1306.45" y2="619.21"/><line class="cls-2" x1="1375.23" y1="641.68" x2="1392.37" y2="635.19"/><line class="cls-2" x1="774.02" y1="610.64" x2="775.64" y2="605.08"/><line class="cls-2" x1="862.02" y1="619.21" x2="865.5" y2="606.01"/><line class="cls-2" x1="1032.24" y1="658.12" x2="1037.8" y2="637.74"/><line class="cls-2" x1="1118.4" y1="673.87" x2="1123.95" y2="653.49"/><line class="cls-2" x1="1208.02" y1="676.18" x2="1210.11" y2="669.23"/><line class="cls-2" x1="1306.45" y1="619.21" x2="1310.15" y2="605.08"/><line class="cls-2" x1="1392.37" y1="635.19" x2="1397.93" y2="614.81"/><line class="cls-2" x1="865.5" y1="606.01" x2="864.8" y2="605.08"/><line class="cls-2" x1="950.03" y1="619.21" x2="941.23" y2="605.08"/><line class="cls-2" x1="1037.8" y1="637.74" x2="1023.44" y2="614.58"/><line class="cls-2" x1="1123.95" y1="653.49" x2="1109.36" y2="630.33"/><line class="cls-2" x1="1210.11" y1="669.23" x2="1195.52" y2="646.08"/><line class="cls-2" x1="1291.63" y1="678.03" x2="1281.67" y2="661.82"/><line class="cls-2" x1="1368.98" y1="679.66" x2="1367.82" y2="677.8"/><line class="cls-2" x1="1397.93" y1="614.81" x2="1391.9" y2="605.08"/><line class="cls-2" x1="1022.75" y1="613.65" x2="1029.93" y2="607.86"/><line class="cls-2" x1="1108.67" y1="629.4" x2="1116.08" y2="623.61"/><line class="cls-2" x1="1194.82" y1="645.15" x2="1202.23" y2="639.36"/><line class="cls-2" x1="1280.97" y1="660.9" x2="1288.15" y2="655.11"/><line class="cls-2" x1="1367.12" y1="676.65" x2="1374.3" y2="670.86"/><line class="cls-2" x1="1029.93" y1="607.86" x2="1030.85" y2="605.08"/><line class="cls-2" x1="1116.08" y1="623.61" x2="1121.87" y2="606.7"/><line class="cls-2" x1="1202.23" y1="639.36" x2="1207.79" y2="622.68"/><line class="cls-2" x1="1288.15" y1="655.11" x2="1293.94" y2="638.43"/><line class="cls-2" x1="1374.3" y1="670.86" x2="1380.09" y2="654.18"/><line class="cls-2" x1="1016.5" y1="672.25" x2="1012.79" y2="666.92"/><line class="cls-2" x1="1121.87" y1="606.7" x2="1120.48" y2="605.08"/><line class="cls-2" x1="1207.79" y1="622.68" x2="1200.84" y2="612.49"/><line class="cls-2" x1="1293.94" y1="638.43" x2="1286.99" y2="628.24"/><line class="cls-2" x1="1380.09" y1="654.18" x2="1373.15" y2="643.99"/><line class="cls-2" x1="771.47" y1="619.21" x2="771.47" y2="618.98"/><line class="cls-2" x1="1031.32" y1="672.48" x2="1029.93" y2="666.46"/><line class="cls-2" x1="1219.37" y1="618.52" x2="1217.75" y2="612.03"/><line class="cls-2" x1="1305.52" y1="634.26" x2="1303.9" y2="627.78"/><polyline class="cls-2" points="1391.44 650.01 1390.05 643.53 1380.79 645.38"/><line class="cls-2" x1="1303.9" y1="627.78" x2="1294.64" y2="629.63"/><line class="cls-2" x1="1029.93" y1="666.46" x2="1020.66" y2="668.31"/><line class="cls-2" x1="1217.75" y1="612.03" x2="1208.48" y2="613.88"/><line class="cls-2" x1="771.47" y1="619.21" x2="771.24" y2="619.21"/><line class="cls-2" x1="1380.79" y1="645.38" x2="1386.11" y2="659.74"/><line class="cls-2" x1="1294.64" y1="629.63" x2="1300.19" y2="643.99"/><line class="cls-2" x1="1208.48" y1="613.88" x2="1214.04" y2="628.24"/><line class="cls-2" x1="1125.11" y1="605.08" x2="1127.89" y2="612.26"/><line class="cls-2" x1="1020.66" y1="668.31" x2="1022.05" y2="672.25"/><line class="cls-2" x1="1127.89" y1="612.26" x2="1132.06" y2="605.08"/><line class="cls-2" x1="1214.04" y1="628.24" x2="1219.37" y2="618.52"/><line class="cls-2" x1="1300.19" y1="643.99" x2="1305.52" y2="634.26"/><line class="cls-2" x1="1386.11" y1="659.74" x2="1391.44" y2="650.01"/><line class="cls-2" x1="1400.47" y1="605.08" x2="1400.7" y2="609.02"/><line class="cls-2" x1="1383.34" y1="679.66" x2="1383.34" y2="679.89"/><line class="cls-2" x1="1297.42" y1="663.91" x2="1298.8" y2="678.27"/><line class="cls-2" x1="1211.26" y1="648.16" x2="1212.88" y2="663.44"/><line class="cls-2" x1="1125.11" y1="632.41" x2="1126.73" y2="647.7"/><line class="cls-2" x1="1038.96" y1="616.66" x2="1040.58" y2="631.95"/><line class="cls-2" x1="953.27" y1="605.08" x2="954.43" y2="616.2"/><line class="cls-2" x1="1400.7" y1="609.02" x2="1412.05" y2="615.51"/><line class="cls-2" x1="1212.88" y1="663.44" x2="1224" y2="670.16"/><line class="cls-2" x1="1126.73" y1="647.7" x2="1138.08" y2="654.18"/><line class="cls-2" x1="1040.58" y1="631.95" x2="1051.93" y2="638.43"/><line class="cls-2" x1="954.43" y1="616.2" x2="959.76" y2="619.21"/><line class="cls-2" x1="876.38" y1="605.08" x2="879.63" y2="606.94"/><line class="cls-2" x1="1403.48" y1="662.98" x2="1390.28" y2="665.76"/><line class="cls-2" x1="1317.33" y1="647" x2="1304.36" y2="650.01"/><line class="cls-2" x1="1231.18" y1="631.25" x2="1218.21" y2="634.26"/><line class="cls-2" x1="1145.03" y1="615.51" x2="1132.06" y2="618.52"/><line class="cls-2" x1="1390.28" y1="665.76" x2="1383.33" y2="679.66"/><line class="cls-2" x1="1304.36" y1="650.01" x2="1297.41" y2="663.91"/><line class="cls-2" x1="1218.21" y1="634.26" x2="1211.26" y2="648.16"/><line class="cls-2" x1="1132.06" y1="618.52" x2="1125.11" y2="632.41"/><line class="cls-2" x1="1044.75" y1="605.08" x2="1038.96" y2="616.66"/><line class="cls-2" x1="1428.73" y1="605.08" x2="1424.33" y2="612.49"/><line class="cls-2" x1="1330.07" y1="669.93" x2="1324.74" y2="678.73"/><line class="cls-2" x1="1243.92" y1="654.18" x2="1236.27" y2="666.92"/><line class="cls-2" x1="1157.77" y1="638.43" x2="1150.12" y2="651.17"/><line class="cls-2" x1="1071.61" y1="622.45" x2="1063.97" y2="635.42"/><line class="cls-2" x1="985.69" y1="606.7" x2="978.28" y2="619.21"/><line class="cls-2" x1="1236.27" y1="666.92" x2="1224" y2="670.16"/><line class="cls-2" x1="1424.33" y1="612.49" x2="1412.05" y2="615.51"/><line class="cls-2" x1="1150.12" y1="651.17" x2="1138.08" y2="654.18"/><line class="cls-2" x1="1063.97" y1="635.42" x2="1051.93" y2="638.43"/><line class="cls-2" x1="887.27" y1="605.08" x2="879.63" y2="606.94"/><line class="cls-2" x1="1403.25" y1="663.68" x2="1414.37" y2="671.09"/><line class="cls-2" x1="1317.1" y1="647.93" x2="1328.22" y2="655.34"/><line class="cls-2" x1="1230.95" y1="632.18" x2="1242.06" y2="639.59"/><line class="cls-2" x1="1145.03" y1="616.43" x2="1156.14" y2="623.84"/><line class="cls-2" x1="1065.36" y1="605.08" x2="1069.99" y2="608.09"/><line class="cls-2" x1="1414.37" y1="671.09" x2="1415.53" y2="680.58"/><line class="cls-2" x1="1328.22" y1="655.34" x2="1330.07" y2="669.93"/><line class="cls-2" x1="1242.06" y1="639.59" x2="1243.92" y2="654.18"/><line class="cls-2" x1="1156.14" y1="623.84" x2="1157.77" y2="638.43"/><line class="cls-2" x1="1069.99" y1="608.09" x2="1071.61" y2="622.45"/><line class="cls-2" x1="985.46" y1="605.08" x2="985.69" y2="606.7"/><line class="cls-2" x1="1410.89" y1="621.53" x2="1417.38" y2="625.46"/><line class="cls-2" x1="1324.97" y1="605.78" x2="1331.23" y2="609.72"/><line class="cls-2" x1="1223.07" y1="676.18" x2="1223.77" y2="676.65"/><line class="cls-2" x1="1136.92" y1="660.2" x2="1143.41" y2="664.14"/><line class="cls-2" x1="1050.77" y1="644.45" x2="1057.26" y2="648.39"/><line class="cls-2" x1="878.7" y1="612.96" x2="884.95" y2="616.89"/><line class="cls-2" x1="1145.95" y1="611.34" x2="1150.35" y2="611.11"/><line class="cls-2" x1="1231.87" y1="627.08" x2="1236.51" y2="626.85"/><line class="cls-2" x1="1318.03" y1="642.83" x2="1322.66" y2="642.83"/><line class="cls-2" x1="1404.18" y1="658.58" x2="1408.58" y2="658.58"/><line class="cls-2" x1="796.95" y1="619.21" x2="797.64" y2="617.59"/><line class="cls-2" x1="1052.39" y1="672.94" x2="1055.87" y2="665.07"/><line class="cls-2" x1="1150.35" y1="611.11" x2="1153.13" y2="605.08"/><line class="cls-2" x1="1236.51" y1="626.85" x2="1243.92" y2="610.41"/><line class="cls-2" x1="1322.66" y1="642.83" x2="1330.07" y2="626.39"/><line class="cls-2" x1="1408.58" y1="658.58" x2="1416.22" y2="642.14"/><line class="cls-2" x1="797.64" y1="617.59" x2="798.57" y2="605.08"/><line class="cls-2" x1="884.72" y1="619.21" x2="884.95" y2="616.89"/><line class="cls-2" x1="1055.87" y1="665.07" x2="1057.26" y2="648.39"/><line class="cls-2" x1="1142.48" y1="674.79" x2="1143.41" y2="664.14"/><line class="cls-2" x1="1243.92" y1="610.41" x2="1244.38" y2="605.08"/><line class="cls-2" x1="1330.07" y1="626.39" x2="1331.23" y2="609.72"/><line class="cls-2" x1="1416.22" y1="642.14" x2="1417.38" y2="625.46"/><line class="cls-2" x1="1458.6" y1="659.97" x2="1447.49" y2="664.83"/><line class="cls-2" x1="1373.15" y1="643.99" x2="1361.57" y2="649.09"/><line class="cls-2" x1="1286.99" y1="628.24" x2="1275.41" y2="633.11"/><line class="cls-2" x1="1200.84" y1="612.49" x2="1189.26" y2="617.36"/><line class="cls-2" x1="1012.79" y1="666.92" x2="1001.21" y2="672.01"/><line class="cls-2" x1="1447.49" y1="664.83" x2="1442.39" y2="681.28"/><line class="cls-2" x1="1361.57" y1="649.09" x2="1354.85" y2="669.93"/><line class="cls-2" x1="1275.41" y1="633.11" x2="1268.93" y2="654.18"/><line class="cls-2" x1="1189.26" y1="617.36" x2="1182.78" y2="638.43"/><line class="cls-2" x1="1102.18" y1="605.08" x2="1096.63" y2="622.68"/><line class="cls-2" x1="1011.17" y1="605.08" x2="1010.47" y2="606.94"/><line class="cls-2" x1="1354.85" y1="669.93" x2="1361.8" y2="675.72"/><line class="cls-2" x1="1268.93" y1="654.18" x2="1275.88" y2="659.97"/><line class="cls-2" x1="1182.78" y1="638.43" x2="1189.73" y2="644.22"/><line class="cls-2" x1="1096.63" y1="622.68" x2="1103.57" y2="628.47"/><polyline class="cls-2" points="1010.47 606.94 1017.42 612.5 1022.75 613.65"/><line class="cls-2" x1="1103.57" y1="628.47" x2="1108.67" y2="629.4"/><line class="cls-2" x1="1189.73" y1="644.22" x2="1194.82" y2="645.15"/><line class="cls-2" x1="1275.88" y1="659.97" x2="1280.97" y2="660.9"/><line class="cls-2" x1="1361.8" y1="675.72" x2="1367.12" y2="676.65"/><line class="cls-2" x1="800.42" y1="616.43" x2="812" y2="612.26"/><line class="cls-2" x1="1058.88" y1="663.91" x2="1070.22" y2="659.74"/><line class="cls-2" x1="1246.93" y1="609.25" x2="1258.28" y2="605.08"/><line class="cls-2" x1="1332.85" y1="625" x2="1344.43" y2="620.83"/><polyline class="cls-2" points="1419 640.75 1430.35 636.81 1444.94 655.34"/><line class="cls-2" x1="1344.43" y1="620.83" x2="1358.79" y2="639.59"/><line class="cls-2" x1="1258.28" y1="605.08" x2="1272.63" y2="623.84"/><line class="cls-2" x1="1184.17" y1="605.08" x2="1186.48" y2="608.09"/><line class="cls-2" x1="1070.22" y1="659.74" x2="1081.11" y2="673.63"/><line class="cls-2" x1="992.41" y1="654.64" x2="998.43" y2="662.52"/><line class="cls-2" x1="812" y1="612.26" x2="817.33" y2="619.21"/><line class="cls-2" x1="732.33" y1="605.08" x2="740.21" y2="615.27"/><line class="cls-2" x1="1444.94" y1="655.34" x2="1440.77" y2="677.8"/><line class="cls-2" x1="1358.79" y1="639.59" x2="1354.62" y2="662.05"/><line class="cls-2" x1="1272.63" y1="623.84" x2="1268.47" y2="646.08"/><line class="cls-2" x1="1186.48" y1="608.09" x2="1182.31" y2="630.33"/><line class="cls-2" x1="1098.02" y1="605.08" x2="1096.39" y2="614.58"/><line class="cls-2" x1="998.43" y1="662.52" x2="996.81" y2="671.78"/><line class="cls-2" x1="740.21" y1="615.27" x2="739.51" y2="619.21"/><line class="cls-2" x1="1440.77" y1="677.8" x2="1437.3" y2="681.05"/><line class="cls-2" x1="1354.62" y1="662.05" x2="1344.89" y2="671.78"/><line class="cls-2" x1="1268.47" y1="646.08" x2="1258.74" y2="656.03"/><line class="cls-2" x1="1182.31" y1="630.33" x2="1172.59" y2="640.05"/><line class="cls-2" x1="1096.39" y1="614.58" x2="1086.44" y2="624.31"/><polyline class="cls-2" points="1003.99 605.08 1000.52 608.56 993.11 605.08"/><line class="cls-2" x1="1086.44" y1="624.31" x2="1075.09" y2="618.75"/><line class="cls-2" x1="1172.59" y1="640.05" x2="1161.24" y2="634.5"/><line class="cls-2" x1="1258.74" y1="656.03" x2="1247.39" y2="650.24"/><line class="cls-2" x1="1344.89" y1="671.78" x2="1333.31" y2="665.99"/><line class="cls-2" x1="1075.09" y1="618.75" x2="1070.92" y2="605.08"/><line class="cls-2" x1="1161.24" y1="634.5" x2="1154.99" y2="614.58"/><line class="cls-2" x1="1247.39" y1="650.24" x2="1241.14" y2="630.56"/><line class="cls-2" x1="1333.31" y1="665.99" x2="1327.29" y2="646.31"/><line class="cls-2" x1="1419.23" y1="680.81" x2="1413.44" y2="662.05"/><line class="cls-2" x1="710.33" y1="616.43" x2="713.34" y2="605.08"/><line class="cls-2" x1="799.73" y1="619.21" x2="800.42" y2="616.43"/><line class="cls-2" x1="1056.33" y1="673.17" x2="1058.88" y2="663.91"/><line class="cls-2" x1="1154.99" y1="614.58" x2="1157.53" y2="605.08"/><line class="cls-2" x1="1241.14" y1="630.56" x2="1246.93" y2="609.25"/><line class="cls-2" x1="1327.29" y1="646.31" x2="1332.85" y2="625"/><line class="cls-2" x1="1413.44" y1="662.05" x2="1419" y2="640.75"/><polyline class="cls-2" points="290.23 81.46 287.91 78.68 289.53 63.39 290.23 62.93"/><line class="cls-2" x1="281.66" y1="125.46" x2="286.75" y2="122.45"/><line class="cls-2" x1="266.14" y1="99.98" x2="252.71" y2="96.74"/><line class="cls-2" x1="277.95" y1="35.37" x2="264.52" y2="32.13"/><line class="cls-2" x1="252.71" y1="96.74" x2="244.14" y2="98.59"/><polyline class="cls-2" points="264.52 32.13 251.32 35.14 248.08 48.57 256.42 64.78 271.7 72.89 284.67 68.03 288.84 52.74"/><polyline class="cls-2" points="274.71 125.46 276.8 117.35 266.14 99.98"/><line class="cls-2" x1="288.84" y1="52.74" x2="277.95" y2="35.37"/><line class="cls-2" x1="277.49" y1="34.68" x2="282.82" y2="30.28"/><line class="cls-2" x1="265.45" y1="99.29" x2="271.01" y2="94.89"/><line class="cls-2" x1="282.82" y1="30.28" x2="287.22" y2="17.77"/><polyline class="cls-2" points="271 94.89 275.4 82.38 270.08 74.74"/><line class="cls-2" x1="287.22" y1="17.77" x2="281.89" y2="10.13"/><polyline class="cls-2" points="283.97 79.14 282.82 74.28 275.87 75.67"/><polyline class="cls-2" points="290.23 10.59 287.68 11.05 290.23 17.77"/><polyline class="cls-2" points="275.87 75.67 279.81 86.55 283.97 79.14"/><line class="cls-2" x1="289.76" y1="36.76" x2="290.23" y2="42.09"/><polyline class="cls-2" points="277.72 101.37 279.11 112.95 287.45 117.82"/><polyline class="cls-2" points="290.23 89.33 283.05 90.95 277.72 101.37"/><line class="cls-2" x1="290.23" y1="35.83" x2="289.76" y2="36.76"/><line class="cls-2" x1="249.7" y1="29.58" x2="244.14" y2="38.84"/><line class="cls-2" x1="290.23" y1="117.12" x2="287.45" y2="117.82"/><polyline class="cls-2" points="244.14 15.69 248.31 18.46 249.7 29.58"/><line class="cls-2" x1="286.75" y1="122.45" x2="290.23" y2="124.53"/><line class="cls-2" x1="270.08" y1="74.74" x2="261.28" y2="78.45"/><line class="cls-2" x1="281.66" y1="10.13" x2="273.09" y2="13.83"/><line class="cls-2" x1="261.28" y1="78.45" x2="256.42" y2="94.19"/><polyline class="cls-2" points="273.09 13.83 268.23 29.58 273.55 33.98"/><line class="cls-2" x1="256.41" y1="94.19" x2="261.74" y2="98.36"/><line class="cls-2" x1="273.55" y1="33.98" x2="277.49" y2="34.68"/><line class="cls-2" x1="261.74" y1="98.36" x2="265.45" y2="99.29"/><polyline class="cls-2" points="244.14 58.99 248.54 57.37 259.19 71.27"/><line class="cls-2" x1="270.54" y1="10.13" x2="267.99" y2="23.56"/><polyline class="cls-2" points="259.19 71.27 256.18 88.17 248.77 95.35"/><line class="cls-2" x1="267.99" y1="23.56" x2="260.82" y2="30.97"/><line class="cls-2" x1="248.77" y1="95.35" x2="244.14" y2="93.04"/><polyline class="cls-2" points="260.81 30.97 252.25 26.57 247.62 11.75 247.85 10.13"/><line class="cls-2" x1="1174.21" y1="506.66" x2="1174.21" y2="588.64"/><line class="cls-2" x1="1177.45" y1="506.66" x2="1177.45" y2="588.64"/><line class="cls-2" x1="1198.99" y1="506.66" x2="1198.99" y2="588.64"/><line class="cls-2" x1="1202.23" y1="506.66" x2="1202.23" y2="588.64"/><line class="cls-2" x1="1227.01" y1="506.66" x2="1227.01" y2="588.64"/><line class="cls-2" x1="1230.25" y1="506.66" x2="1230.25" y2="588.64"/><line class="cls-2" x1="1254.8" y1="506.66" x2="1254.8" y2="588.64"/><line class="cls-2" x1="1258.28" y1="506.66" x2="1258.28" y2="588.64"/><line class="cls-2" x1="1282.82" y1="506.66" x2="1282.82" y2="588.64"/><line class="cls-2" x1="1286.07" y1="506.66" x2="1286.07" y2="588.64"/><line class="cls-2" x1="1310.85" y1="506.66" x2="1310.85" y2="588.64"/><line class="cls-2" x1="1314.09" y1="506.66" x2="1314.09" y2="588.64"/><line class="cls-2" x1="1338.87" y1="506.66" x2="1338.87" y2="588.64"/><line class="cls-2" x1="1342.11" y1="506.66" x2="1342.11" y2="588.64"/><line class="cls-2" x1="1366.89" y1="506.66" x2="1366.89" y2="588.64"/><line class="cls-2" x1="1370.13" y1="506.66" x2="1370.13" y2="588.64"/><line class="cls-2" x1="1394.91" y1="506.66" x2="1394.91" y2="588.64"/><line class="cls-2" x1="1398.16" y1="506.66" x2="1398.16" y2="588.64"/><line class="cls-2" x1="1093.61" y1="506.66" x2="1093.61" y2="588.64"/><line class="cls-2" x1="1096.86" y1="506.66" x2="1096.86" y2="588.64"/><line class="cls-2" x1="1118.39" y1="506.66" x2="1118.39" y2="588.64"/><line class="cls-2" x1="1121.64" y1="506.66" x2="1121.64" y2="588.64"/><line class="cls-2" x1="1146.19" y1="506.66" x2="1146.19" y2="588.64"/><line class="cls-2" x1="1149.66" y1="506.66" x2="1149.66" y2="588.64"/><line class="cls-2" x1="1037.57" y1="506.66" x2="1037.57" y2="588.64"/><line class="cls-2" x1="1041.04" y1="506.66" x2="1041.04" y2="588.64"/><line class="cls-2" x1="1065.59" y1="506.66" x2="1065.59" y2="588.64"/><line class="cls-2" x1="1068.83" y1="506.66" x2="1068.83" y2="588.64"/><line class="cls-2" x1="528.3" y1="506.66" x2="528.3" y2="588.64"/><line class="cls-2" x1="525.06" y1="506.66" x2="525.06" y2="588.64"/><line class="cls-2" x1="503.75" y1="506.66" x2="503.75" y2="588.64"/><line class="cls-2" x1="500.51" y1="506.66" x2="500.51" y2="588.64"/><line class="cls-2" x1="475.73" y1="506.66" x2="475.73" y2="588.64"/><line class="cls-2" x1="472.49" y1="506.66" x2="472.49" y2="588.64"/><line class="cls-2" x1="447.71" y1="506.66" x2="447.71" y2="588.64"/><line class="cls-2" x1="444.47" y1="506.66" x2="444.47" y2="588.64"/><line class="cls-2" x1="419.69" y1="506.66" x2="419.69" y2="588.64"/><line class="cls-2" x1="416.44" y1="506.66" x2="416.44" y2="588.64"/><line class="cls-2" x1="391.66" y1="506.66" x2="391.66" y2="588.64"/><line class="cls-2" x1="388.42" y1="506.66" x2="388.42" y2="588.64"/><line class="cls-2" x1="609.13" y1="506.66" x2="609.13" y2="588.64"/><line class="cls-2" x1="605.65" y1="506.66" x2="605.65" y2="588.64"/><line class="cls-2" x1="584.35" y1="506.66" x2="584.35" y2="588.64"/><line class="cls-2" x1="581.1" y1="506.66" x2="581.1" y2="588.64"/><line class="cls-2" x1="556.32" y1="506.66" x2="556.32" y2="588.64"/><line class="cls-2" x1="553.08" y1="506.66" x2="553.08" y2="588.64"/><line class="cls-2" x1="664.94" y1="506.66" x2="664.94" y2="588.64"/><line class="cls-2" x1="661.7" y1="506.66" x2="661.7" y2="588.64"/><line class="cls-2" x1="636.92" y1="506.66" x2="636.92" y2="588.64"/><line class="cls-2" x1="633.68" y1="506.66" x2="633.68" y2="588.64"/><rect class="cls-2" x="1110.75" y="397.12" width="137.8" height="93.1"/><line class="cls-2" x1="1156.61" y1="397.12" x2="1156.61" y2="490.22"/><line class="cls-2" x1="1151.05" y1="397.12" x2="1151.05" y2="490.22"/><line class="cls-2" x1="1162.17" y1="397.12" x2="1162.17" y2="490.22"/><line class="cls-2" x1="1202.46" y1="397.12" x2="1202.46" y2="490.22"/><line class="cls-2" x1="1197.14" y1="397.12" x2="1197.14" y2="490.22"/><line class="cls-2" x1="1208.02" y1="397.12" x2="1208.02" y2="490.22"/><rect class="cls-2" x="454.19" y="397.12" width="137.8" height="93.1"/><line class="cls-2" x1="546.13" y1="397.12" x2="546.13" y2="490.22"/><line class="cls-2" x1="551.46" y1="397.12" x2="551.46" y2="490.22"/><line class="cls-2" x1="540.58" y1="397.12" x2="540.58" y2="490.22"/><line class="cls-2" x1="500.05" y1="397.12" x2="500.05" y2="490.22"/><line class="cls-2" x1="505.61" y1="397.12" x2="505.61" y2="490.22"/><line class="cls-2" x1="494.72" y1="397.12" x2="494.72" y2="490.22"/><line class="cls-2" x1="412.27" y1="375.11" x2="412.27" y2="501.1"/><line class="cls-2" x1="406.72" y1="375.11" x2="406.72" y2="501.1"/><line class="cls-2" x1="417.6" y1="375.11" x2="417.6" y2="501.1"/><line class="cls-2" x1="254.33" y1="282.25" x2="254.33" y2="125.46"/><line class="cls-2" x1="274.94" y1="282.25" x2="274.94" y2="125.46"/><line class="cls-2" x1="295.32" y1="282.25" x2="295.32" y2="63.39"/><line class="cls-2" x1="315.93" y1="282.25" x2="315.93" y2="63.39"/><line class="cls-2" x1="336.54" y1="282.25" x2="336.54" y2="63.39"/><line class="cls-2" x1="356.92" y1="282.25" x2="356.92" y2="63.39"/><line class="cls-2" x1="377.54" y1="282.25" x2="377.54" y2="63.39"/><line class="cls-2" x1="397.92" y1="282.25" x2="397.92" y2="63.39"/><line class="cls-2" x1="418.53" y1="282.25" x2="418.53" y2="63.39"/><line class="cls-2" x1="439.14" y1="282.25" x2="439.14" y2="63.39"/><line class="cls-2" x1="459.52" y1="282.25" x2="459.52" y2="63.39"/><line class="cls-2" x1="480.13" y1="282.25" x2="480.13" y2="63.39"/><line class="cls-2" x1="500.51" y1="282.25" x2="500.51" y2="63.39"/><line class="cls-2" x1="521.12" y1="282.25" x2="521.12" y2="63.39"/><line class="cls-2" x1="541.5" y1="282.25" x2="541.5" y2="63.39"/><line class="cls-2" x1="562.11" y1="282.25" x2="562.11" y2="63.39"/><line class="cls-2" x1="582.73" y1="282.25" x2="582.73" y2="63.39"/><line class="cls-2" x1="603.11" y1="282.25" x2="603.11" y2="63.39"/><line class="cls-2" x1="623.72" y1="282.25" x2="623.72" y2="63.39"/><line class="cls-2" x1="644.1" y1="282.25" x2="644.1" y2="63.39"/><line class="cls-2" x1="664.71" y1="282.25" x2="664.71" y2="63.39"/><line class="cls-2" x1="685.32" y1="282.25" x2="685.32" y2="63.39"/><line class="cls-2" x1="705.7" y1="282.25" x2="705.7" y2="63.39"/><line class="cls-2" x1="726.31" y1="282.25" x2="726.31" y2="63.39"/><line class="cls-2" x1="746.69" y1="282.25" x2="746.69" y2="63.39"/><line class="cls-2" x1="767.3" y1="282.25" x2="767.3" y2="63.39"/><line class="cls-2" x1="787.91" y1="282.25" x2="787.91" y2="63.39"/><line class="cls-2" x1="808.29" y1="282.25" x2="808.29" y2="63.39"/><line class="cls-2" x1="828.91" y1="282.25" x2="828.91" y2="63.39"/><line class="cls-2" x1="849.29" y1="282.25" x2="849.29" y2="63.39"/><line class="cls-2" x1="869.9" y1="282.25" x2="869.9" y2="63.39"/><line class="cls-2" x1="890.28" y1="282.25" x2="890.28" y2="63.39"/><line class="cls-2" x1="910.89" y1="282.25" x2="910.89" y2="63.39"/><line class="cls-2" x1="931.5" y1="282.25" x2="931.5" y2="63.39"/><line class="cls-2" x1="951.88" y1="282.25" x2="951.88" y2="63.39"/><line class="cls-2" x1="972.49" y1="282.25" x2="972.49" y2="63.39"/><line class="cls-2" x1="992.87" y1="282.25" x2="992.87" y2="63.39"/><line class="cls-2" x1="1013.48" y1="282.25" x2="1013.48" y2="63.39"/><line class="cls-2" x1="1034.1" y1="282.25" x2="1034.1" y2="63.39"/><line class="cls-2" x1="1054.48" y1="282.25" x2="1054.48" y2="63.39"/><line class="cls-2" x1="1075.09" y1="282.25" x2="1075.09" y2="63.39"/><line class="cls-2" x1="1095.47" y1="282.25" x2="1095.47" y2="63.39"/><line class="cls-2" x1="1116.08" y1="282.25" x2="1116.08" y2="63.39"/><line class="cls-2" x1="1136.46" y1="282.25" x2="1136.46" y2="63.39"/><line class="cls-2" x1="1157.07" y1="282.25" x2="1157.07" y2="63.39"/><line class="cls-2" x1="1177.68" y1="282.25" x2="1177.68" y2="63.39"/><line class="cls-2" x1="1198.06" y1="282.25" x2="1198.06" y2="63.39"/><line class="cls-2" x1="1218.67" y1="282.25" x2="1218.67" y2="63.39"/><line class="cls-2" x1="1239.05" y1="282.25" x2="1239.05" y2="63.39"/><line class="cls-2" x1="1259.66" y1="282.25" x2="1259.66" y2="63.39"/><line class="cls-2" x1="1280.28" y1="282.25" x2="1280.28" y2="63.39"/><line class="cls-2" x1="1300.66" y1="282.25" x2="1300.66" y2="63.39"/><line class="cls-2" x1="1321.27" y1="282.25" x2="1321.27" y2="63.39"/><line class="cls-2" x1="1341.65" y1="282.25" x2="1341.65" y2="63.39"/><line class="cls-2" x1="1362.26" y1="282.25" x2="1362.26" y2="63.39"/><line class="cls-2" x1="1382.87" y1="282.25" x2="1382.87" y2="63.39"/><line class="cls-2" x1="1403.25" y1="282.25" x2="1403.25" y2="63.39"/><line class="cls-2" x1="1423.86" y1="282.25" x2="1423.86" y2="63.39"/><line class="cls-2" x1="1444.24" y1="282.25" x2="1444.24" y2="63.39"/><polyline class="cls-2" points="135.04 658.1 143.73 653.81 162.9 660.12 165.76 671.43"/></g><g id="Layer_2" data-name="Layer 2"><line class="cls-3" x1="1414.83" y1="501.1" x2="1020.9" y2="501.1"/><line class="cls-3" x1="681.61" y1="501.1" x2="375.45" y2="501.1"/><line class="cls-3" x1="1414.83" y1="506.66" x2="1020.9" y2="506.66"/><line class="cls-3" x1="681.61" y1="506.66" x2="375.45" y2="506.66"/><line class="cls-3" x1="1414.83" y1="593.97" x2="1020.89" y2="593.97"/><line class="cls-3" x1="681.61" y1="593.97" x2="375.45" y2="593.97"/><line class="cls-3" x1="1414.83" y1="588.64" x2="1020.9" y2="588.64"/><line class="cls-3" x1="681.61" y1="588.64" x2="375.45" y2="588.64"/><line class="cls-3" x1="1414.83" y1="331.34" x2="1020.9" y2="331.34"/><line class="cls-3" x1="977.12" y1="331.34" x2="725.39" y2="331.34"/><line class="cls-3" x1="681.61" y1="331.34" x2="375.45" y2="331.34"/><polyline class="cls-3" points="802.04 605.08 802.04 380.67 900.47 380.67 900.47 605.08"/><polyline class="cls-3" points="1097.55 501.1 1097.55 380.67 1261.75 380.67 1261.75 501.1"/><rect class="cls-3" x="1105.19" y="388.32" width="148.68" height="110.7"/><polyline class="cls-3" points="1020.89 375.12 1091.99 375.12 1091.99 501.1"/><polyline class="cls-3" points="1354.62 501.1 1354.62 375.12 1267.08 375.12 1267.08 501.1"/><polyline class="cls-3" points="605.19 501.1 605.19 380.67 440.99 380.67 440.99 501.1"/><rect class="cls-3" x="448.63" y="388.32" width="148.91" height="110.7"/><polyline class="cls-3" points="681.62 375.12 610.52 375.12 610.52 501.1"/><polyline class="cls-3" points="388.88 501.1 388.88 375.12 435.43 375.12 435.43 501.1"/></g><g id="Layer_3" data-name="Layer 3"><polyline class="cls-4" points="710.33 633.34 710.33 619.21 992.41 619.21 992.41 633.34"/><polyline class="cls-4" points="710.33 647.7 710.33 633.34 992.41 633.34 992.41 647.7"/><polyline class="cls-4" points="710.33 666.22 710.33 647.7 992.41 647.7 992.41 666.22"/><polyline class="cls-4" points="710.33 671.78 710.33 666.22 992.41 666.22 992.41 671.78"/><line class="cls-4" x1="710.33" y1="619.21" x2="710.33" y2="605.08"/><line class="cls-4" x1="681.61" y1="605.08" x2="681.61" y2="309.57"/><line class="cls-4" x1="725.39" y1="309.57" x2="725.39" y2="605.08"/><line class="cls-4" x1="977.12" y1="605.08" x2="977.12" y2="309.57"/><line class="cls-4" x1="1020.89" y1="309.57" x2="1020.89" y2="605.08"/><line class="cls-4" x1="1414.83" y1="605.08" x2="1414.83" y2="309.57"/><line class="cls-4" x1="1458.6" y1="309.57" x2="1458.6" y2="605.08"/><line class="cls-4" x1="375.45" y1="309.57" x2="375.45" y2="605.08"/><rect class="cls-4" x="244.14" y="282.25" width="1214.46" height="27.33"/><line class="cls-4" x1="1458.6" y1="605.08" x2="244.14" y2="605.08"/><line class="cls-4" x1="244.14" y1="605.08" x2="244.14" y2="309.57"/><polyline class="cls-4" points="290.23 63.39 1458.6 63.39 1458.6 282.25"/><line class="cls-4" x1="1458.6" y1="605.08" x2="1458.6" y2="681.51"/><polyline class="cls-4" points="244.14 282.25 244.14 125.46 290.23 125.46 290.23 10.13 244.14 10.13 244.14 125.46"/><polyline class="cls-4" points="244.14 605.08 134.6 605.08 134.6 643.3"/></g></svg>