<svg xmlns="http://www.w3.org/2000/svg" viewBox="0 0 4007.92 780.06"><defs><style>.cls-1{fill:#064a00;}.cls-2,.cls-3,.cls-4{fill:none;stroke-linecap:round;stroke-linejoin:round;}.cls-2,.cls-3{stroke:#064a00;}.cls-2{stroke-width:0.5px;}.cls-4{stroke:#214a23;stroke-width:1.5px;}</style></defs><title>alzado</title><g id="Layer_0" data-name="Layer 0"><polyline class="cls-1" points="1130.52 673.3 1596.71 683.02 1639.27 680.5 4316.41 680.7 4314.01 836.95 -229.95 823.16 -227.65 402.71 -215.61 391.44 -8.1 544.53 120.66 570 267.49 642.49 272.9 645.04 272.71 673.3 295.1 673.3 305.6 673.3 1130.52 673.3"/></g><g id="Layer_1" data-name="Layer 1"><line class="cls-2" x1="324.9" y1="668.68" x2="319.35" y2="661.5"/><line class="cls-2" x1="383.96" y1="673.55" x2="383.96" y2="673.31"/><line class="cls-2" x1="401.1" y1="615.88" x2="395.77" y2="608.93"/><line class="cls-2" x1="465.71" y1="627.69" x2="460.38" y2="620.74"/><line class="cls-2" x1="530.32" y1="639.5" x2="525" y2="632.55"/><line class="cls-2" x1="594.94" y1="651.31" x2="589.61" y2="644.37"/><line class="cls-2" x1="659.55" y1="663.12" x2="654.23" y2="656.18"/><line class="cls-2" x1="722.78" y1="673.55" x2="718.61" y2="667.99"/><line class="cls-2" x1="735.98" y1="610.55" x2="732.97" y2="606.85"/><line class="cls-2" x1="800.59" y1="622.36" x2="795.03" y2="615.42"/><line class="cls-2" x1="319.35" y1="661.5" x2="320.74" y2="646.45"/><line class="cls-2" x1="383.96" y1="673.55" x2="385.35" y2="658.26"/><line class="cls-2" x1="395.77" y1="608.93" x2="396" y2="606.85"/><line class="cls-2" x1="449.73" y1="673.55" x2="449.96" y2="670.3"/><line class="cls-2" x1="460.38" y1="620.74" x2="461.77" y2="606.85"/><line class="cls-2" x1="525" y1="632.55" x2="526.39" y2="617.5"/><line class="cls-2" x1="589.61" y1="644.37" x2="591" y2="629.31"/><line class="cls-2" x1="654.23" y1="656.18" x2="655.62" y2="641.12"/><line class="cls-2" x1="718.61" y1="667.99" x2="720.23" y2="652.93"/><line class="cls-2" x1="783.92" y1="673.55" x2="784.61" y2="664.75"/><line class="cls-2" x1="795.03" y1="615.42" x2="795.96" y2="606.85"/><line class="cls-2" x1="320.74" y1="646.45" x2="330" y2="640.89"/><line class="cls-2" x1="385.35" y1="658.26" x2="394.38" y2="652.7"/><line class="cls-2" x1="526.39" y1="617.5" x2="535.42" y2="611.71"/><line class="cls-2" x1="449.96" y1="670.3" x2="458.99" y2="664.51"/><line class="cls-2" x1="591" y1="629.31" x2="600.03" y2="623.52"/><line class="cls-2" x1="655.62" y1="641.12" x2="664.65" y2="635.56"/><line class="cls-2" x1="720.23" y1="652.93" x2="729.26" y2="647.38"/><line class="cls-2" x1="784.61" y1="664.75" x2="793.64" y2="659.19"/><line class="cls-2" x1="309.39" y1="618.43" x2="295.95" y2="615.18"/><line class="cls-2" x1="374" y1="630.24" x2="360.34" y2="627"/><line class="cls-2" x1="438.38" y1="642.05" x2="424.95" y2="638.81"/><line class="cls-2" x1="503" y1="653.86" x2="489.56" y2="650.85"/><line class="cls-2" x1="567.61" y1="665.67" x2="554.18" y2="662.66"/><line class="cls-2" x1="644.04" y1="613.1" x2="630.6" y2="609.86"/><line class="cls-2" x1="708.65" y1="624.91" x2="695.22" y2="621.67"/><line class="cls-2" x1="773.26" y1="636.72" x2="759.83" y2="633.48"/><polyline class="cls-2" points="837.64 648.53 824.21 645.29 811.01 648.3"/><line class="cls-2" x1="759.83" y1="633.48" x2="746.4" y2="636.49"/><line class="cls-2" x1="554.18" y1="662.66" x2="540.98" y2="665.44"/><line class="cls-2" x1="695.22" y1="621.67" x2="682.02" y2="624.68"/><line class="cls-2" x1="489.56" y1="650.85" x2="476.36" y2="653.63"/><line class="cls-2" x1="630.6" y1="609.86" x2="617.4" y2="612.87"/><line class="cls-2" x1="424.95" y1="638.81" x2="411.75" y2="641.82"/><line class="cls-2" x1="360.34" y1="627" x2="347.14" y2="630.01"/><path class="cls-2" d="M296,615.18l-11.11,2.55s-5.88,18.44-6.6,18.08,7.62,15,7.62,15L305.45,655l10.65-3.94"/><line class="cls-2" x1="811.01" y1="648.3" x2="808" y2="661.73"/><line class="cls-2" x1="746.4" y1="636.49" x2="743.39" y2="649.92"/><line class="cls-2" x1="682.02" y1="624.68" x2="678.77" y2="638.11"/><line class="cls-2" x1="617.4" y1="612.87" x2="614.16" y2="626.3"/><line class="cls-2" x1="540.98" y1="665.44" x2="539.13" y2="673.55"/><line class="cls-2" x1="551.4" y1="606.85" x2="549.55" y2="614.49"/><line class="cls-2" x1="476.36" y1="653.63" x2="473.35" y2="667.06"/><line class="cls-2" x1="411.75" y1="641.82" x2="408.74" y2="655.25"/><line class="cls-2" x1="347.14" y1="630.01" x2="344.13" y2="643.44"/><line class="cls-2" x1="824.68" y1="606.85" x2="828.15" y2="613.33"/><line class="cls-2" x1="808" y1="661.73" x2="814.02" y2="673.55"/><line class="cls-2" x1="743.39" y1="649.92" x2="751.73" y2="666.13"/><line class="cls-2" x1="678.77" y1="638.11" x2="687.11" y2="654.32"/><line class="cls-2" x1="614.16" y1="626.3" x2="622.5" y2="642.51"/><line class="cls-2" x1="549.55" y1="614.49" x2="558.12" y2="630.7"/><line class="cls-2" x1="487.25" y1="606.85" x2="493.5" y2="618.66"/><line class="cls-2" x1="473.35" y1="667.06" x2="476.6" y2="673.55"/><line class="cls-2" x1="428.89" y1="606.85" x2="428.89" y2="606.62"/><line class="cls-2" x1="408.74" y1="655.25" x2="417.08" y2="671.46"/><line class="cls-2" x1="344.13" y1="643.44" x2="352.46" y2="659.65"/><line class="cls-2" x1="828.15" y1="613.33" x2="843.44" y2="621.44"/><line class="cls-2" x1="773.26" y1="606.85" x2="778.82" y2="609.63"/><line class="cls-2" x1="751.73" y1="666.13" x2="765.62" y2="673.55"/><line class="cls-2" x1="687.11" y1="654.32" x2="702.4" y2="662.43"/><line class="cls-2" x1="622.5" y1="642.51" x2="637.78" y2="650.62"/><line class="cls-2" x1="558.12" y1="630.7" x2="573.17" y2="638.81"/><line class="cls-2" x1="493.5" y1="618.66" x2="508.56" y2="627"/><line class="cls-2" x1="428.89" y1="606.85" x2="444.17" y2="614.95"/><line class="cls-2" x1="417.08" y1="671.46" x2="420.78" y2="673.55"/><line class="cls-2" x1="352.46" y1="659.65" x2="367.75" y2="667.76"/><line class="cls-2" x1="444.17" y1="614.95" x2="456.91" y2="610.09"/><line class="cls-2" x1="367.75" y1="667.76" x2="380.49" y2="662.89"/><line class="cls-2" x1="508.56" y1="627" x2="521.52" y2="621.9"/><line class="cls-2" x1="573.17" y1="638.81" x2="586.14" y2="633.71"/><line class="cls-2" x1="637.78" y1="650.62" x2="650.75" y2="645.52"/><line class="cls-2" x1="778.82" y1="609.63" x2="786.46" y2="606.85"/><line class="cls-2" x1="702.4" y1="662.43" x2="715.37" y2="657.33"/><line class="cls-2" x1="843.44" y1="621.44" x2="848.3" y2="619.59"/><line class="cls-2" x1="768.86" y1="673.55" x2="779.98" y2="669.38"/><line class="cls-2" x1="316.1" y1="651.08" x2="320.04" y2="635.8"/><line class="cls-2" x1="380.49" y1="662.89" x2="384.65" y2="647.61"/><line class="cls-2" x1="456.91" y1="610.09" x2="457.84" y2="606.85"/><line class="cls-2" x1="445.56" y1="673.55" x2="449.27" y2="659.42"/><line class="cls-2" x1="521.52" y1="621.9" x2="525.69" y2="606.85"/><line class="cls-2" x1="513.19" y1="673.55" x2="513.88" y2="671.23"/><line class="cls-2" x1="586.14" y1="633.71" x2="590.31" y2="618.43"/><line class="cls-2" x1="650.75" y1="645.52" x2="654.92" y2="630.24"/><line class="cls-2" x1="715.37" y1="657.33" x2="719.53" y2="642.28"/><line class="cls-2" x1="779.98" y1="669.38" x2="783.92" y2="654.09"/><line class="cls-2" x1="320.04" y1="635.8" x2="309.39" y2="618.43"/><line class="cls-2" x1="384.65" y1="647.61" x2="374" y2="630.24"/><line class="cls-2" x1="449.27" y1="659.42" x2="438.38" y2="642.05"/><line class="cls-2" x1="513.88" y1="671.23" x2="503" y2="653.86"/><line class="cls-2" x1="572.47" y1="673.55" x2="567.61" y2="665.67"/><line class="cls-2" x1="590.31" y1="618.43" x2="582.9" y2="606.85"/><line class="cls-2" x1="654.92" y1="630.24" x2="644.04" y2="613.1"/><line class="cls-2" x1="719.53" y1="642.28" x2="708.65" y2="624.91"/><line class="cls-2" x1="783.92" y1="654.09" x2="773.26" y2="636.72"/><line class="cls-2" x1="848.3" y1="665.21" x2="837.65" y2="648.53"/><line class="cls-2" x1="308.69" y1="617.5" x2="314.25" y2="613.33"/><line class="cls-2" x1="373.31" y1="629.54" x2="378.86" y2="625.14"/><line class="cls-2" x1="437.92" y1="641.35" x2="443.48" y2="636.95"/><line class="cls-2" x1="502.53" y1="653.17" x2="507.86" y2="648.77"/><line class="cls-2" x1="567.15" y1="664.98" x2="572.47" y2="660.58"/><line class="cls-2" x1="643.57" y1="612.17" x2="648.9" y2="608.01"/><line class="cls-2" x1="635.93" y1="673.55" x2="637.09" y2="672.39"/><line class="cls-2" x1="707.95" y1="623.99" x2="713.51" y2="619.82"/><line class="cls-2" x1="772.57" y1="636.03" x2="778.13" y2="631.63"/><line class="cls-2" x1="837.18" y1="647.84" x2="842.74" y2="643.44"/><line class="cls-2" x1="314.25" y1="613.33" x2="316.57" y2="606.85"/><line class="cls-2" x1="378.86" y1="625.14" x2="383.03" y2="612.64"/><line class="cls-2" x1="443.48" y1="636.95" x2="447.65" y2="624.45"/><line class="cls-2" x1="507.86" y1="648.77" x2="512.26" y2="636.26"/><line class="cls-2" x1="572.47" y1="660.58" x2="576.87" y2="648.07"/><line class="cls-2" x1="648.9" y1="608.01" x2="649.36" y2="606.85"/><line class="cls-2" x1="637.09" y1="672.39" x2="641.49" y2="659.88"/><line class="cls-2" x1="713.51" y1="619.82" x2="717.91" y2="607.08"/><line class="cls-2" x1="705.41" y1="673.55" x2="706.1" y2="671.69"/><line class="cls-2" x1="778.13" y1="631.63" x2="782.53" y2="619.12"/><line class="cls-2" x1="842.74" y1="643.44" x2="846.91" y2="630.93"/><line class="cls-2" x1="368.67" y1="673.55" x2="366.13" y2="669.38"/><line class="cls-2" x1="383.03" y1="612.64" x2="379.1" y2="606.85"/><line class="cls-2" x1="447.65" y1="624.45" x2="442.32" y2="616.81"/><line class="cls-2" x1="512.26" y1="636.26" x2="506.93" y2="628.62"/><line class="cls-2" x1="576.87" y1="648.07" x2="571.55" y2="640.43"/><line class="cls-2" x1="641.49" y1="659.88" x2="636.16" y2="652.24"/><line class="cls-2" x1="706.1" y1="671.69" x2="700.77" y2="664.05"/><line class="cls-2" x1="717.91" y1="607.08" x2="717.45" y2="606.85"/><line class="cls-2" x1="782.53" y1="619.12" x2="777.2" y2="611.48"/><line class="cls-2" x1="846.91" y1="630.93" x2="841.81" y2="623.29"/><line class="cls-2" x1="315.41" y1="662.2" x2="314.25" y2="657.33"/><line class="cls-2" x1="379.79" y1="673.55" x2="378.86" y2="669.15"/><line class="cls-2" x1="391.6" y1="609.39" x2="391.14" y2="606.85"/><line class="cls-2" x1="456.21" y1="621.21" x2="455.29" y2="616.34"/><line class="cls-2" x1="520.83" y1="633.02" x2="519.67" y2="628.15"/><line class="cls-2" x1="585.44" y1="645.06" x2="584.28" y2="640.2"/><line class="cls-2" x1="650.06" y1="656.87" x2="648.9" y2="652.01"/><line class="cls-2" x1="714.67" y1="668.68" x2="713.51" y2="663.82"/><line class="cls-2" x1="791.09" y1="615.88" x2="789.94" y2="611.02"/><line class="cls-2" x1="713.51" y1="663.82" x2="706.56" y2="665.21"/><line class="cls-2" x1="848.3" y1="624.22" x2="847.6" y2="624.22"/><line class="cls-2" x1="648.9" y1="652.01" x2="641.95" y2="653.4"/><line class="cls-2" x1="789.94" y1="611.02" x2="782.99" y2="612.41"/><line class="cls-2" x1="584.28" y1="640.2" x2="577.34" y2="641.59"/><line class="cls-2" x1="378.86" y1="669.15" x2="371.92" y2="670.53"/><line class="cls-2" x1="519.67" y1="628.15" x2="512.72" y2="629.54"/><line class="cls-2" x1="314.25" y1="657.33" x2="307.3" y2="658.72"/><line class="cls-2" x1="455.29" y1="616.34" x2="448.34" y2="617.73"/><line class="cls-2" x1="847.6" y1="624.22" x2="848.3" y2="626.07"/><line class="cls-2" x1="782.99" y1="612.41" x2="786.93" y2="623.29"/><line class="cls-2" x1="720.69" y1="606.85" x2="722.31" y2="611.25"/><line class="cls-2" x1="706.56" y1="665.21" x2="709.57" y2="673.55"/><line class="cls-2" x1="641.95" y1="653.4" x2="645.89" y2="664.05"/><line class="cls-2" x1="577.34" y1="641.59" x2="581.51" y2="652.24"/><line class="cls-2" x1="512.72" y1="629.54" x2="516.89" y2="640.43"/><line class="cls-2" x1="448.34" y1="617.73" x2="452.28" y2="628.62"/><line class="cls-2" x1="383.96" y1="606.85" x2="387.66" y2="616.81"/><line class="cls-2" x1="371.92" y1="670.53" x2="372.84" y2="673.55"/><polyline class="cls-2" points="307.3 658.72 311.24 669.38 315.41 662.2"/><line class="cls-2" x1="387.66" y1="616.81" x2="391.6" y2="609.39"/><line class="cls-2" x1="452.28" y1="628.62" x2="456.21" y2="621.21"/><line class="cls-2" x1="516.89" y1="640.43" x2="520.83" y2="633.02"/><line class="cls-2" x1="581.51" y1="652.24" x2="585.44" y2="645.06"/><line class="cls-2" x1="645.89" y1="664.05" x2="650.06" y2="656.87"/><line class="cls-2" x1="722.31" y1="611.25" x2="724.86" y2="606.85"/><line class="cls-2" x1="711.89" y1="673.55" x2="714.67" y2="668.68"/><line class="cls-2" x1="786.93" y1="623.29" x2="791.09" y2="615.88"/><line class="cls-2" x1="784.84" y1="638.11" x2="786.23" y2="649.69"/><line class="cls-2" x1="720.23" y1="626.3" x2="721.62" y2="637.88"/><line class="cls-2" x1="655.85" y1="614.49" x2="657" y2="626.07"/><line class="cls-2" x1="591.7" y1="606.85" x2="592.39" y2="614.26"/><line class="cls-2" x1="579.42" y1="667.29" x2="580.12" y2="673.55"/><line class="cls-2" x1="514.81" y1="655.48" x2="515.97" y2="667.06"/><line class="cls-2" x1="450.19" y1="643.44" x2="451.35" y2="655.02"/><line class="cls-2" x1="385.58" y1="631.63" x2="386.74" y2="643.21"/><line class="cls-2" x1="320.97" y1="619.82" x2="322.36" y2="631.4"/><line class="cls-2" x1="786.23" y1="649.69" x2="794.57" y2="654.55"/><line class="cls-2" x1="721.62" y1="637.88" x2="729.96" y2="642.74"/><line class="cls-2" x1="657" y1="626.07" x2="665.34" y2="630.93"/><line class="cls-2" x1="592.39" y1="614.26" x2="600.96" y2="619.12"/><line class="cls-2" x1="535.42" y1="606.85" x2="536.35" y2="607.31"/><line class="cls-2" x1="515.97" y1="667.06" x2="524.53" y2="671.92"/><line class="cls-2" x1="451.35" y1="655.02" x2="459.92" y2="659.88"/><line class="cls-2" x1="386.74" y1="643.21" x2="395.31" y2="648.07"/><line class="cls-2" x1="322.36" y1="631.4" x2="330.69" y2="636.26"/><line class="cls-2" x1="658.86" y1="666.37" x2="649.13" y2="668.68"/><line class="cls-2" x1="799.9" y1="625.61" x2="790.17" y2="627.69"/><line class="cls-2" x1="594.24" y1="654.56" x2="584.52" y2="656.87"/><line class="cls-2" x1="735.28" y1="613.8" x2="725.55" y2="615.88"/><line class="cls-2" x1="529.86" y1="642.74" x2="519.9" y2="645.06"/><line class="cls-2" x1="465.25" y1="630.93" x2="455.52" y2="633.25"/><line class="cls-2" x1="400.63" y1="619.12" x2="390.91" y2="621.21"/><line class="cls-2" x1="336.02" y1="607.31" x2="326.29" y2="609.39"/><line class="cls-2" x1="790.17" y1="627.69" x2="784.84" y2="638.11"/><line class="cls-2" x1="725.56" y1="615.88" x2="720.23" y2="626.3"/><line class="cls-2" x1="649.13" y1="668.68" x2="646.81" y2="673.55"/><line class="cls-2" x1="659.78" y1="606.85" x2="655.85" y2="614.49"/><line class="cls-2" x1="584.52" y1="656.87" x2="579.42" y2="667.29"/><line class="cls-2" x1="519.9" y1="645.06" x2="514.81" y2="655.48"/><line class="cls-2" x1="455.52" y1="633.25" x2="450.19" y2="643.44"/><line class="cls-2" x1="390.91" y1="621.21" x2="385.58" y2="631.63"/><line class="cls-2" x1="326.29" y1="609.39" x2="320.97" y2="619.82"/><line class="cls-2" x1="809.39" y1="642.74" x2="803.6" y2="652.24"/><line class="cls-2" x1="744.78" y1="630.93" x2="739.22" y2="640.43"/><line class="cls-2" x1="680.4" y1="618.89" x2="674.61" y2="628.62"/><line class="cls-2" x1="603.97" y1="671.69" x2="602.81" y2="673.55"/><line class="cls-2" x1="615.78" y1="607.08" x2="609.99" y2="616.81"/><line class="cls-2" x1="539.36" y1="659.88" x2="533.57" y2="669.61"/><line class="cls-2" x1="474.74" y1="648.07" x2="468.95" y2="657.57"/><line class="cls-2" x1="410.13" y1="636.26" x2="404.34" y2="645.75"/><line class="cls-2" x1="345.52" y1="624.45" x2="339.73" y2="633.94"/><line class="cls-2" x1="281.13" y1="612.41" x2="272.53" y2="623.66"/><line class="cls-2" x1="803.6" y1="652.24" x2="794.57" y2="654.56"/><line class="cls-2" x1="739.22" y1="640.43" x2="729.96" y2="642.74"/><line class="cls-2" x1="533.57" y1="669.61" x2="524.53" y2="671.92"/><line class="cls-2" x1="674.61" y1="628.62" x2="665.34" y2="630.93"/><line class="cls-2" x1="468.95" y1="657.57" x2="459.92" y2="659.88"/><line class="cls-2" x1="609.99" y1="616.81" x2="600.96" y2="619.12"/><line class="cls-2" x1="404.34" y1="645.75" x2="395.31" y2="648.07"/><line class="cls-2" x1="538.2" y1="606.85" x2="536.35" y2="607.31"/><line class="cls-2" x1="339.73" y1="633.94" x2="330.69" y2="636.26"/><line class="cls-2" x1="799.9" y1="626.3" x2="808" y2="631.63"/><line class="cls-2" x1="735.28" y1="614.26" x2="743.62" y2="619.82"/><line class="cls-2" x1="676.92" y1="606.85" x2="679.01" y2="608.01"/><line class="cls-2" x1="658.86" y1="667.06" x2="667.19" y2="672.62"/><line class="cls-2" x1="594.24" y1="655.25" x2="602.58" y2="660.81"/><line class="cls-2" x1="529.63" y1="643.44" x2="537.97" y2="649"/><line class="cls-2" x1="465.02" y1="631.63" x2="473.35" y2="637.19"/><line class="cls-2" x1="400.4" y1="619.82" x2="408.74" y2="625.37"/><line class="cls-2" x1="336.02" y1="608.01" x2="344.36" y2="613.33"/><line class="cls-2" x1="808" y1="631.63" x2="809.39" y2="642.74"/><line class="cls-2" x1="743.62" y1="619.82" x2="744.78" y2="630.93"/><line class="cls-2" x1="679.01" y1="608.01" x2="680.4" y2="618.89"/><line class="cls-2" x1="667.2" y1="672.62" x2="667.2" y2="673.55"/><line class="cls-2" x1="615.78" y1="606.85" x2="615.78" y2="607.08"/><line class="cls-2" x1="602.58" y1="660.81" x2="603.97" y2="671.69"/><line class="cls-2" x1="537.97" y1="649" x2="539.36" y2="659.88"/><line class="cls-2" x1="473.35" y1="637.19" x2="474.74" y2="648.07"/><line class="cls-2" x1="408.74" y1="625.37" x2="410.13" y2="636.26"/><line class="cls-2" x1="344.36" y1="613.33" x2="345.52" y2="624.45"/><line class="cls-2" x1="280.21" y1="606.85" x2="281.13" y2="612.41"/><line class="cls-2" x1="793.64" y1="659.19" x2="798.51" y2="661.97"/><line class="cls-2" x1="729.26" y1="647.38" x2="733.89" y2="650.15"/><line class="cls-2" x1="664.65" y1="635.56" x2="669.51" y2="638.34"/><line class="cls-2" x1="600.03" y1="623.52" x2="604.9" y2="626.53"/><line class="cls-2" x1="535.42" y1="611.71" x2="540.28" y2="614.72"/><line class="cls-2" x1="459" y1="664.51" x2="463.86" y2="667.29"/><line class="cls-2" x1="394.38" y1="652.7" x2="399.24" y2="655.48"/><line class="cls-2" x1="330" y1="640.89" x2="334.63" y2="643.67"/><line class="cls-2" x1="401.1" y1="615.88" x2="404.57" y2="615.88"/><line class="cls-2" x1="735.98" y1="610.55" x2="739.22" y2="610.55"/><line class="cls-2" x1="465.71" y1="627.69" x2="469.19" y2="627.69"/><line class="cls-2" x1="800.59" y1="622.36" x2="803.83" y2="622.36"/><line class="cls-2" x1="530.33" y1="639.5" x2="533.8" y2="639.5"/><line class="cls-2" x1="594.94" y1="651.31" x2="598.18" y2="651.31"/><line class="cls-2" x1="324.9" y1="668.68" x2="328.15" y2="668.45"/><line class="cls-2" x1="659.55" y1="663.12" x2="662.8" y2="663.12"/><line class="cls-2" x1="328.15" y1="668.45" x2="333.71" y2="656.18"/><line class="cls-2" x1="404.57" y1="615.88" x2="408.74" y2="606.85"/><line class="cls-2" x1="395.77" y1="673.55" x2="398.32" y2="667.99"/><line class="cls-2" x1="469.19" y1="627.69" x2="474.74" y2="615.42"/><line class="cls-2" x1="533.8" y1="639.5" x2="539.36" y2="627.23"/><line class="cls-2" x1="598.18" y1="651.31" x2="603.97" y2="639.04"/><line class="cls-2" x1="662.8" y1="663.12" x2="668.35" y2="650.85"/><line class="cls-2" x1="739.22" y1="610.55" x2="740.84" y2="606.85"/><line class="cls-2" x1="728.1" y1="673.55" x2="732.97" y2="662.66"/><line class="cls-2" x1="803.83" y1="622.36" x2="809.39" y2="609.86"/><line class="cls-2" x1="333.7" y1="656.18" x2="334.63" y2="643.67"/><line class="cls-2" x1="398.32" y1="667.99" x2="399.25" y2="655.48"/><line class="cls-2" x1="463.4" y1="673.55" x2="463.86" y2="667.29"/><line class="cls-2" x1="474.74" y1="615.42" x2="475.44" y2="606.85"/><line class="cls-2" x1="539.36" y1="627.23" x2="540.28" y2="614.72"/><line class="cls-2" x1="603.97" y1="639.04" x2="604.9" y2="626.53"/><line class="cls-2" x1="668.35" y1="650.85" x2="669.51" y2="638.34"/><line class="cls-2" x1="732.97" y1="662.66" x2="733.89" y2="650.15"/><line class="cls-2" x1="797.58" y1="673.55" x2="798.51" y2="661.97"/><line class="cls-2" x1="809.39" y1="609.86" x2="809.62" y2="606.85"/><line class="cls-2" x1="841.81" y1="623.29" x2="833.01" y2="627"/><line class="cls-2" x1="700.78" y1="664.05" x2="691.98" y2="667.76"/><line class="cls-2" x1="777.2" y1="611.48" x2="768.4" y2="615.18"/><line class="cls-2" x1="636.16" y1="652.24" x2="627.36" y2="655.94"/><line class="cls-2" x1="571.55" y1="640.43" x2="562.98" y2="644.13"/><line class="cls-2" x1="506.93" y1="628.62" x2="498.37" y2="632.32"/><line class="cls-2" x1="366.13" y1="669.38" x2="357.33" y2="673.31"/><line class="cls-2" x1="442.32" y1="616.81" x2="433.75" y2="620.51"/><line class="cls-2" x1="373.54" y1="606.85" x2="369.14" y2="608.7"/><line class="cls-2" x1="833.01" y1="627" x2="828.15" y2="642.74"/><line class="cls-2" x1="768.4" y1="615.18" x2="763.54" y2="630.93"/><line class="cls-2" x1="691.98" y1="667.76" x2="690.35" y2="673.55"/><line class="cls-2" x1="702.86" y1="606.85" x2="698.92" y2="619.12"/><line class="cls-2" x1="627.36" y1="655.94" x2="622.5" y2="671.92"/><line class="cls-2" x1="634.54" y1="606.85" x2="634.31" y2="607.31"/><line class="cls-2" x1="562.98" y1="644.13" x2="557.88" y2="659.88"/><line class="cls-2" x1="498.37" y1="632.32" x2="493.5" y2="648.07"/><line class="cls-2" x1="433.75" y1="620.51" x2="428.89" y2="636.26"/><line class="cls-2" x1="357.33" y1="673.31" x2="357.33" y2="673.55"/><line class="cls-2" x1="369.14" y1="608.7" x2="364.27" y2="624.45"/><line class="cls-2" x1="301.51" y1="606.85" x2="299.66" y2="612.64"/><line class="cls-2" x1="828.15" y1="642.74" x2="833.25" y2="647.14"/><line class="cls-2" x1="763.54" y1="630.93" x2="768.86" y2="635.1"/><line class="cls-2" x1="698.92" y1="619.12" x2="704.25" y2="623.29"/><line class="cls-2" x1="634.31" y1="607.31" x2="639.64" y2="611.48"/><line class="cls-2" x1="622.5" y1="671.92" x2="624.58" y2="673.55"/><line class="cls-2" x1="557.88" y1="659.88" x2="563.21" y2="664.28"/><line class="cls-2" x1="493.5" y1="648.07" x2="498.6" y2="652.47"/><line class="cls-2" x1="428.89" y1="636.26" x2="433.98" y2="640.66"/><line class="cls-2" x1="364.27" y1="624.45" x2="369.37" y2="628.85"/><line class="cls-2" x1="299.66" y1="612.64" x2="304.99" y2="616.81"/><line class="cls-2" x1="639.64" y1="611.48" x2="643.57" y2="612.17"/><line class="cls-2" x1="704.25" y1="623.29" x2="707.96" y2="623.99"/><line class="cls-2" x1="768.86" y1="635.1" x2="772.57" y2="636.03"/><line class="cls-2" x1="833.25" y1="647.14" x2="837.18" y2="647.84"/><line class="cls-2" x1="304.99" y1="616.81" x2="308.69" y2="617.5"/><line class="cls-2" x1="369.37" y1="628.85" x2="373.31" y2="629.54"/><line class="cls-2" x1="433.98" y1="640.66" x2="437.92" y2="641.35"/><line class="cls-2" x1="498.6" y1="652.47" x2="502.53" y2="653.17"/><line class="cls-2" x1="563.21" y1="664.28" x2="567.15" y2="664.98"/><line class="cls-2" x1="336.02" y1="655.25" x2="344.59" y2="652.24"/><line class="cls-2" x1="476.83" y1="614.49" x2="485.4" y2="611.25"/><line class="cls-2" x1="400.4" y1="667.06" x2="408.97" y2="664.05"/><line class="cls-2" x1="541.44" y1="626.3" x2="550.01" y2="623.06"/><line class="cls-2" x1="606.06" y1="638.11" x2="614.62" y2="634.87"/><line class="cls-2" x1="670.67" y1="649.92" x2="679.24" y2="646.91"/><line class="cls-2" x1="811.71" y1="608.93" x2="817.96" y2="606.85"/><line class="cls-2" x1="735.28" y1="661.73" x2="743.85" y2="658.72"/><line class="cls-2" x1="800.13" y1="673.55" x2="808.47" y2="670.53"/><line class="cls-2" x1="820.74" y1="606.85" x2="830.93" y2="619.82"/><line class="cls-2" x1="765.39" y1="606.85" x2="766.32" y2="608.01"/><line class="cls-2" x1="808.47" y1="670.53" x2="810.55" y2="673.55"/><line class="cls-2" x1="743.85" y1="658.72" x2="754.51" y2="672.62"/><line class="cls-2" x1="679.24" y1="646.91" x2="689.89" y2="660.81"/><line class="cls-2" x1="614.62" y1="634.87" x2="625.51" y2="649"/><line class="cls-2" x1="550.01" y1="623.06" x2="560.9" y2="637.19"/><line class="cls-2" x1="485.4" y1="611.25" x2="496.28" y2="625.37"/><line class="cls-2" x1="426.57" y1="606.85" x2="431.67" y2="613.33"/><line class="cls-2" x1="408.97" y1="664.05" x2="416.38" y2="673.55"/><line class="cls-2" x1="344.59" y1="652.24" x2="355.24" y2="666.13"/><line class="cls-2" x1="830.93" y1="619.82" x2="827.92" y2="636.72"/><line class="cls-2" x1="766.32" y1="608.01" x2="763.31" y2="624.91"/><line class="cls-2" x1="754.51" y1="672.62" x2="754.51" y2="673.55"/><line class="cls-2" x1="699.85" y1="606.85" x2="698.69" y2="613.1"/><line class="cls-2" x1="689.89" y1="660.81" x2="687.58" y2="673.55"/><line class="cls-2" x1="625.51" y1="649" x2="622.27" y2="665.67"/><line class="cls-2" x1="560.9" y1="637.19" x2="557.65" y2="653.86"/><line class="cls-2" x1="496.28" y1="625.37" x2="493.27" y2="642.05"/><line class="cls-2" x1="431.67" y1="613.33" x2="428.66" y2="630.24"/><line class="cls-2" x1="366.13" y1="606.85" x2="364.04" y2="618.43"/><line class="cls-2" x1="355.24" y1="666.13" x2="353.85" y2="673.55"/><line class="cls-2" x1="827.92" y1="636.72" x2="820.51" y2="644.13"/><line class="cls-2" x1="763.31" y1="624.91" x2="755.9" y2="632.09"/><line class="cls-2" x1="698.69" y1="613.1" x2="691.51" y2="620.28"/><line class="cls-2" x1="622.27" y1="665.67" x2="615.09" y2="673.08"/><line class="cls-2" x1="628.52" y1="606.85" x2="626.9" y2="608.47"/><line class="cls-2" x1="557.65" y1="653.86" x2="550.47" y2="661.27"/><line class="cls-2" x1="493.27" y1="642.05" x2="485.86" y2="649.46"/><line class="cls-2" x1="428.66" y1="630.24" x2="421.25" y2="637.65"/><line class="cls-2" x1="364.04" y1="618.43" x2="356.63" y2="625.61"/><polyline class="cls-2" points="299.2 606.85 292.02 613.79 283.45 609.63"/><line class="cls-2" x1="356.63" y1="625.61" x2="348.06" y2="621.44"/><line class="cls-2" x1="421.25" y1="637.65" x2="412.68" y2="633.25"/><line class="cls-2" x1="485.86" y1="649.46" x2="477.29" y2="645.06"/><line class="cls-2" x1="550.47" y1="661.27" x2="541.91" y2="657.1"/><line class="cls-2" x1="615.09" y1="673.08" x2="606.52" y2="668.91"/><line class="cls-2" x1="626.9" y1="608.47" x2="623.19" y2="606.85"/><line class="cls-2" x1="691.51" y1="620.28" x2="682.94" y2="616.11"/><line class="cls-2" x1="755.9" y1="632.09" x2="747.33" y2="627.92"/><line class="cls-2" x1="820.51" y1="644.13" x2="811.94" y2="639.73"/><line class="cls-2" x1="283.45" y1="609.63" x2="282.76" y2="606.85"/><line class="cls-2" x1="332.32" y1="673.55" x2="331.62" y2="671.23"/><line class="cls-2" x1="348.06" y1="621.44" x2="343.43" y2="606.85"/><line class="cls-2" x1="412.68" y1="633.25" x2="408.05" y2="618.43"/><line class="cls-2" x1="477.29" y1="645.06" x2="472.66" y2="630.24"/><line class="cls-2" x1="541.91" y1="657.1" x2="537.27" y2="642.05"/><line class="cls-2" x1="606.52" y1="668.91" x2="601.89" y2="654.09"/><line class="cls-2" x1="668.82" y1="673.55" x2="666.27" y2="665.9"/><line class="cls-2" x1="682.94" y1="616.11" x2="679.93" y2="606.85"/><line class="cls-2" x1="747.33" y1="627.92" x2="742.69" y2="613.1"/><line class="cls-2" x1="811.94" y1="639.73" x2="807.31" y2="624.91"/><line class="cls-2" x1="331.62" y1="671.23" x2="336.02" y2="655.25"/><line class="cls-2" x1="408.05" y1="618.43" x2="411.29" y2="606.85"/><line class="cls-2" x1="398.78" y1="673.55" x2="400.4" y2="667.06"/><line class="cls-2" x1="472.66" y1="630.24" x2="476.83" y2="614.49"/><line class="cls-2" x1="537.27" y1="642.05" x2="541.44" y2="626.3"/><line class="cls-2" x1="601.89" y1="654.09" x2="606.06" y2="638.11"/><line class="cls-2" x1="666.27" y1="665.9" x2="670.67" y2="649.92"/><line class="cls-2" x1="742.69" y1="613.1" x2="744.55" y2="606.85"/><line class="cls-2" x1="732.04" y1="673.55" x2="735.28" y2="661.73"/><line class="cls-2" x1="807.31" y1="624.91" x2="811.71" y2="608.93"/><line class="cls-2" x1="1175.07" y1="674.47" x2="1174.84" y2="674.01"/><line class="cls-2" x1="1283.92" y1="613.1" x2="1279.06" y2="606.85"/><line class="cls-2" x1="1369.84" y1="628.85" x2="1362.66" y2="619.35"/><line class="cls-2" x1="1455.99" y1="644.6" x2="1448.81" y2="635.33"/><line class="cls-2" x1="1542.15" y1="660.34" x2="1534.97" y2="651.08"/><line class="cls-2" x1="917.08" y1="620.97" x2="918.47" y2="606.85"/><line class="cls-2" x1="1174.84" y1="674.01" x2="1176.7" y2="653.86"/><line class="cls-2" x1="1262.15" y1="676.32" x2="1262.85" y2="669.61"/><line class="cls-2" x1="1362.66" y1="619.35" x2="1364.05" y2="606.85"/><line class="cls-2" x1="1448.81" y1="635.33" x2="1450.67" y2="615.18"/><line class="cls-2" x1="1534.97" y1="651.08" x2="1536.82" y2="630.93"/><line class="cls-2" x1="1006.71" y1="620.97" x2="1016.67" y2="614.72"/><line class="cls-2" x1="1176.7" y1="653.86" x2="1188.74" y2="646.22"/><line class="cls-2" x1="1262.85" y1="669.61" x2="1274.89" y2="661.97"/><line class="cls-2" x1="1450.67" y1="615.18" x2="1462.94" y2="607.54"/><line class="cls-2" x1="1360.12" y1="678.41" x2="1361.04" y2="677.95"/><line class="cls-2" x1="1536.82" y1="630.93" x2="1548.86" y2="623.29"/><line class="cls-2" x1="1161.41" y1="616.34" x2="1143.35" y2="612.17"/><line class="cls-2" x1="1247.33" y1="632.09" x2="1229.5" y2="627.92"/><line class="cls-2" x1="1333.48" y1="647.84" x2="1315.65" y2="643.67"/><line class="cls-2" x1="1419.63" y1="663.59" x2="1401.8" y2="659.42"/><polyline class="cls-2" points="1505.79 679.57 1487.72 675.4 1470.12 679.1"/><line class="cls-2" x1="1401.8" y1="659.42" x2="1383.97" y2="663.36"/><line class="cls-2" x1="1581.75" y1="606.85" x2="1572.02" y2="608.93"/><line class="cls-2" x1="1315.65" y1="643.67" x2="1298.05" y2="647.61"/><line class="cls-2" x1="1229.5" y1="627.92" x2="1211.9" y2="631.86"/><line class="cls-2" x1="1143.35" y1="612.17" x2="1125.75" y2="616.11"/><line class="cls-2" x1="1572.02" y1="608.93" x2="1567.85" y2="626.76"/><line class="cls-2" x1="1470.12" y1="679.1" x2="1469.89" y2="680.72"/><line class="cls-2" x1="1482.86" y1="606.85" x2="1481.7" y2="611.02"/><line class="cls-2" x1="1383.97" y1="663.36" x2="1380.5" y2="678.87"/><line class="cls-2" x1="1298.05" y1="647.61" x2="1293.88" y2="665.44"/><line class="cls-2" x1="1211.9" y1="631.86" x2="1207.73" y2="649.69"/><line class="cls-2" x1="1125.75" y1="616.11" x2="1124.59" y2="620.97"/><line class="cls-2" x1="1038.2" y1="606.85" x2="1035.42" y2="618.2"/><line class="cls-2" x1="1567.85" y1="626.76" x2="1578.97" y2="648.53"/><line class="cls-2" x1="1481.7" y1="611.02" x2="1493.05" y2="632.55"/><line class="cls-2" x1="1401.57" y1="606.85" x2="1406.9" y2="616.81"/><line class="cls-2" x1="1293.88" y1="665.44" x2="1299.67" y2="677.02"/><line class="cls-2" x1="1207.73" y1="649.69" x2="1218.84" y2="671.46"/><line class="cls-2" x1="1130.38" y1="651.08" x2="1132.69" y2="655.48"/><line class="cls-2" x1="1035.42" y1="618.2" x2="1037.05" y2="620.97"/><line class="cls-2" x1="951.59" y1="606.85" x2="959" y2="620.97"/><line class="cls-2" x1="873.77" y1="606.85" x2="874.47" y2="608.24"/><line class="cls-2" x1="1578.97" y1="648.53" x2="1596.57" y2="657.8"/><line class="cls-2" x1="1493.05" y1="632.55" x2="1513.2" y2="643.44"/><line class="cls-2" x1="1406.9" y1="616.81" x2="1427.04" y2="627.69"/><line class="cls-2" x1="1331.4" y1="606.85" x2="1341.12" y2="611.94"/><line class="cls-2" x1="1218.84" y1="671.46" x2="1226.49" y2="675.63"/><line class="cls-2" x1="1132.69" y1="655.48" x2="1153.07" y2="666.37"/><polyline class="cls-2" points="874.47 608.24 894.62 619.12 911.99 612.41"/><line class="cls-2" x1="1153.07" y1="666.37" x2="1170.21" y2="659.88"/><line class="cls-2" x1="1341.12" y1="611.94" x2="1354.56" y2="606.85"/><line class="cls-2" x1="1254.97" y1="676.09" x2="1256.36" y2="675.63"/><line class="cls-2" x1="1427.04" y1="627.69" x2="1444.41" y2="620.97"/><line class="cls-2" x1="1513.2" y1="643.44" x2="1530.33" y2="636.95"/><line class="cls-2" x1="911.99" y1="612.41" x2="913.61" y2="606.85"/><line class="cls-2" x1="999.99" y1="620.97" x2="1003.47" y2="607.77"/><line class="cls-2" x1="1170.21" y1="659.88" x2="1175.77" y2="639.5"/><line class="cls-2" x1="1256.36" y1="675.63" x2="1261.92" y2="655.25"/><line class="cls-2" x1="1345.99" y1="677.95" x2="1348.07" y2="671"/><line class="cls-2" x1="1444.41" y1="620.97" x2="1448.12" y2="606.85"/><line class="cls-2" x1="1530.33" y1="636.95" x2="1535.89" y2="616.57"/><line class="cls-2" x1="1003.47" y1="607.77" x2="1002.77" y2="606.85"/><line class="cls-2" x1="1088" y1="620.97" x2="1079.2" y2="606.85"/><line class="cls-2" x1="1175.77" y1="639.5" x2="1161.41" y2="616.34"/><line class="cls-2" x1="1261.92" y1="655.25" x2="1247.33" y2="632.09"/><line class="cls-2" x1="1348.07" y1="671" x2="1333.48" y2="647.84"/><line class="cls-2" x1="1429.59" y1="679.8" x2="1419.63" y2="663.59"/><line class="cls-2" x1="1506.94" y1="681.42" x2="1505.79" y2="679.57"/><line class="cls-2" x1="1535.89" y1="616.57" x2="1529.87" y2="606.85"/><line class="cls-2" x1="1160.72" y1="615.42" x2="1167.89" y2="609.63"/><line class="cls-2" x1="1246.64" y1="631.16" x2="1254.05" y2="625.37"/><line class="cls-2" x1="1332.79" y1="646.91" x2="1340.2" y2="641.12"/><line class="cls-2" x1="1418.94" y1="662.66" x2="1426.12" y2="656.87"/><line class="cls-2" x1="1505.09" y1="678.41" x2="1512.27" y2="672.62"/><line class="cls-2" x1="1167.89" y1="609.63" x2="1168.82" y2="606.85"/><line class="cls-2" x1="1254.05" y1="625.37" x2="1259.84" y2="608.47"/><line class="cls-2" x1="1340.2" y1="641.12" x2="1345.76" y2="624.45"/><line class="cls-2" x1="1426.12" y1="656.87" x2="1431.91" y2="640.2"/><line class="cls-2" x1="1512.27" y1="672.62" x2="1518.06" y2="655.94"/><line class="cls-2" x1="1154.46" y1="674.01" x2="1150.76" y2="668.68"/><line class="cls-2" x1="1259.84" y1="608.47" x2="1258.45" y2="606.85"/><line class="cls-2" x1="1345.76" y1="624.45" x2="1338.81" y2="614.26"/><line class="cls-2" x1="1431.91" y1="640.2" x2="1424.96" y2="630.01"/><line class="cls-2" x1="1518.06" y1="655.94" x2="1511.11" y2="645.75"/><line class="cls-2" x1="909.44" y1="620.97" x2="909.44" y2="620.74"/><line class="cls-2" x1="1169.28" y1="674.24" x2="1167.89" y2="668.22"/><line class="cls-2" x1="1357.34" y1="620.28" x2="1355.71" y2="613.8"/><line class="cls-2" x1="1443.49" y1="636.03" x2="1441.87" y2="629.54"/><polyline class="cls-2" points="1529.41 651.78 1528.02 645.29 1518.76 647.14"/><line class="cls-2" x1="1441.87" y1="629.54" x2="1432.6" y2="631.4"/><line class="cls-2" x1="1167.89" y1="668.22" x2="1158.63" y2="670.07"/><line class="cls-2" x1="1355.71" y1="613.8" x2="1346.45" y2="615.65"/><line class="cls-2" x1="909.44" y1="620.97" x2="909.21" y2="620.97"/><line class="cls-2" x1="1518.75" y1="647.14" x2="1524.08" y2="661.5"/><line class="cls-2" x1="1432.6" y1="631.4" x2="1438.16" y2="645.75"/><line class="cls-2" x1="1346.45" y1="615.65" x2="1352.01" y2="630.01"/><line class="cls-2" x1="1263.08" y1="606.85" x2="1265.86" y2="614.03"/><line class="cls-2" x1="1158.63" y1="670.07" x2="1160.02" y2="674.01"/><line class="cls-2" x1="1265.86" y1="614.03" x2="1270.03" y2="606.85"/><line class="cls-2" x1="1352.01" y1="630.01" x2="1357.34" y2="620.28"/><line class="cls-2" x1="1438.16" y1="645.75" x2="1443.49" y2="636.03"/><line class="cls-2" x1="1524.08" y1="661.5" x2="1529.41" y2="651.78"/><line class="cls-2" x1="1538.44" y1="606.85" x2="1538.67" y2="610.78"/><line class="cls-2" x1="1521.3" y1="681.42" x2="1521.3" y2="681.65"/><line class="cls-2" x1="1435.38" y1="665.67" x2="1436.77" y2="680.03"/><line class="cls-2" x1="1349.23" y1="649.92" x2="1350.85" y2="665.21"/><line class="cls-2" x1="1263.08" y1="634.18" x2="1264.7" y2="649.46"/><line class="cls-2" x1="1176.93" y1="618.43" x2="1178.55" y2="633.71"/><line class="cls-2" x1="1091.24" y1="606.85" x2="1092.4" y2="617.96"/><line class="cls-2" x1="1538.67" y1="610.78" x2="1550.02" y2="617.27"/><line class="cls-2" x1="1350.85" y1="665.21" x2="1361.97" y2="671.92"/><line class="cls-2" x1="1264.7" y1="649.46" x2="1276.05" y2="655.94"/><line class="cls-2" x1="1178.55" y1="633.71" x2="1189.9" y2="640.2"/><line class="cls-2" x1="1092.4" y1="617.96" x2="1097.72" y2="620.97"/><line class="cls-2" x1="1014.35" y1="606.85" x2="1017.59" y2="608.7"/><line class="cls-2" x1="1541.45" y1="664.75" x2="1528.25" y2="667.52"/><line class="cls-2" x1="1455.3" y1="648.77" x2="1442.33" y2="651.78"/><line class="cls-2" x1="1369.15" y1="633.02" x2="1356.18" y2="636.03"/><line class="cls-2" x1="1283" y1="617.27" x2="1270.03" y2="620.28"/><line class="cls-2" x1="1528.25" y1="667.52" x2="1521.3" y2="681.42"/><line class="cls-2" x1="1442.33" y1="651.78" x2="1435.38" y2="665.67"/><line class="cls-2" x1="1356.18" y1="636.03" x2="1349.23" y2="649.92"/><line class="cls-2" x1="1270.03" y1="620.28" x2="1263.08" y2="634.18"/><line class="cls-2" x1="1182.72" y1="606.85" x2="1176.93" y2="618.43"/><line class="cls-2" x1="1566.69" y1="606.85" x2="1562.29" y2="614.26"/><line class="cls-2" x1="1468.04" y1="671.69" x2="1462.71" y2="680.49"/><line class="cls-2" x1="1381.88" y1="655.94" x2="1374.24" y2="668.68"/><line class="cls-2" x1="1295.73" y1="640.2" x2="1288.09" y2="652.93"/><line class="cls-2" x1="1209.58" y1="624.22" x2="1201.94" y2="637.19"/><line class="cls-2" x1="1123.66" y1="608.47" x2="1116.25" y2="620.97"/><line class="cls-2" x1="1374.24" y1="668.68" x2="1361.97" y2="671.92"/><line class="cls-2" x1="1562.29" y1="614.26" x2="1550.02" y2="617.27"/><line class="cls-2" x1="1288.09" y1="652.93" x2="1276.05" y2="655.94"/><line class="cls-2" x1="1201.94" y1="637.19" x2="1189.9" y2="640.2"/><line class="cls-2" x1="1025.23" y1="606.85" x2="1017.59" y2="608.7"/><line class="cls-2" x1="1541.22" y1="665.44" x2="1552.33" y2="672.85"/><line class="cls-2" x1="1455.07" y1="649.69" x2="1466.18" y2="657.1"/><line class="cls-2" x1="1368.92" y1="633.94" x2="1380.03" y2="641.35"/><line class="cls-2" x1="1282.99" y1="618.2" x2="1294.11" y2="625.61"/><line class="cls-2" x1="1203.33" y1="606.85" x2="1207.96" y2="609.86"/><line class="cls-2" x1="1552.33" y1="672.85" x2="1553.49" y2="682.35"/><line class="cls-2" x1="1466.18" y1="657.1" x2="1468.04" y2="671.69"/><line class="cls-2" x1="1380.03" y1="641.35" x2="1381.88" y2="655.94"/><line class="cls-2" x1="1294.11" y1="625.61" x2="1295.73" y2="640.2"/><line class="cls-2" x1="1207.96" y1="609.86" x2="1209.58" y2="624.22"/><line class="cls-2" x1="1123.43" y1="606.85" x2="1123.66" y2="608.47"/><line class="cls-2" x1="1548.86" y1="623.29" x2="1555.35" y2="627.23"/><line class="cls-2" x1="1462.94" y1="607.54" x2="1469.19" y2="611.48"/><line class="cls-2" x1="1361.04" y1="677.95" x2="1361.74" y2="678.41"/><line class="cls-2" x1="1274.89" y1="661.97" x2="1281.37" y2="665.9"/><line class="cls-2" x1="1188.74" y1="646.22" x2="1195.22" y2="650.15"/><line class="cls-2" x1="1016.67" y1="614.72" x2="1022.92" y2="618.66"/><line class="cls-2" x1="1283.92" y1="613.1" x2="1288.32" y2="612.87"/><line class="cls-2" x1="1369.84" y1="628.85" x2="1374.47" y2="628.62"/><line class="cls-2" x1="1455.99" y1="644.6" x2="1460.63" y2="644.6"/><line class="cls-2" x1="1542.15" y1="660.34" x2="1546.55" y2="660.34"/><line class="cls-2" x1="934.91" y1="620.97" x2="935.61" y2="619.35"/><line class="cls-2" x1="1190.36" y1="674.7" x2="1193.83" y2="666.83"/><line class="cls-2" x1="1288.32" y1="612.87" x2="1291.1" y2="606.85"/><line class="cls-2" x1="1374.47" y1="628.62" x2="1381.88" y2="612.17"/><line class="cls-2" x1="1460.63" y1="644.6" x2="1468.04" y2="628.15"/><line class="cls-2" x1="1546.55" y1="660.34" x2="1554.19" y2="643.9"/><line class="cls-2" x1="935.61" y1="619.35" x2="936.54" y2="606.85"/><line class="cls-2" x1="1022.69" y1="620.97" x2="1022.92" y2="618.66"/><line class="cls-2" x1="1193.83" y1="666.83" x2="1195.22" y2="650.15"/><line class="cls-2" x1="1280.45" y1="676.56" x2="1281.37" y2="665.9"/><line class="cls-2" x1="1381.88" y1="612.17" x2="1382.35" y2="606.85"/><line class="cls-2" x1="1468.04" y1="628.15" x2="1469.19" y2="611.48"/><line class="cls-2" x1="1554.19" y1="643.9" x2="1555.35" y2="627.23"/><line class="cls-2" x1="1596.57" y1="661.73" x2="1585.45" y2="666.6"/><line class="cls-2" x1="1511.11" y1="645.75" x2="1499.53" y2="650.85"/><line class="cls-2" x1="1424.96" y1="630.01" x2="1413.38" y2="634.87"/><line class="cls-2" x1="1338.81" y1="614.26" x2="1327.23" y2="619.12"/><line class="cls-2" x1="1150.76" y1="668.68" x2="1139.18" y2="673.78"/><line class="cls-2" x1="1585.45" y1="666.6" x2="1580.36" y2="683.04"/><line class="cls-2" x1="1499.53" y1="650.85" x2="1492.82" y2="671.69"/><line class="cls-2" x1="1413.38" y1="634.87" x2="1406.9" y2="655.94"/><line class="cls-2" x1="1327.23" y1="619.12" x2="1320.74" y2="640.2"/><line class="cls-2" x1="1240.15" y1="606.85" x2="1234.59" y2="624.45"/><line class="cls-2" x1="1149.14" y1="606.85" x2="1148.44" y2="608.7"/><line class="cls-2" x1="1492.82" y1="671.69" x2="1499.76" y2="677.48"/><line class="cls-2" x1="1406.9" y1="655.94" x2="1413.84" y2="661.73"/><line class="cls-2" x1="1320.74" y1="640.2" x2="1327.69" y2="645.99"/><line class="cls-2" x1="1234.59" y1="624.45" x2="1241.54" y2="630.24"/><polyline class="cls-2" points="1148.44 608.7 1155.39 614.26 1160.71 615.42"/><line class="cls-2" x1="1241.54" y1="630.24" x2="1246.64" y2="631.16"/><line class="cls-2" x1="1327.69" y1="645.99" x2="1332.79" y2="646.91"/><line class="cls-2" x1="1413.84" y1="661.73" x2="1418.94" y2="662.66"/><line class="cls-2" x1="1499.76" y1="677.48" x2="1505.09" y2="678.41"/><line class="cls-2" x1="938.39" y1="618.2" x2="949.97" y2="614.03"/><line class="cls-2" x1="1196.84" y1="665.67" x2="1208.19" y2="661.5"/><line class="cls-2" x1="1384.9" y1="611.02" x2="1396.24" y2="606.85"/><line class="cls-2" x1="1470.82" y1="626.76" x2="1482.39" y2="622.6"/><polyline class="cls-2" points="1556.97 642.51 1568.32 638.58 1582.9 657.1"/><line class="cls-2" x1="1482.39" y1="622.6" x2="1496.75" y2="641.35"/><line class="cls-2" x1="1396.24" y1="606.85" x2="1410.6" y2="625.61"/><line class="cls-2" x1="1322.13" y1="606.85" x2="1324.45" y2="609.86"/><line class="cls-2" x1="1208.19" y1="661.5" x2="1219.08" y2="675.4"/><line class="cls-2" x1="1130.38" y1="656.41" x2="1136.4" y2="664.28"/><line class="cls-2" x1="949.97" y1="614.03" x2="955.29" y2="620.97"/><line class="cls-2" x1="870.3" y1="606.85" x2="878.17" y2="617.04"/><line class="cls-2" x1="1582.91" y1="657.1" x2="1578.74" y2="679.57"/><line class="cls-2" x1="1496.75" y1="641.35" x2="1492.58" y2="663.82"/><line class="cls-2" x1="1410.6" y1="625.61" x2="1406.43" y2="647.84"/><line class="cls-2" x1="1324.45" y1="609.86" x2="1320.28" y2="632.09"/><line class="cls-2" x1="1235.98" y1="606.85" x2="1234.36" y2="616.34"/><line class="cls-2" x1="1136.4" y1="664.28" x2="1134.78" y2="673.55"/><line class="cls-2" x1="878.17" y1="617.04" x2="877.48" y2="620.97"/><line class="cls-2" x1="1578.74" y1="679.57" x2="1575.26" y2="682.81"/><line class="cls-2" x1="1492.58" y1="663.82" x2="1482.86" y2="673.55"/><line class="cls-2" x1="1406.43" y1="647.84" x2="1396.71" y2="657.8"/><line class="cls-2" x1="1320.28" y1="632.09" x2="1310.55" y2="641.82"/><line class="cls-2" x1="1234.36" y1="616.34" x2="1224.4" y2="626.07"/><polyline class="cls-2" points="1141.96 606.85 1138.48 610.32 1131.07 606.85"/><line class="cls-2" x1="1224.4" y1="626.07" x2="1213.05" y2="620.51"/><line class="cls-2" x1="1310.55" y1="641.82" x2="1299.21" y2="636.26"/><line class="cls-2" x1="1396.71" y1="657.8" x2="1385.36" y2="652.01"/><line class="cls-2" x1="1482.86" y1="673.55" x2="1471.28" y2="667.76"/><line class="cls-2" x1="1213.05" y1="620.51" x2="1208.89" y2="606.85"/><line class="cls-2" x1="1299.21" y1="636.26" x2="1292.95" y2="616.34"/><line class="cls-2" x1="1385.36" y1="652.01" x2="1379.11" y2="632.32"/><line class="cls-2" x1="1471.28" y1="667.76" x2="1465.26" y2="648.07"/><line class="cls-2" x1="1557.2" y1="682.58" x2="1551.41" y2="663.82"/><line class="cls-2" x1="848.3" y1="618.2" x2="851.31" y2="606.85"/><line class="cls-2" x1="937.69" y1="620.97" x2="938.39" y2="618.2"/><line class="cls-2" x1="1194.3" y1="674.93" x2="1196.84" y2="665.67"/><line class="cls-2" x1="1292.95" y1="616.34" x2="1295.5" y2="606.85"/><line class="cls-2" x1="1379.11" y1="632.32" x2="1384.9" y2="611.02"/><line class="cls-2" x1="1465.26" y1="648.07" x2="1470.82" y2="626.76"/><line class="cls-2" x1="1551.41" y1="663.82" x2="1556.97" y2="642.51"/><polyline class="cls-2" points="428.19 83.22 425.88 80.44 427.5 65.16 428.19 64.69"/><line class="cls-2" x1="419.63" y1="127.22" x2="424.72" y2="124.21"/><line class="cls-2" x1="404.11" y1="101.75" x2="390.68" y2="98.51"/><line class="cls-2" x1="415.92" y1="37.13" x2="402.49" y2="33.89"/><line class="cls-2" x1="390.68" y1="98.51" x2="382.11" y2="100.36"/><polyline class="cls-2" points="402.49 33.89 389.29 36.9 386.05 50.34 394.38 66.55 409.67 74.65 422.64 69.79 426.81 54.5"/><polyline class="cls-2" points="412.68 127.22 414.76 119.12 404.11 101.75"/><line class="cls-2" x1="426.8" y1="54.5" x2="415.92" y2="37.13"/><line class="cls-2" x1="415.46" y1="36.44" x2="420.78" y2="32.04"/><line class="cls-2" x1="403.41" y1="101.05" x2="408.97" y2="96.65"/><line class="cls-2" x1="420.78" y1="32.04" x2="425.18" y2="19.53"/><polyline class="cls-2" points="408.97 96.65 413.37 84.15 408.05 76.5"/><line class="cls-2" x1="425.18" y1="19.53" x2="419.86" y2="11.89"/><polyline class="cls-2" points="421.94 80.91 420.78 76.04 413.84 77.43"/><polyline class="cls-2" points="428.19 12.35 425.65 12.82 428.19 19.53"/><polyline class="cls-2" points="413.84 77.43 417.77 88.32 421.94 80.91"/><line class="cls-2" x1="427.73" y1="38.52" x2="428.19" y2="43.85"/><polyline class="cls-2" points="415.69 103.14 417.08 114.72 425.42 119.58"/><polyline class="cls-2" points="428.19 91.09 421.01 92.72 415.69 103.14"/><line class="cls-2" x1="428.19" y1="37.6" x2="427.73" y2="38.52"/><line class="cls-2" x1="387.67" y1="31.34" x2="382.11" y2="40.61"/><line class="cls-2" x1="428.19" y1="118.89" x2="425.42" y2="119.58"/><polyline class="cls-2" points="382.11 17.45 386.28 20.23 387.67 31.34"/><line class="cls-2" x1="424.72" y1="124.21" x2="428.19" y2="126.3"/><line class="cls-2" x1="408.05" y1="76.5" x2="399.25" y2="80.21"/><line class="cls-2" x1="419.63" y1="11.89" x2="411.06" y2="15.6"/><line class="cls-2" x1="399.25" y1="80.21" x2="394.38" y2="95.96"/><polyline class="cls-2" points="411.06 15.6 406.19 31.34 411.52 35.74"/><line class="cls-2" x1="394.38" y1="95.96" x2="399.71" y2="100.13"/><line class="cls-2" x1="411.52" y1="35.74" x2="415.46" y2="36.44"/><line class="cls-2" x1="399.71" y1="100.13" x2="403.41" y2="101.05"/><polyline class="cls-2" points="382.11 60.76 386.51 59.13 397.16 73.03"/><line class="cls-2" x1="408.51" y1="11.89" x2="405.96" y2="25.32"/><polyline class="cls-2" points="397.16 73.03 394.15 89.94 386.74 97.12"/><line class="cls-2" x1="405.96" y1="25.32" x2="398.78" y2="32.73"/><line class="cls-2" x1="386.74" y1="97.12" x2="382.11" y2="94.8"/><polyline class="cls-2" points="398.78 32.73 390.21 28.33 385.58 13.51 385.81 11.89"/><line class="cls-2" x1="1312.18" y1="508.42" x2="1312.18" y2="590.4"/><line class="cls-2" x1="1315.42" y1="508.42" x2="1315.42" y2="590.4"/><line class="cls-2" x1="1336.96" y1="508.42" x2="1336.96" y2="590.4"/><line class="cls-2" x1="1340.2" y1="508.42" x2="1340.2" y2="590.4"/><line class="cls-2" x1="1364.98" y1="508.42" x2="1364.98" y2="590.4"/><line class="cls-2" x1="1368.22" y1="508.42" x2="1368.22" y2="590.4"/><line class="cls-2" x1="1392.77" y1="508.42" x2="1392.77" y2="590.4"/><line class="cls-2" x1="1396.24" y1="508.42" x2="1396.24" y2="590.4"/><line class="cls-2" x1="1420.79" y1="508.42" x2="1420.79" y2="590.4"/><line class="cls-2" x1="1424.03" y1="508.42" x2="1424.03" y2="590.4"/><line class="cls-2" x1="1448.81" y1="508.42" x2="1448.81" y2="590.4"/><line class="cls-2" x1="1452.06" y1="508.42" x2="1452.06" y2="590.4"/><line class="cls-2" x1="1476.84" y1="508.42" x2="1476.84" y2="590.4"/><line class="cls-2" x1="1480.08" y1="508.42" x2="1480.08" y2="590.4"/><line class="cls-2" x1="1504.86" y1="508.42" x2="1504.86" y2="590.4"/><line class="cls-2" x1="1508.1" y1="508.42" x2="1508.1" y2="590.4"/><line class="cls-2" x1="1532.88" y1="508.42" x2="1532.88" y2="590.4"/><line class="cls-2" x1="1536.12" y1="508.42" x2="1536.12" y2="590.4"/><line class="cls-2" x1="1231.58" y1="508.42" x2="1231.58" y2="590.4"/><line class="cls-2" x1="1234.82" y1="508.42" x2="1234.82" y2="590.4"/><line class="cls-2" x1="1256.36" y1="508.42" x2="1256.36" y2="590.4"/><line class="cls-2" x1="1259.6" y1="508.42" x2="1259.6" y2="590.4"/><line class="cls-2" x1="1284.15" y1="508.42" x2="1284.15" y2="590.4"/><line class="cls-2" x1="1287.63" y1="508.42" x2="1287.63" y2="590.4"/><line class="cls-2" x1="1175.54" y1="508.42" x2="1175.54" y2="590.4"/><line class="cls-2" x1="1179.01" y1="508.42" x2="1179.01" y2="590.4"/><line class="cls-2" x1="1203.56" y1="508.42" x2="1203.56" y2="590.4"/><line class="cls-2" x1="1206.8" y1="508.42" x2="1206.8" y2="590.4"/><line class="cls-2" x1="666.27" y1="508.42" x2="666.27" y2="590.4"/><line class="cls-2" x1="663.03" y1="508.42" x2="663.03" y2="590.4"/><line class="cls-2" x1="641.72" y1="508.42" x2="641.72" y2="590.4"/><line class="cls-2" x1="638.48" y1="508.42" x2="638.48" y2="590.4"/><line class="cls-2" x1="613.7" y1="508.42" x2="613.7" y2="590.4"/><line class="cls-2" x1="610.46" y1="508.42" x2="610.46" y2="590.4"/><line class="cls-2" x1="585.67" y1="508.42" x2="585.67" y2="590.4"/><line class="cls-2" x1="582.43" y1="508.42" x2="582.43" y2="590.4"/><line class="cls-2" x1="557.65" y1="508.42" x2="557.65" y2="590.4"/><line class="cls-2" x1="554.41" y1="508.42" x2="554.41" y2="590.4"/><line class="cls-2" x1="529.63" y1="508.42" x2="529.63" y2="590.4"/><line class="cls-2" x1="526.39" y1="508.42" x2="526.39" y2="590.4"/><line class="cls-2" x1="747.09" y1="508.42" x2="747.09" y2="590.4"/><line class="cls-2" x1="743.62" y1="508.42" x2="743.62" y2="590.4"/><line class="cls-2" x1="722.31" y1="508.42" x2="722.31" y2="590.4"/><line class="cls-2" x1="719.07" y1="508.42" x2="719.07" y2="590.4"/><line class="cls-2" x1="694.29" y1="508.42" x2="694.29" y2="590.4"/><line class="cls-2" x1="691.05" y1="508.42" x2="691.05" y2="590.4"/><line class="cls-2" x1="802.91" y1="508.42" x2="802.91" y2="590.4"/><line class="cls-2" x1="799.66" y1="508.42" x2="799.66" y2="590.4"/><line class="cls-2" x1="774.88" y1="508.42" x2="774.88" y2="590.4"/><line class="cls-2" x1="771.64" y1="508.42" x2="771.64" y2="590.4"/><rect class="cls-2" x="1248.72" y="398.88" width="137.8" height="93.1"/><line class="cls-2" x1="1294.57" y1="398.88" x2="1294.57" y2="491.98"/><line class="cls-2" x1="1289.02" y1="398.88" x2="1289.02" y2="491.98"/><line class="cls-2" x1="1300.13" y1="398.88" x2="1300.13" y2="491.98"/><line class="cls-2" x1="1340.43" y1="398.88" x2="1340.43" y2="491.98"/><line class="cls-2" x1="1335.1" y1="398.88" x2="1335.1" y2="491.98"/><line class="cls-2" x1="1345.99" y1="398.88" x2="1345.99" y2="491.98"/><rect class="cls-2" x="592.16" y="398.88" width="137.8" height="93.1"/><line class="cls-2" x1="684.1" y1="398.88" x2="684.1" y2="491.98"/><line class="cls-2" x1="689.43" y1="398.88" x2="689.43" y2="491.98"/><line class="cls-2" x1="678.54" y1="398.88" x2="678.54" y2="491.98"/><line class="cls-2" x1="638.01" y1="398.88" x2="638.01" y2="491.98"/><line class="cls-2" x1="643.57" y1="398.88" x2="643.57" y2="491.98"/><line class="cls-2" x1="632.69" y1="398.88" x2="632.69" y2="491.98"/><line class="cls-2" x1="550.24" y1="376.88" x2="550.24" y2="502.86"/><line class="cls-2" x1="544.68" y1="376.88" x2="544.68" y2="502.86"/><line class="cls-2" x1="555.57" y1="376.88" x2="555.57" y2="502.86"/><line class="cls-2" x1="392.3" y1="284.01" x2="392.3" y2="127.22"/><line class="cls-2" x1="412.91" y1="284.01" x2="412.91" y2="127.22"/><line class="cls-2" x1="433.29" y1="284.01" x2="433.29" y2="65.16"/><line class="cls-2" x1="453.9" y1="284.01" x2="453.9" y2="65.16"/><line class="cls-2" x1="474.51" y1="284.01" x2="474.51" y2="65.16"/><line class="cls-2" x1="494.89" y1="284.01" x2="494.89" y2="65.16"/><line class="cls-2" x1="515.5" y1="284.01" x2="515.5" y2="65.16"/><line class="cls-2" x1="535.88" y1="284.01" x2="535.88" y2="65.16"/><line class="cls-2" x1="556.49" y1="284.01" x2="556.49" y2="65.16"/><line class="cls-2" x1="577.11" y1="284.01" x2="577.11" y2="65.16"/><line class="cls-2" x1="597.49" y1="284.01" x2="597.49" y2="65.16"/><line class="cls-2" x1="618.1" y1="284.01" x2="618.1" y2="65.16"/><line class="cls-2" x1="638.48" y1="284.01" x2="638.48" y2="65.16"/><line class="cls-2" x1="659.09" y1="284.01" x2="659.09" y2="65.16"/><line class="cls-2" x1="679.47" y1="284.01" x2="679.47" y2="65.16"/><line class="cls-2" x1="700.08" y1="284.01" x2="700.08" y2="65.16"/><line class="cls-2" x1="720.69" y1="284.01" x2="720.69" y2="65.16"/><line class="cls-2" x1="741.07" y1="284.01" x2="741.07" y2="65.16"/><line class="cls-2" x1="761.68" y1="284.01" x2="761.68" y2="65.16"/><line class="cls-2" x1="782.06" y1="284.01" x2="782.06" y2="65.16"/><line class="cls-2" x1="802.68" y1="284.01" x2="802.68" y2="65.16"/><line class="cls-2" x1="823.29" y1="284.01" x2="823.29" y2="65.16"/><line class="cls-2" x1="843.67" y1="284.01" x2="843.67" y2="65.16"/><line class="cls-2" x1="864.28" y1="284.01" x2="864.28" y2="65.16"/><line class="cls-2" x1="884.66" y1="284.01" x2="884.66" y2="65.16"/><line class="cls-2" x1="905.27" y1="284.01" x2="905.27" y2="65.16"/><line class="cls-2" x1="925.88" y1="284.01" x2="925.88" y2="65.16"/><line class="cls-2" x1="946.26" y1="284.01" x2="946.26" y2="65.16"/><line class="cls-2" x1="966.87" y1="284.01" x2="966.87" y2="65.16"/><line class="cls-2" x1="987.25" y1="284.01" x2="987.25" y2="65.16"/><line class="cls-2" x1="1007.86" y1="284.01" x2="1007.86" y2="65.16"/><line class="cls-2" x1="1028.24" y1="284.01" x2="1028.24" y2="65.16"/><line class="cls-2" x1="1048.86" y1="284.01" x2="1048.86" y2="65.16"/><line class="cls-2" x1="1069.47" y1="284.01" x2="1069.47" y2="65.16"/><line class="cls-2" x1="1089.85" y1="284.01" x2="1089.85" y2="65.16"/><line class="cls-2" x1="1110.46" y1="284.01" x2="1110.46" y2="65.16"/><line class="cls-2" x1="1130.84" y1="284.01" x2="1130.84" y2="65.16"/><line class="cls-2" x1="1151.45" y1="284.01" x2="1151.45" y2="65.16"/><line class="cls-2" x1="1172.06" y1="284.01" x2="1172.06" y2="65.16"/><line class="cls-2" x1="1192.44" y1="284.01" x2="1192.44" y2="65.16"/><line class="cls-2" x1="1213.05" y1="284.01" x2="1213.05" y2="65.16"/><line class="cls-2" x1="1233.43" y1="284.01" x2="1233.43" y2="65.16"/><line class="cls-2" x1="1254.05" y1="284.01" x2="1254.05" y2="65.16"/><line class="cls-2" x1="1274.43" y1="284.01" x2="1274.43" y2="65.16"/><line class="cls-2" x1="1295.04" y1="284.01" x2="1295.04" y2="65.16"/><line class="cls-2" x1="1315.65" y1="284.01" x2="1315.65" y2="65.16"/><line class="cls-2" x1="1336.03" y1="284.01" x2="1336.03" y2="65.16"/><line class="cls-2" x1="1356.64" y1="284.01" x2="1356.64" y2="65.16"/><line class="cls-2" x1="1377.02" y1="284.01" x2="1377.02" y2="65.16"/><line class="cls-2" x1="1397.63" y1="284.01" x2="1397.63" y2="65.16"/><line class="cls-2" x1="1418.24" y1="284.01" x2="1418.24" y2="65.16"/><line class="cls-2" x1="1438.62" y1="284.01" x2="1438.62" y2="65.16"/><line class="cls-2" x1="1459.23" y1="284.01" x2="1459.23" y2="65.16"/><line class="cls-2" x1="1479.61" y1="284.01" x2="1479.61" y2="65.16"/><line class="cls-2" x1="1500.23" y1="284.01" x2="1500.23" y2="65.16"/><line class="cls-2" x1="1520.84" y1="284.01" x2="1520.84" y2="65.16"/><line class="cls-2" x1="1541.22" y1="284.01" x2="1541.22" y2="65.16"/><line class="cls-2" x1="1561.83" y1="284.01" x2="1561.83" y2="65.16"/><line class="cls-2" x1="1582.21" y1="284.01" x2="1582.21" y2="65.16"/><polyline class="cls-2" points="273 659.86 281.69 655.58 300.87 661.89 303.73 673.2"/></g><g id="Layer_2" data-name="Layer 2"><line class="cls-3" x1="1552.8" y1="502.86" x2="1158.86" y2="502.86"/><line class="cls-3" x1="819.58" y1="502.86" x2="513.42" y2="502.86"/><line class="cls-3" x1="1552.8" y1="508.42" x2="1158.86" y2="508.42"/><line class="cls-3" x1="819.58" y1="508.42" x2="513.42" y2="508.42"/><line class="cls-3" x1="1552.8" y1="595.73" x2="1158.86" y2="595.73"/><line class="cls-3" x1="819.58" y1="595.73" x2="513.42" y2="595.73"/><line class="cls-3" x1="1552.8" y1="590.4" x2="1158.86" y2="590.4"/><line class="cls-3" x1="819.58" y1="590.4" x2="513.42" y2="590.4"/><line class="cls-3" x1="1552.8" y1="333.11" x2="1158.86" y2="333.11"/><line class="cls-3" x1="1115.09" y1="333.11" x2="863.35" y2="333.11"/><line class="cls-3" x1="819.58" y1="333.11" x2="513.42" y2="333.11"/><polyline class="cls-3" points="940.01 606.85 940.01 382.44 1038.43 382.44 1038.43 606.85"/><polyline class="cls-3" points="1235.52 502.86 1235.52 382.44 1399.72 382.44 1399.72 502.86"/><rect class="cls-3" x="1243.16" y="390.08" width="148.68" height="110.7"/><polyline class="cls-3" points="1158.86 376.88 1229.96 376.88 1229.96 502.86"/><polyline class="cls-3" points="1492.58 502.86 1492.58 376.88 1405.04 376.88 1405.04 502.86"/><polyline class="cls-3" points="743.16 502.86 743.16 382.44 578.96 382.44 578.96 502.86"/><rect class="cls-3" x="586.6" y="390.08" width="148.91" height="110.7"/><polyline class="cls-3" points="819.58 376.88 748.48 376.88 748.48 502.86"/><polyline class="cls-3" points="526.85 502.86 526.85 376.88 573.4 376.88 573.4 502.86"/></g><g id="Layer_3" data-name="Layer 3"><polyline class="cls-4" points="848.3 635.1 848.3 620.98 1130.38 620.98 1130.38 635.1"/><polyline class="cls-4" points="848.3 649.46 848.3 635.1 1130.38 635.1 1130.38 649.46"/><polyline class="cls-4" points="848.3 667.99 848.3 649.46 1130.38 649.46 1130.38 667.99"/><polyline class="cls-4" points="848.3 673.55 848.3 667.99 1130.38 667.99 1130.38 673.55"/><line class="cls-4" x1="848.3" y1="620.97" x2="848.3" y2="606.85"/><line class="cls-4" x1="819.58" y1="606.85" x2="819.58" y2="311.34"/><line class="cls-4" x1="863.35" y1="311.34" x2="863.35" y2="606.85"/><line class="cls-4" x1="1115.09" y1="606.85" x2="1115.09" y2="311.34"/><line class="cls-4" x1="1158.86" y1="311.34" x2="1158.86" y2="606.85"/><line class="cls-4" x1="1552.8" y1="606.85" x2="1552.8" y2="311.34"/><line class="cls-4" x1="1596.57" y1="311.34" x2="1596.57" y2="606.85"/><line class="cls-4" x1="513.42" y1="311.34" x2="513.42" y2="606.85"/><rect class="cls-4" x="382.11" y="284.01" width="1214.46" height="27.33"/><line class="cls-4" x1="1596.57" y1="606.85" x2="382.11" y2="606.85"/><line class="cls-4" x1="382.11" y1="606.85" x2="382.11" y2="311.34"/><polyline class="cls-4" points="428.19 65.16 1596.57 65.16 1596.57 284.01"/><line class="cls-4" x1="1596.57" y1="606.85" x2="1596.57" y2="683.27"/><polyline class="cls-4" points="382.11 284.01 382.11 127.22 428.19 127.22 428.19 11.89 382.11 11.89 382.11 127.22"/><polyline class="cls-4" points="382.11 606.85 272.56 606.85 272.56 645.06"/></g></svg>