<svg xmlns="http://www.w3.org/2000/svg" xmlns:xlink="http://www.w3.org/1999/xlink" viewBox="0 0 1144.71 1365.08"><defs><style>.cls-1,.cls-19,.cls-5{fill:#f7faf3;}.cls-1,.cls-13,.cls-15,.cls-21,.cls-3,.cls-4,.cls-6{stroke:#064a00;}.cls-1,.cls-13,.cls-15,.cls-16,.cls-21,.cls-3,.cls-4{stroke-miterlimit:10;}.cls-1,.cls-4{stroke-dasharray:7 7;}.cls-2{fill:#add2eb;}.cls-13,.cls-15,.cls-16,.cls-21,.cls-3,.cls-4,.cls-6,.cls-8,.cls-9{fill:none;}.cls-3{stroke-dasharray:5 5;}.cls-6,.cls-8,.cls-9{stroke-linecap:round;stroke-linejoin:round;}.cls-6{stroke-width:0.5px;}.cls-17,.cls-18,.cls-20,.cls-7{fill:#064a00;}.cls-16,.cls-8,.cls-9{stroke:#0a7e00;}.cls-8{stroke-width:4px;stroke-dasharray:0 10;}.cls-9{stroke-width:2px;stroke-dasharray:0 5;}.cls-10{fill:#0a7e00;}.cls-11{clip-path:url(#clip-path);}.cls-12{fill:#f0eed8;}.cls-14{opacity:0.1;}.cls-15,.cls-16{stroke-width:5px;}.cls-16{stroke-dasharray:10 7;}.cls-17{font-size:24px;font-family:CenturyGothic-Italic, Century Gothic;font-style:italic;}.cls-18,.cls-19{font-size:21px;}.cls-18{font-family:CenturyGothic, Century Gothic;}.cls-19,.cls-20{font-family:CenturyGothic-Bold, Century Gothic;font-weight:700;}.cls-20{font-size:32px;}.cls-21{stroke-width:1.5px;}</style><clipPath id="clip-path"><rect class="cls-1" x="10.55" y="675.4" width="1123.4" height="678.04"/></clipPath></defs><title>plano navalperal de tormes</title><g id="_03_río" data-name="03 río"><g id="LWPOLYLINE"><polygon class="cls-2" points="1016.47 483.18 1023.51 481.63 1028.85 480.5 1033.94 479.46 1038.75 478.53 1043.24 477.7 1047.4 476.97 1051.25 476.34 1054.85 475.76 1058.27 475.22 1061.54 474.69 1064.73 474.15 1067.89 473.58 1071.07 472.94 1074.32 472.23 1077.65 471.44 1081.04 470.61 1084.5 469.75 1088.03 468.89 1091.6 468.03 1095.23 467.21 1098.92 466.43 1102.64 465.72 1106.43 465.06 1110.3 464.45 1114.25 463.88 1118.31 463.32 1122.5 462.79 1126.81 462.25 1131.28 461.7 1135.91 461.14 1140.65 460.55 1145.45 459.94 1150.27 459.3 1155.05 458.64 1159.74 457.96 1164.28 457.25 1168.15 456.59 1168.15 481.15 1167.79 481.29 1155.74 485.67 1147.52 488.46 1141.97 490.15 1137.93 491.22 1134.41 492.09 1131.17 492.86 1128.16 493.53 1125.33 494.12 1122.62 494.63 1119.97 495.09 1117.33 495.51 1114.65 495.88 1111.88 496.24 1109.02 496.56 1106.1 496.86 1103.14 497.12 1100.14 497.33 1097.13 497.5 1094.12 497.61 1091.13 497.67 1088.17 497.66 1085.26 497.6 1082.37 497.49 1079.52 497.34 1076.69 497.15 1073.9 496.95 1071.13 496.73 1068.38 496.51 1065.65 496.29 1062.89 496.08 1060.09 495.89 1057.18 495.74 1054.13 495.63 1050.91 495.58 1047.48 495.59 1043.79 495.68 1039.84 495.86 1035.79 496.09 1031.83 496.36 1028.15 496.64 1024.96 496.9 1022.44 497.13 1020.78 497.28 1020.19 497.33 1016.47 483.18"/></g><g id="LWPOLYLINE-2" data-name="LWPOLYLINE"><polyline class="cls-2" points="11.29 676.52 30.47 669.44 41.03 667.63 50.6 666.2 59.37 665.05 67.53 664.05 75.29 663.1 82.81 662.11 90.16 661.07 97.38 660 104.5 658.9 111.57 657.8 118.63 656.71 125.71 655.64 132.86 654.61 140.09 653.62 147.34 652.68 154.5 651.77 161.47 650.9 168.16 650.05 174.48 649.21 180.33 648.39 185.6 647.58 190.25 646.75 194.38 645.91 198.17 645.04 201.75 644.11 205.3 643.11 208.97 642.02 212.9 640.82 217.27 639.5 222.2 638.04 227.76 636.43 233.99 634.67 240.93 632.74 248.61 630.63 257.08 628.33 266.39 625.84 276.56 623.15 287.61 620.26 299.45 617.18 311.95 613.95 324.99 610.59 338.46 607.14 352.22 603.62 366.15 600.06 380.13 596.49 394.05 592.93 407.76 589.43 421.15 586 434.09 582.69 446.44 579.52 458.09 576.52 468.9 573.73 478.75 571.17 487.56 568.86 495.41 566.81 502.44 564.99 508.77 563.39 514.56 562 519.92 560.79 524.99 559.75 529.91 558.88 534.79 558.15 539.63 557.56 544.43 557.1 549.17 556.78 553.84 556.58 558.43 556.51 562.92 556.57 567.31 556.74 571.57 557.02 575.71 557.42 579.72 557.91 583.6 558.5 587.34 559.17 590.94 559.91 594.39 560.72 597.69 561.6 600.84 562.52 603.86 563.48 606.76 564.47 609.58 565.47 612.34 566.48 615.06 567.47 617.76 568.44 620.47 569.37 623.21 570.25 625.98 571.08 628.81 571.86 631.71 572.57 634.68 573.23 637.74 573.82 640.9 574.35 644.17 574.8 647.57 575.19 651.05 575.51 654.6 575.75 658.19 575.93 661.79 576.05 665.37 576.1 668.89 576.08 672.34 576.01 675.69 575.88 678.95 575.67 682.14 575.4 685.29 575.04 688.42 574.58 691.55 574.03 694.69 573.36 697.88 572.58 701.13 571.68 704.45 570.65 707.85 569.52 711.35 568.27 714.95 566.93 718.66 565.49 722.5 563.97 726.48 562.36 730.59 560.68 734.84 558.93 739.2 557.12 743.67 555.25 748.24 553.34 752.88 551.39 757.59 549.41 762.36 547.4 767.17 545.38 772.01 543.35 776.9 541.34 781.82 539.36 786.78 537.42 791.77 535.55 796.8 533.76 801.85 532.07 806.93 530.49 812.01 529.02 817.07 527.64 822.07 526.37 827 525.19 831.83 524.1 836.52 523.09 841.05 522.15 845.41 521.29 849.6 520.49 853.63 519.74 857.51 519.04 861.25 518.38 864.87 517.74 868.38 517.12 871.8 516.51 875.12 515.9 878.36 515.29 881.51 514.67 884.59 514.05 887.58 513.41 890.48 512.76 893.31 512.09 896.06 511.39 898.73 510.68 901.37 509.94 904.01 509.2 906.7 508.45 909.47 507.7 912.37 506.96 915.44 506.24 918.72 505.54 922.24 504.87 926.01 504.2 930.03 503.51 934.29 502.78 938.79 502 943.53 501.12 948.5 500.14 953.7 499.03 959.12 497.77 964.74 496.38 970.51 494.9 976.41 493.35 982.38 491.76 988.4 490.16 994.44 488.57 1000.45 487.03 1006.4 485.56 1007.75 485.24 1011.5 499.04 1007.85 500.01 1001.07 501.64 992.29 503.53 982.2 505.71 971.08 508.23 958.76 510.58 945.95 513.11 933.04 515.74 920.42 518.4 908.49 521.02 897.63 523.5 888.13 525.8 879.83 527.96 872.46 530.02 865.77 532.04 859.49 534.09 853.34 536.2 847.08 538.44 840.42 540.87 833.18 543.52 825.42 546.34 817.31 549.29 808.97 552.31 800.56 555.33 792.21 558.31 784.08 561.17 776.31 563.87 769.01 566.35 762.18 568.61 755.81 570.67 749.87 572.51 744.32 574.16 739.14 575.62 734.32 576.89 729.81 577.98 725.59 578.9 721.59 579.67 717.74 580.32 713.95 580.88 710.14 581.38 706.25 581.83 702.19 582.27 697.88 582.73 693.28 583.22 688.43 583.73 683.41 584.26 678.28 584.78 673.12 585.28 668.01 585.76 663.01 586.18 658.2 586.54 653.64 586.84 649.37 587.08 645.43 587.32 641.84 587.57 638.64 587.87 635.87 588.26 633.55 588.76 631.71 589.41 630.38 590.24 629.54 591.28 629.13 592.58 629.14 594.17 629.52 596.09 630.24 598.37 631.27 601.06 632.55 604.2 634.07 607.79 635.79 611.81 637.69 616.2 639.73 620.89 641.89 625.83 644.14 630.96 646.46 636.23 648.81 641.57 651.17 646.92 653.5 652.23 655.75 657.42 657.89 662.42 659.88 667.17 661.66 671.6 663.22 675.63 663.55 676.57 647.76 676.57 647.52 675.79 645.95 671.22 644.04 666.14 641.79 660.52 639.22 654.47 636.43 648.15 633.48 641.71 630.45 635.29 627.4 629.07 624.41 623.18 621.56 617.79 618.89 613 616.38 608.8 613.99 605.12 611.67 601.9 609.37 599.08 607.05 596.59 604.67 594.38 602.17 592.37 599.53 590.53 596.72 588.84 593.74 587.29 590.59 585.89 587.26 584.64 583.74 583.53 580.02 582.57 576.11 581.76 571.99 581.09 567.66 580.57 563.12 580.2 558.37 579.98 553.39 579.92 548.19 580.02 542.77 580.28 537.12 580.7 531.23 581.29 525.01 582.08 518.39 583.09 511.28 584.34 503.59 585.86 495.23 587.69 486.11 589.84 476.15 592.34 465.29 595.21 453.59 598.42 441.12 601.93 427.99 605.71 414.27 609.72 400.05 613.9 385.42 618.24 370.46 622.69 355.26 627.21 339.93 631.77 324.57 636.34 309.28 640.89 294.17 645.38 279.35 649.79 264.91 654.08 250.98 658.22 237.5 662.2 223.82 666.15 209.13 670.2 181.45 679.07"/></g><line class="cls-3" x1="1047.27" y1="432.08" x2="1133.96" y2="675.4"/><line class="cls-3" x1="869.43" y1="427.94" x2="10.55" y2="675.4"/><rect class="cls-4" x="862.73" y="426.65" width="186.35" height="171.87" rx="12"/></g><g id="_02_carretera" data-name="02 carretera"><g id="LWPOLYLINE-3" data-name="LWPOLYLINE"><path class="cls-5" d="M1168.15,71l-.92-.42-3-1.42-3-1.48-3.12-1.56-3.25-1.63-3.38-1.7L1148,61.05h0l-3.55-1.77h0l-3.59-1.78h0l-3.61-1.76h0L1133.6,54l0,0L1130,52.27l0,0-3.46-1.6-.06,0-3.35-1.51-.07,0-3.25-1.42-.08,0-3.14-1.32-.09,0-3-1.22-.11,0-3-1.13-.12,0-2.87-1-.13,0-2.78-.93-.15,0-2.7-.82-.19-.06-2.69-.73-.27-.07-3-.68-.26-.06-3.79-.69-.19,0-5-.75h-.12l-6.56-.87h-.07l-8.57-1h0l-11-1.26h0L1046,33.17h0l-16.91-1.84-19.41-2.09L988.58,27l-22-2.35-22.2-2.36L922.77,20l-20.18-2.15-18-1.91-15.24-1.62-12.66-1.35h0l-10.43-1.09h0L837.66,11h0l-7.07-.69h0l-5.94-.53h-.07l-5.17-.4h-.09L814.48,9h-.09l-4.66-.23h-.09L805,8.62H805l-4.56-.1h-.08l-4.49,0h-.09l-4.41,0h-.09l-4.33.09h-.1l-4.24.15h-.1L778.32,9h-.1l-4.05.27h-.08l-4,.32h-.07l-3.91.36h0l-3.88.39h0l-3.88.39-3.9.4-3.92.39-4,.37-4,.33-4.1.29-4.12.25-4.09.19-4,.12-3.91.06-3.75,0L714.91,13l-3.34-.19-3.16-.28-3-.34-2.92-.42-2.87-.48-2.84-.52-2.86-.58L691,9.55l-3-.65-3-.65h0l-3.1-.65h-.06L678.6,7h-.08l-3.19-.6-.11,0L672,5.78l-.13,0-3.28-.49-.16,0-3.31-.4-.17,0-3.35-.31h-.18L658,4.29h-.17l-3.38-.13h-.16L651,4.1h-.16l-3.35,0h-.16L644,4.27h-.16l-3.28.21h-.16l-3.21.3H637l-3.14.37-.19,0-3.08.46-.21,0-3,.56-.23,0-3,.68-.24.06-3,.79-.24.07-3,.93-.24.08-3,1.08-.24.08L611,11.31l-.23.1-3.18,1.42-.26.12-3.37,1.7-.27.14L600,16.87l-.25.15-4.11,2.58-.21.14-4.67,3.19-.16.12L585.21,27l-.12.1-6.18,4.75-.1.08-6.91,5.9-1.24,1.26-2.61,2.56L563.12,47l-4.23,4.43-3.62,3.58-3.11,2.87-2.7,2.3-2.41,1.88-2.19,1.57L542.81,65l-2.06,1.15-2.24,1.06-2.56,1-3,1.09-3.62,1.18L525,71.84l-5.07,1.5L514.11,75l-6.44,1.85-7,2L493.08,81h0l-8,2.31h0l-8.43,2.45h0l-8.79,2.58h0l-9.08,2.71h0l-9.28,2.8h0L440,96.78l-9.41,2.87-9.33,2.84-9.16,2.78L403.21,108l-8.53,2.54-8.09,2.36-7.66,2.2-7.2,2.06L365,119h0l-6.27,1.8h0l-5.8,1.7-.05,0-5.31,1.6-.09,0-4.81,1.53-.13,0-4.37,1.5-.2.07-4.14,1.58-.25.1-4.19,1.8-.24.11-4.5,2.18-.21.1-5.08,2.69-.15.08-5.95,3.35-.09,0L306,143.53l-.06,0-8.48,5.09,0,0-10,6.12h0l-11.31,6.94h0l-12.16,7.49L251.33,177l-12.65,7.78-12.27,7.52-11.49,7-10.28,6.18-8.78,5.16-7.41,4.19-6.3,3.34-5.43,2.63-4.85,2-4.56,1.62-4.6,1.32-5,1.16-5.59,1.1-6.67,1.09-8.28,1.1-10.41,1.17-13,1.27-16.15,1.4-19.77,1.58-80.13,6v6.2l7.09-.52L11,246.9l5.34-.39,4.63-.34,4-.3,3.53-.26,3.14-.23,2.85-.21,2.68-.2,2.52-.18,2.38-.18,2.27-.17,2.17-.16,2.09-.15,2-.15,2-.15,1.95-.15,1.93-.14,1.9-.14,1.88-.14,1.85-.14L64,243l1.81-.13,1.78-.14,1.75-.13,1.74-.13,1.71-.13,1.68-.13,1.67-.12,1.64-.13,1.62-.12L81,241.7l1.58-.13,1.55-.12,1.54-.11,1.51-.12,1.49-.12L90.1,241l1.45-.12,1.43-.11,1.41-.11,1.4-.11,1.37-.11,1.35-.11,1.34-.11,1.31-.1,1.3-.11,1.28-.1,1.26-.11,1.25-.1,1.23-.1,1.21-.1,1.19-.1,1.18-.1,1.16-.1,1.15-.1,1.13-.09,1.12-.1,1.1-.1,1.08-.09,1.07-.1,1.06-.09,1-.1,1-.09,1-.09,1-.09,1-.1,1-.09,1-.09.94-.09.93-.09.92-.09.91-.1.89-.09.88-.09.87-.09.86-.09.85-.09.83-.09.82-.09.82-.09.8-.1.79-.09.78-.09.77-.09.76-.1.75-.09.74-.09.73-.1.72-.09.71-.1.7-.09.69-.1.69-.1.68-.09.66-.1.66-.1.66-.1.64-.1.64-.1.63-.11.62-.1.61-.11.61-.1.6-.11.6-.11.59-.11.58-.11.58-.11.57-.11.57-.11.56-.12.55-.12.55-.11.55-.12.54-.12.54-.13.53-.12.53-.13.53-.13.52-.13.52-.13.52-.13.51-.14L165,232l.51-.14.51-.15.51-.15.51-.15.52-.16.51-.16.51-.16.52-.17.52-.17.52-.18.52-.19.53-.19.53-.19.53-.2.54-.21.55-.21.55-.22.55-.23.57-.23.57-.24.58-.25.58-.26.6-.26.6-.28.61-.28.62-.29.64-.3.64-.3.65-.32.67-.33.68-.33.69-.35.7-.36.71-.37.73-.37.75-.39.76-.4.77-.42.79-.42.8-.44.82-.45.84-.46.86-.47.87-.49.89-.5.91-.51.93-.53.95-.54,1-.55,1-.57,1-.58,1-.6,1.05-.61,1.08-.63,1.09-.65,1.12-.65,1.14-.68,1.17-.69,1.18-.7,1.21-.72,1.23-.74,1.26-.75,1.27-.76,1.3-.78,1.32-.79,1.33-.81,1.36-.82,1.37-.83,1.4-.84,1.4-.86,1.43-.86,1.44-.88,1.45-.89,1.47-.89,1.48-.9,1.5-.92,1.5-.92,1.51-.92,1.53-.94,1.53-.94,1.54-.94,1.55-1,1.56-1,1.56-1,1.57-1,1.57-1,1.57-1,1.58-1,1.57-1,1.58-1,1.58-1,1.58-1,1.58-1,1.57-1,1.57-1,1.57-1,1.56-1,1.56-1,1.55-1,1.55-.95,1.53-.94,1.53-.95,1.52-.93,1.51-.93,1.5-.92,1.48-.92,1.48-.9,1.46-.9,1.44-.89,1.43-.88,1.42-.87,1.39-.85,1.38-.85,1.37-.84,1.34-.82,1.32-.81,1.31-.79,1.28-.79,1.26-.77,1.24-.75,1.22-.74,1.19-.73,1.17-.7,1.14-.7,1.13-.67,1.09-.67,1.08-.64,1-.63,1-.62,1-.6,1-.58,1-.57.94-.56.91-.54.9-.53.88-.51.86-.51.84-.48.83-.48.8-.46.79-.45.77-.44.76-.43.74-.41.72-.4.71-.4.7-.38.68-.37.67-.36.66-.36.64-.34.64-.33.62-.33.62-.31.6-.31.6-.3.58-.29L329,138l.57-.28.56-.27.56-.26.55-.26.55-.25.54-.25.53-.24.53-.23.53-.23.53-.23.52-.22.52-.21.53-.22.52-.21.52-.2.52-.21.52-.2.52-.19.52-.2.53-.19.53-.2.53-.19.54-.19.54-.19.55-.19.55-.18.56-.19.56-.19.57-.19.58-.19.59-.19.59-.19.6-.19.6-.19.62-.2.62-.19.63-.2.64-.2.64-.19.65-.2.66-.2.67-.21.68-.2.68-.2.69-.21.7-.21.7-.21.71-.21.73-.21.72-.21.74-.22.74-.21.75-.22.76-.22.77-.22.77-.23.78-.22.79-.23.79-.23.81-.23.81-.23.81-.23.83-.24.83-.24.84-.24.85-.24.85-.24.86-.25.87-.24.88-.25.88-.26.89-.25.9-.26.9-.26.91-.26.92-.26.93-.27.93-.26.94-.27.95-.28,1-.27,1-.28,1-.28,1-.28,1-.29,1-.28,1-.29,1-.3,1-.29,1-.3,1-.3,1-.3,1-.31,1-.31,1.06-.31,1.06-.31,1.06-.32,1.07-.32,1.08-.32,1.08-.32,1.09-.33,1.09-.32,1.1-.33,1.11-.33,1.11-.34,1.11-.33,1.12-.34,1.12-.34,1.13-.34,1.13-.34,1.14-.35,1.14-.34,1.14-.35,1.15-.35,1.15-.35,1.15-.35,1.15-.35,1.16-.35,1.16-.35,1.16-.36,1.17-.35,1.16-.36,1.17-.35,1.17-.36,1.17-.36,1.17-.35,1.18-.36,1.17-.36,1.18-.36,1.17-.36,1.18-.35,1.17-.36,1.18-.36,1.17-.36,1.18-.36,1.17-.35,1.17-.36,1.17-.36,1.17-.35,1.17-.36,1.17-.35,1.17-.35,1.16-.36,1.16-.35,1.16-.35,1.16-.35,1.16-.34,1.15-.35,1.15-.35,1.14-.34,1.14-.34,1.14-.34,1.14-.34,1.13-.34,1.13-.34,1.12-.33,1.12-.33,1.11-.33,1.11-.33,1.1-.33,1.1-.32,1.1-.32,1.09-.32,1.08-.32,1.08-.32,1.07-.31,1.07-.31,1.06-.31,1.06-.31,1.05-.31,1-.3,1-.3,1-.3,1-.29,1-.3,1-.29,1-.29,1-.29,1-.28,1-.29,1-.28,1-.27,1-.28.95-.27.95-.28.94-.26.93-.27.92-.27.92-.26.91-.26.9-.25.89-.26.88-.25.87-.25.87-.25.85-.24.85-.24.84-.24.83-.24.82-.24.81-.23.8-.23.79-.23.78-.22.77-.22.76-.22.75-.22.75-.21.73-.22.72-.2.71-.21.7-.2.69-.21.67-.19.67-.2.66-.19.64-.19.64-.19.62-.19.61-.18.6-.18.59-.18.58-.17.57-.17.55-.17.55-.17.54-.17.52-.16.52-.16.5-.16.5-.16.49-.16.47-.15.47-.16.46-.15.45-.15.44-.15.44-.15.43-.15.41-.15.42-.14.4-.15.4-.15.39-.14.38-.15.38-.15.38-.14.36-.15.36-.14.36-.15.35-.15.35-.15.34-.15.33-.15.34-.15.32-.15.33-.15.32-.16L543,72l.31-.16.32-.16.31-.16.3-.16.31-.17.3-.16.31-.17.3-.17.3-.18.29-.17.3-.18.3-.19.29-.18.3-.19.3-.19.3-.2.29-.19.3-.21.3-.2.3-.21.31-.21.3-.22.31-.22.31-.23.31-.23.31-.23.32-.24.32-.24.32-.25.33-.26.33-.26.33-.26.34-.28.34-.27.35-.29.35-.29.35-.3.37-.31.36-.31.37-.33.38-.33.38-.34.39-.34.4-.36.4-.37.41-.37.41-.39.43-.39.42-.41.44-.42.45-.42.45-.44.46-.45.46-.46.48-.48.48-.48.5-.5.5-.51.51-.52.52-.54.53-.55.54-.56.55-.58.56-.59.57-.61.58-.62.59-.64.59-.64.6-.65.58-.64.58-.63.56-.62.54-.6.51-.57.48-.53.48-.53.51-.55.56-.58.64-.66.76-.74.9-.87,1.08-1,1.27-1.17,1.46-1.31,1.64-1.44,1.8-1.53,2-1.61L588,32l2.22-1.69,2.34-1.7L595,26.9l2.54-1.65,2.61-1.61,2.69-1.56,2.74-1.49,2.78-1.4,2.82-1.31,2.83-1.2,2.84-1.07,2.86-1,2.89-.85,2.91-.74,3-.64,3-.55,3.07-.45,3.14-.37,3.21-.29,3.27-.21,3.32-.13,3.36,0,3.37,0,3.38.13,3.37.22,3.35.32,3.32.4,3.27.48,3.24.54,3.19.6,3.15.63,3.1.65,3,.65,3,.65,3,.62,2.94.59,2.95.55,3,.5,3.08.43,3.19.37,3.34.29,3.52.21,3.71.11,3.89,0,4-.06,4.12-.13,4.17-.19,4.2-.25,4.17-.3,4.12-.34,4-.37,3.95-.39,3.91-.4,3.88-.39,3.89-.39,3.91-.35,4-.32,4-.27,4.14-.21,4.25-.15,4.33-.09,4.41,0,4.48,0,4.55.1,4.61.17,4.66.23,4.77.31L824,16l5.94.53,7.07.69,8.58.87L856,19.19l12.65,1.34,15.24,1.62,18,1.92,20.18,2.14,21.57,2.29,22.2,2.37,22,2.35,21.1,2.26,19.4,2.09,16.91,1.84,13.84,1.53,11,1.26,8.57,1,6.56.86,5,.75,3.79.69,3,.69,2.69.73,2.7.83,2.78.93,2.87,1,3,1.12,3,1.23,3.15,1.32,3.25,1.42,3.35,1.51,3.45,1.61,3.54,1.67,3.58,1.73,3.6,1.76,3.6,1.78,3.55,1.77,3.47,1.74,3.38,1.7,3.26,1.64,3.15,1.57,3.08,1.51,3,1.44,3,1.39.58.26Z"/></g></g><g id="_02_puente" data-name="02 puente"><g id="LWPOLYLINE-4" data-name="LWPOLYLINE"><polyline class="cls-6" points="1012.54 517.52 1015.06 513 1011.01 497.64 1006.97 482.29 1002.56 479.59"/></g><g id="LWPOLYLINE-5" data-name="LWPOLYLINE"><polyline class="cls-6" points="1028.13 513.42 1023.71 510.72 1019.67 495.36 1015.63 480.01 1018.14 475.48"/></g></g><g id="_01_pueblo" data-name="01 pueblo"><g id="LWPOLYLINE-6" data-name="LWPOLYLINE"><polygon class="cls-7" points="196.51 230.54 196.41 235.57 200.49 235.65 199.18 239.69 193.9 238.38 193.29 243.1 209.18 248.33 210.63 243.94 204.24 241.84 206.16 237.13 202.19 236.22 202.49 230.84 196.51 230.54"/></g><g id="LWPOLYLINE-7" data-name="LWPOLYLINE"><polygon class="cls-7" points="211.8 230.59 210.44 237.98 218.94 240.84 214.66 249.79 223.21 253.51 229.81 241.07 235.66 240.11 248.99 239.36 249.74 233.83 249.74 228.22 243.21 228.81 236.8 229.07 230.49 230.12 230.18 233.74 221.77 231.06 211.8 230.59"/></g><g id="LWPOLYLINE-8" data-name="LWPOLYLINE"><polyline class="cls-7" points="221.61 263.09 226.41 265.42 229.73 258.58 224.61 256.55 221.61 263.09"/></g><g id="LWPOLYLINE-9" data-name="LWPOLYLINE"><polygon class="cls-7" points="237.33 257.53 246.94 263.22 250.51 258.12 260.63 263.56 265.9 255.49 270.91 257.53 273.63 253.02 267.19 249.13 265.98 253.28 257.9 250.99 255.18 256.42 250.8 254.23 254.84 246.14 264.11 248.1 265.56 238.41 252.97 235.18 249.15 243.51 245.08 241.64 243.37 245.37 246.6 247.84 246.6 251.32 242.52 249.37 237.33 257.53"/></g><g id="LWPOLYLINE-10" data-name="LWPOLYLINE"><polygon class="cls-7" points="255.83 225.23 256.09 231.72 266.56 231.38 265.98 219.59 259.64 219.8 259.78 225.06 255.83 225.23"/></g><g id="LWPOLYLINE-11" data-name="LWPOLYLINE"><polygon class="cls-7" points="210.05 217.59 211.73 224.67 218.27 222.89 216.27 215.7 210.05 217.59"/></g><g id="LWPOLYLINE-12" data-name="LWPOLYLINE"><rect class="cls-7" x="237.61" y="173.68" width="7.43" height="5.84" transform="translate(-57.05 156.61) rotate(-32.36)"/></g><g id="LWPOLYLINE-13" data-name="LWPOLYLINE"><polygon class="cls-7" points="206.52 182.48 207.57 190.47 215.39 189.45 214.32 181.23 206.52 182.48"/></g><g id="LWPOLYLINE-14" data-name="LWPOLYLINE"><polygon class="cls-7" points="247.57 157.12 249.29 162.91 256.92 161.24 254.58 153.67 247.57 157.12"/></g><g id="LWPOLYLINE-15" data-name="LWPOLYLINE"><polygon class="cls-7" points="261.71 117.17 261.26 123.39 257.9 123.39 258.96 130.61 266.69 129.99 266.36 125.78 274.03 125.78 273.13 120.08 261.71 117.17"/></g><g id="LWPOLYLINE-16" data-name="LWPOLYLINE"><polygon class="cls-7" points="285.26 128.02 285.69 135.52 297.1 135.3 298.43 142.47 306.27 140.48 303.37 129.2 285.26 128.02"/></g><g id="LWPOLYLINE-17" data-name="LWPOLYLINE"><polygon class="cls-7" points="344.8 109.25 345.09 113.13 347.6 113.3 348.57 120.95 355.25 120.11 354.06 112.56 350.99 112.72 350.61 108.8 344.8 109.25"/></g><g id="LWPOLYLINE-18" data-name="LWPOLYLINE"><polygon class="cls-7" points="235.77 206.73 236.57 214.29 240.24 213.99 240.33 215.05 246.59 214.33 246.46 213.3 250 213.02 248.85 204.93 244.73 205.26 244.84 206.51 239.66 206.99 239.58 206.13 235.77 206.73"/></g><g id="LWPOLYLINE-19" data-name="LWPOLYLINE"><polygon class="cls-7" points="251.05 196.88 251.41 205.28 259.59 204.94 259.22 196.59 251.05 196.88"/></g><g id="LWPOLYLINE-20" data-name="LWPOLYLINE"><polyline class="cls-7" points="243.71 219.84 244.32 224.85 252.4 223.35 254.73 220.92 256.75 218.18 254.73 210.27 250.22 211.43 251.71 217.03 251.38 217.96 243.71 219.84"/></g><g id="LWPOLYLINE-21" data-name="LWPOLYLINE"><polyline class="cls-7" points="268.94 220.26 270.88 226.61 289.47 219.99 290.21 221.13 295.41 220.16 295.33 218.81 306.15 214.49 314.69 212.48 323.03 212.48 321.08 202.93 318.7 203.43 317.14 198.83 311.23 200.84 303.43 204.23 295.8 208.7 293.1 210.06 293.89 213.28 289.27 214.17 288.21 212.09 277.98 216.8 268.94 220.26"/></g><g id="LWPOLYLINE-22" data-name="LWPOLYLINE"><polygon class="cls-7" points="343.61 209.98 348.65 208.81 348.13 206.59 356.51 203.94 356.22 203.16 361.06 198.8 355.75 195.14 348.96 192.45 345.46 192.28 345.63 196.63 346.62 196.63 347.21 201.28 345.7 201.59 341.37 202.26 342.39 208.89 337.96 209.47 336.95 201.2 344.67 199.76 344.16 197.03 343.55 197.15 343.27 192.16 334.8 193.16 334.9 194 326.41 195.3 326.51 195.96 322.76 196.81 323.13 203.36 324.01 208.19 325.85 218.05 332.45 216.28 331.91 211.18 333.95 210.91 334.61 215.84 339.2 215.23 339.12 212.54 343.89 211.81 343.61 209.98"/></g><g id="LWPOLYLINE-23" data-name="LWPOLYLINE"><polygon class="cls-7" points="352.35 207.29 351.76 208.75 351.76 211.27 357.91 211.47 358 207.12 352.35 207.29"/></g><g id="LWPOLYLINE-24" data-name="LWPOLYLINE"><polyline class="cls-7" points="363.04 199.09 364.03 205.56 368.93 205.56 369.29 209.83 365.33 209.83 365.33 213.97 370.32 213.97 370.06 209.92 376.49 210.46 379.27 210.46 382.46 209.53 385.23 209.33 388.01 201.97 383.58 199.98 376.52 198.36 372.13 197.77 367.83 197.77 364.67 197.77 363.04 199.09"/></g><g id="LWPOLYLINE-25" data-name="LWPOLYLINE"><polyline class="cls-7" points="374.09 214.56 376.32 223.33 381.69 219.38 386.88 214.37 387.38 211.78 385.33 210.37 379.1 212.24 374.09 214.56"/></g><g id="LWPOLYLINE-26" data-name="LWPOLYLINE"><polyline class="cls-7" points="404.86 206.54 405.15 213.68 420.92 213.03 420.97 211.77 428.63 211.08 427.71 204.44 419.9 205.31 419.97 205.91 404.86 206.54"/></g><g id="LWPOLYLINE-27" data-name="LWPOLYLINE"><polygon class="cls-7" points="432.51 206.92 434.85 214.3 441.51 212.19 439.22 204.95 432.51 206.92"/></g><g id="LWPOLYLINE-28" data-name="LWPOLYLINE"><polygon class="cls-7" points="468.09 212.29 470.57 218.5 479.81 214.83 477.28 208.47 468.09 212.29"/></g><g id="LWPOLYLINE-29" data-name="LWPOLYLINE"><polygon class="cls-7" points="442.51 208.99 444.57 214.86 461.48 208.93 459.29 203.11 442.51 208.99"/></g><g id="LWPOLYLINE-30" data-name="LWPOLYLINE"><polygon class="cls-7" points="453.38 224.81 454.51 227.99 470.31 221.87 469.12 218.79 453.38 224.81"/></g><g id="LWPOLYLINE-31" data-name="LWPOLYLINE"><polyline class="cls-7" points="509.8 208.76 515.9 213.1 519.31 208.52 521.51 206.61 516.11 201.64 513.52 204.45 512.67 203.88 509.8 208.76"/></g><g id="LWPOLYLINE-32" data-name="LWPOLYLINE"><polygon class="cls-7" points="267.89 198.2 270.86 203.98 272.62 203.45 274.05 206.64 276.66 205.47 278.63 213.45 292.42 207.12 308.29 199.14 315.37 195.58 315.11 194.53 317.34 193.26 317.04 187.29 312.97 187.89 305.79 189.76 306.43 191.06 291.37 197.6 290.84 197.84 293.87 205.51 292.2 206.37 288.23 197.48 287.35 195.54 288.95 194.82 286.19 186.98 284.45 187.39 283.59 183.73 279.43 184.71 280.38 188.76 278.3 189.87 271.17 193.19 267.89 198.2"/></g><g id="LWPOLYLINE-33" data-name="LWPOLYLINE"><polygon class="cls-7" points="317.95 182.63 319.26 192.22 324.91 191.06 325.15 192.28 332.6 190.76 332.28 189.4 338.05 188.51 338.05 181.95 338.92 181.67 337.05 172.48 331.28 173.86 325.61 174.59 318.35 174.66 317.95 182.63"/></g><g id="LWPOLYLINE-34" data-name="LWPOLYLINE"><polygon class="cls-7" points="337.19 168.25 340.21 176.7 341.72 187.34 346.92 186.61 346.52 180.32 349.2 180.04 348.36 173.35 350.65 172.57 350.2 170.73 354.14 169.44 354.64 170.95 358.97 169.12 356.11 163.09 352.08 161.36 349.56 161.8 337.19 168.25"/></g><g id="LWPOLYLINE-35" data-name="LWPOLYLINE"><polyline class="cls-7" points="359.62 171.11 355.18 172.6 356.75 179.21 355.01 179.62 356.69 186 362.94 184.35 361.12 176.7 359.62 171.11"/></g><g id="LWPOLYLINE-36" data-name="LWPOLYLINE"><polygon class="cls-7" points="357.3 186.99 359.39 193.65 366.67 191.73 364.52 184.85 357.3 186.99"/></g><g id="LWPOLYLINE-37" data-name="LWPOLYLINE"><polyline class="cls-7" points="368.59 186.9 366.6 187.5 368.63 192.84 377.2 189.46 380.37 185.44 380.8 182.2 379.11 175.16 376.94 172.08 371.29 172.43 370.54 169.57 369.75 165.24 375.88 164.1 376.41 166.93 375.65 169.02 380.92 172.91 385.78 168.33 389.56 165.24 389.22 156.37 380.46 156.89 374.76 156.55 369.88 157.34 363.72 158.33 356.95 159.63 357.78 162.18 360.15 168.64 362.23 175.29 363.73 174.91 365.11 178.82 367.97 178.02 370.51 177.52 371.74 180.41 371.99 182.98 367.94 183.34 368.59 186.9"/></g><g id="LWPOLYLINE-38" data-name="LWPOLYLINE"><polyline class="cls-7" points="379.24 188.8 379.96 191.64 382.14 196.18 394.25 198.47 394.12 192.73 401.57 192.73 401.08 199.14 404.92 200.03 407.11 198.28 407.56 194.57 403.09 193.95 403.37 190.29 406.55 190.53 406.46 191.77 408.36 191.94 409.05 181.12 400.15 180.14 399.93 182.16 395.97 182.16 395.73 185.67 391.98 185.67 391.89 187.02 384.65 187.29 384.19 185.93 379.24 188.8"/></g><g id="LWPOLYLINE-39" data-name="LWPOLYLINE"><polyline class="cls-7" points="380.68 175.7 381.39 178.88 382.98 179.42 383.64 178.59 387.42 181.06 386.83 185.46 391.19 185.26 392.42 181.99 391.73 180.06 392.16 179.17 395.47 179.29 395.55 177.21 404.24 177.61 404.24 178.99 408.93 179.16 409.19 171.76 407.15 166.74 402.37 167.65 398.7 158.04 393.15 160.16 391.92 161.77 390.96 164.9 390.88 169.23 391.89 169.96 393.35 174.03 391.73 173.95 390.96 172.34 386.49 169.64 380.68 175.7"/></g><g id="LWPOLYLINE-40" data-name="LWPOLYLINE"><polyline class="cls-7" points="410.87 178.71 410.01 195.46 413.02 195.98 413.02 201.67 420.23 201.67 419.31 197.68 426.9 195.39 428.67 199.91 434.11 198.01 432.47 193.3 438.69 191.14 440.98 196.64 451.78 191.73 452.31 192.89 455.81 191.3 452.74 184.53 449.49 181.91 444.71 175.5 443.34 173.28 435.15 176.19 436.15 178.99 433.77 180.13 434.67 182.36 424.1 186.08 423.56 180.46 420.01 176.78 416.85 177.63 418.75 182.77 415.65 183.92 414.54 177.7 410.87 178.71"/></g><g id="LWPOLYLINE-41" data-name="LWPOLYLINE"><polygon class="cls-7" points="401.29 153.22 405.79 163.63 416.28 159.73 415.54 157.72 419.65 156.21 420.84 154.66 421.21 153.42 421.39 151.73 420.68 150.3 418.8 149.24 416.38 149.42 414.63 149.71 412.84 150.37 412.2 148.61 401.29 153.22"/></g><g id="LWPOLYLINE-42" data-name="LWPOLYLINE"><polygon class="cls-7" points="420.6 165.41 421.27 167.18 411.46 170.12 413.4 175.76 417.15 174.48 416.77 173.37 420.37 172.17 420.72 173.24 424.99 171.92 425.78 174.49 431.02 173.24 430.78 172.25 435.33 171.88 434.65 164.31 428.44 164.87 425.66 165.13 425.05 163.73 423.34 159.23 418.89 160.91 420.6 165.41"/></g><g id="LWPOLYLINE-43" data-name="LWPOLYLINE"><polyline class="cls-7" points="457.68 195.22 460.25 199.24 466.98 195.84 468.09 199.38 478.36 198.89 478.51 202.02 487.66 202.57 487.34 203.72 493.91 206.16 494.93 203.42 495.22 199.29 491.45 199.11 491.66 183.32 489.57 183.25 489.16 179.57 485.42 180.02 483.28 176.18 476.82 180.98 468.45 186.69 469.09 187.63 457.68 195.22"/></g><g id="LWPOLYLINE-44" data-name="LWPOLYLINE"><polygon class="cls-7" points="496.13 192.34 496.08 197.8 497.71 197.8 497.71 201.05 503.3 201.09 503.3 194.32 500.31 194.32 500.22 192.34 496.13 192.34"/></g><g id="LWPOLYLINE-45" data-name="LWPOLYLINE"><polygon class="cls-7" points="396.65 137.36 399.57 144.06 413.25 138.43 409.61 131.38 396.65 137.36"/></g><g id="LWPOLYLINE-46" data-name="LWPOLYLINE"><polygon class="cls-7" points="393.44 126.04 395.01 130.17 406.72 125.73 403.77 118.57 395.15 121.56 396.27 124.77 393.44 126.04"/></g><g id="LWPOLYLINE-47" data-name="LWPOLYLINE"><polygon class="cls-7" points="431.93 145.61 423.69 145.61 423.55 155.06 429.26 155.06 427.45 158 428.27 159.98 431.26 163.01 435.06 162.55 434.69 155.11 432.36 155.05 432.36 152.53 434.6 152.53 434.51 150.41 438.07 150.41 439.04 152.47 442.53 151.68 442.81 152.89 439.95 153.87 440.91 156.67 439.8 158.76 439.9 163.33 439.92 164.21 441.07 164.55 445.16 162.77 443.34 159.53 445.55 158.35 447.89 162.73 454.29 159.32 450.32 152.01 448.06 150.34 450.57 148.86 446.43 138.89 438.9 142.01 438.58 141.35 435.84 142.67 436.9 144.88 431.93 145.61"/></g><g id="LWPOLYLINE-48" data-name="LWPOLYLINE"><polygon class="cls-7" points="490.11 169.59 491.77 174.57 498.21 172.42 496.45 167.4 490.11 169.59"/></g><g id="LWPOLYLINE-49" data-name="LWPOLYLINE"><polygon class="cls-7" points="324.27 149.13 326.77 157.8 328.49 157.31 329.61 161.16 334.13 159.79 330.97 149.5 329.15 150.05 328.54 148.08 324.27 149.13"/></g><g id="LWPOLYLINE-50" data-name="LWPOLYLINE"><polyline class="cls-7" points="331.03 139.69 332.95 147.07 334.2 146.7 336.7 157.88 338.93 157.38 341.04 163.68 347.15 160.74 352.44 158.83 355.86 157.72 360.61 156.8 359.33 150.22 354.74 151.11 353.71 144.58 342.16 145.23 341.82 143.61 338.73 144.28 337.09 138.1 331.03 139.69"/></g><g id="LWPOLYLINE-51" data-name="LWPOLYLINE"><polygon class="cls-7" points="343.04 134.01 345.05 140.88 358.78 136.84 359.01 137.61 367.44 135.06 367.09 133.89 371.74 132.48 372.17 133.92 377.81 132.15 377.13 129.97 386.25 127.3 384.64 122.07 343.04 134.01"/></g><g id="LWPOLYLINE-52" data-name="LWPOLYLINE"><polygon class="cls-7" points="474.59 152.82 478.24 160.24 482.69 158.06 483.49 159.69 486.93 158 481.9 147.58 474.59 152.82"/></g><g id="LWPOLYLINE-53" data-name="LWPOLYLINE"><polygon class="cls-7" points="449.59 177.37 453.56 182.11 455.09 185.16 457.44 183.98 455.7 180.2 457.15 178.82 453.18 174.47 449.59 177.37"/></g><g id="LWPOLYLINE-54" data-name="LWPOLYLINE"><polygon class="cls-7" points="447.12 154.61 448.74 157.91 451.8 156.33 450.09 153.03 447.12 154.61"/></g><g id="LWPOLYLINE-55" data-name="LWPOLYLINE"><polygon class="cls-7" points="503.7 128.91 503.13 140.49 504.05 140.43 502.96 145.5 500.99 145.5 500.94 152.39 499.28 156.69 504.26 157 504.78 152.75 509.02 152.96 509.02 156.01 513.64 156.01 513.64 152.13 517.26 152.13 517.73 153.84 525.24 149.13 524.57 146.33 516.12 146.18 516.12 147.47 509.44 146.69 510.19 140.25 511.13 128.03 503.7 128.91"/></g><g id="LWPOLYLINE-56" data-name="LWPOLYLINE"><polygon class="cls-7" points="514.04 127.87 514.14 133.32 521.57 132.81 521 127.25 514.04 127.87"/></g><g id="LWPOLYLINE-57" data-name="LWPOLYLINE"><polygon class="cls-7" points="267.68 270.93 274.02 275.73 280.67 266.95 274.38 262.19 267.68 270.93"/></g></g><g id="_04_camino" data-name="04 camino"><g id="POLYLINE"><polyline class="cls-8" points="958.75 485.66 950.39 488.03 942.75 490.28 935.93 491.93 928.11 493.95 920.28 495.69 912.69 496.62 905.34 497.41 898.28 498.07 891.56 498.58 885.22 498.94 879.27 499.14 873.67 499.18 868.35 499.05 863.22 498.76 858.21 498.31 853.24 497.68 848.24 496.89 843.13 495.94 837.86 494.81 832.45 493.54 826.95 492.14 821.38 490.63 815.81 489.03 810.27 487.36 804.81 485.65 799.46 483.9 794.27 482.14 789.26 480.41 784.47 478.72 779.9 477.12 775.58 475.62 771.54 474.25 767.8 473.05 764.38 472.05 761.3 471.25 758.5 470.63 755.95 470.12 753.58 469.67 751.33 469.23 749.16 468.74 747.01 468.15 744.83 467.4 742.57 466.45 740.23 465.31 737.82 464 735.35 462.54 732.83 460.96 730.26 459.27 727.66 457.5 725.04 455.67 722.4 453.8 719.71 451.91 716.96 450.01 714.1 448.14 711.11 446.29 707.97 444.5 704.64 442.77 701.1 441.14 697.33 439.6 693.37 438.11 689.27 436.62 685.08 435.07 680.86 433.42 676.65 431.59 672.5 429.55 668.47 427.24 664.6 424.61 660.85 421.68 657.21 418.49 653.62 415.05 650.07 411.4 646.51 407.56 642.92 403.57 639.25 399.46 635.48 395.25 631.63 390.97 627.73 386.66 623.81 382.35 619.89 378.08 616.02 373.88 612.21 369.77 608.5 365.8 604.9 361.99 601.45 358.33 598.13 354.81 594.98 351.4 591.98 348.11 589.16 344.9 586.52 341.77 584.07 338.7 581.82 335.68 579.76 332.7 577.87 329.78 576.14 326.92 574.55 324.12 573.1 321.38 571.76 318.72 570.52 316.14 569.37 313.63 568.31 311.2 567.34 308.82 566.44 306.5 565.62 304.21 564.88 301.95 564.22 299.71 563.62 297.48 563.09 295.24 562.58 293.01 562.06 290.79 561.46 288.59 560.75 286.41 559.89 284.25 558.82 282.14 557.51 280.07 555.91 278.04 554.07 276.05 552.03 274.08 549.83 272.12 547.52 270.15 545.14 268.17 542.75 266.14 540.39 264.07 538.09 261.93 535.85 259.65 533.67 257.18 531.53 254.44 529.42 251.36 527.34 247.88 525.28 243.93 523.22 239.44 518.87 231.18 508.88 218.59"/></g><g id="POLYLINE-2" data-name="POLYLINE"><polyline class="cls-8" points="958.75 485.66 969.83 482.73 978.68 480.42 985.6 478.67 990.89 477.41 994.84 476.59 997.76 476.13 999.94 475.96 1001.68 476.04 1003.23 476.3 1004.66 476.76 1005.99 477.46 1007.23 478.43 1008.41 479.71 1009.55 481.33 1010.68 483.32 1011.8 485.71 1012.94 488.52 1014.07 491.67 1015.15 495.06 1016.14 498.59 1017.02 502.15 1017.74 505.65 1018.28 508.99 1018.6 512.06 1018.61 514.8 1018.05 517.28 1016.62 519.57 1014.01 521.77 1009.9 523.99 1003.99 526.3 995.97 528.81 985.54 531.61"/></g><g id="POLYLINE-3" data-name="POLYLINE"><polyline class="cls-9" points="188.23 222.06 189.86 224.11 191.54 225.7 193.3 226.88 195.15 227.72 197.12 228.29 199.21 228.64 201.44 228.83 203.84 228.93 206.4 228.98 209.11 229 211.93 229 214.8 228.96 217.69 228.89 220.57 228.79 223.4 228.67 226.13 228.51 228.73 228.34 231.2 228.14 233.53 227.92 235.74 227.68 237.82 227.44 239.78 227.19 241.61 226.93 243.32 226.67 244.91 226.42 246.39 226.17 247.75 225.91 249 225.63 250.14 225.35 251.17 225.04 252.11 224.71 252.94 224.34 253.68 223.95 254.34 223.52 254.91 223.08 255.42 222.62 255.87 222.16 256.27 221.71 256.64 221.26 256.97 220.84 257.28 220.44 257.58 220.08 257.91 219.74 258.27 219.42 258.68 219.14 259.17 218.88 259.76 218.66 260.45 218.46 261.27 218.29 262.21 218.14 263.23 218 264.32 217.88 265.46 217.76 266.62 217.64 267.79 217.51 268.94 217.37 270.07 217.2 271.21 217 272.4 216.72 273.69 216.37 275.13 215.91 276.77 215.32 278.65 214.57 280.82 213.66 283.31 212.57 286.05 211.32 288.98 209.96 292.02 208.51 295.09 207.04 298.12 205.56 301.03 204.12 303.75 202.76 306.23 201.51 308.5 200.37 310.61 199.32 312.61 198.36 314.57 197.47 316.55 196.65 318.58 195.88 320.73 195.15 323.04 194.46 325.48 193.8 328 193.19 330.55 192.65 333.09 192.16 335.57 191.75 337.93 191.43 340.15 191.2 342.17 191.06 344.01 191.02 345.69 191.07 347.24 191.19 348.68 191.4 350.03 191.68 351.31 192.02 352.56 192.41 353.78 192.87 354.99 193.35 356.22 193.85 357.48 194.35 358.77 194.84 360.12 195.28 361.55 195.68 363.06 196 364.66 196.24 366.35 196.41 368.11 196.53 369.93 196.62 371.78 196.7 373.65 196.8 375.53 196.92 377.4 197.09 379.24 197.32 381.06 197.61 382.87 197.96 384.68 198.34 386.48 198.75 388.3 199.19 390.12 199.63 391.97 200.08 393.85 200.52 395.74 200.94 397.63 201.35 399.51 201.74 401.35 202.11 403.15 202.44 404.88 202.75 406.55 203.02 408.13 203.25 409.69 203.44 411.3 203.58 413.03 203.66 414.94 203.7 417.12 203.67 419.62 203.59 422.53 203.44 425.88 203.22 429.6 202.95 433.6 202.67 437.79 202.38 442.08 202.11 446.37 201.88 450.56 201.72 454.57 201.65 458.32 201.69 461.82 201.82 465.08 202.04 468.15 202.34 471.04 202.7 473.77 203.11 476.38 203.56 478.9 204.04 481.33 204.54 483.69 205.05 485.96 205.59 488.13 206.15 490.2 206.74 492.17 207.37 494.02 208.03 495.75 208.74 497.35 209.49 498.86 210.29 500.28 211.17 501.67 212.13 503.03 213.18 504.41 214.34 505.83 215.62 507.31 217.03 508.88 218.59 510.56 220.37 509.83 219.97"/></g><path class="cls-10" d="M954.67,577.74C937.24,552.46,934,549.86,934,540.58a23,23,0,0,1,46.08,0c0,9.28-3.23,11.88-20.67,37.16a2.89,2.89,0,0,1-4.74,0ZM957,550.18a9.6,9.6,0,1,0-9.6-9.6A9.6,9.6,0,0,0,957,550.18Z"/><circle class="cls-10" cx="190.21" cy="223.93" r="3.62"/></g><g id="zoom"><rect class="cls-5" x="10.55" y="675.4" width="1123.4" height="678.04"/><g class="cls-11"><path class="cls-12" d="M705.32,915.88l53.62,226.33-12.33,2.92L693,918.8l-4.33-6.26-4.24-4.95-4.14-3.78-4.06-2.8-3.94-2-3.84-1.3-3.73-.81-3.61-.49-3.54-.29-3.68-.08-4.11.14-4.82.4-5.82.71-7,1-8.6,1.37-10.39,1.76-12.37,2.15-14.06,2.49-15.33,2.75-16.24,2.9-16.71,3-16.81,3-16.49,2.88-15.79,2.69-14.82,2.46L460.37,928l-13.78,2.14-13.86,2.08-14.34,2.07-15.21,2.18-16.45,2.32-18.12,2.53-20.4,2.88L324,947.73l-29.86,4.59-37.28,6-46.48,7.85-57.46,10L82.63,988.91-2.18,1004.5-4.48,992l84.81-15.61h0l70.24-12.63h.06l57.47-10h.07l46.49-7.86h.08l37.27-6h.1L322,935.17l.1,0,24.23-3.54h.07l20.4-2.87L385,926.18l24.76-12.56,19-9.68,14.51-7.52,11.26-6,9.29-5.25,8.56-5.14,9.1-5.74,10.89-7,4.88,11.8-10.08,5.47-.09.06-8.85,5.58-.22.14-8.39,5-.28.16-9.17,5.17-.23.12-11.19,6-.14.07-14.47,7.5-.06,0-13.19,6.72,10-1.46,13.8-2.07,13.72-2.12,14-2.25,14.76-2.46L502.91,908l16.47-2.87,16.78-3,16.71-3,16.22-2.91,15.34-2.73,14.07-2.49h0l12.37-2.15a.1.1,0,0,1,.07,0l10.39-1.76h.12l8.59-1.38.19,0,7.06-1,.3,0,5.8-.69.46,0,4.82-.39a4.3,4.3,0,0,1,.62,0l4.12-.15h.73l3.7.09.72,0,3.53.28.68.08,3.6.48c.34,0,.69.11,1,.18l3.73.81a13.73,13.73,0,0,1,1.39.4l3.84,1.3a12.23,12.23,0,0,1,1.58.66l3.94,2a10.91,10.91,0,0,1,1.55.92l4.06,2.79a13.88,13.88,0,0,1,1.35,1.08l4.15,3.78a14.19,14.19,0,0,1,1.08,1.11l4.23,4.93c.29.34.56.69.82,1.06Z"/><g id="LWPOLYLINE-58" data-name="LWPOLYLINE"><path class="cls-12" d="M471.13,777.74l23,97a6.9,6.9,0,0,0,8.31,5.12L679.85,838a6.9,6.9,0,0,0,5.14-8.3l-23-97a6.91,6.91,0,0,0-8.32-5.12l-177.43,41.9A6.89,6.89,0,0,0,471.13,777.74Z"/></g><polygon class="cls-2" points="1147.38 812.17 1162.56 896.29 1133.01 904.7 1104.97 911.89 1078.52 918 1053.8 923.11 1030.89 927.36 1009.93 930.84 991.01 933.68 974.27 935.99 959.68 937.89 946.79 939.47 935.05 940.85 923.88 942.13 912.73 943.44 901.02 944.84 888.2 946.48 873.7 948.45 857.09 950.84 838.54 953.69 818.34 957.04 796.79 960.88 774.2 965.26 750.85 970.2 727.04 975.73 724.49 976.38 715.47 938.27 716.33 938.04 738.9 931.57 761.63 924.82 784.27 917.92 806.59 910.98 828.32 904.1 849.23 897.42 869.08 891.05 887.7 885.07 905.28 879.45 922.09 874.15 938.38 869.11 954.42 864.27 970.49 859.6 986.85 855.01 1003.75 850.47 1021.39 845.92 1039.62 841.35 1058.17 836.72 1076.8 832.03 1095.29 827.24 1113.38 822.36 1130.82 817.33 1147.38 812.17"/><path class="cls-2" d="M694.16,944.13l8.92,37.72c-47.39,10.08-94.8,20.17-142.13,30.62q-104.15,23-207.82,47.9c-40.77,9.7-81.49,19.53-121.63,32.11-32.44,10.15-64.49,22.08-97.64,28.3-35.55,6.65-72.33,6.7-108.55,10.34-13.14,1.31-26.2,3.1-39.27,4.89L.76,1078.32C30,1075.73,59.24,1073.13,88,1068c34-6.08,67.47-15.73,101.45-22.31,48.65-9.42,98.44-12.55,147.28-20.68,74.59-12.4,147-36.44,220.9-52.79,42.6-9.42,85.7-16.3,128.18-26.12Z"/><g id="LWPOLYLINE-59" data-name="LWPOLYLINE"><polyline class="cls-13" points="700.01 991.77 703.88 985.2 698.49 962.45 693.1 939.7 686.69 935.56"/></g><g id="LWPOLYLINE-60" data-name="LWPOLYLINE"><polyline class="cls-13" points="731.79 984.27 725.38 980.13 719.99 957.38 714.6 934.62 718.47 928.05"/></g></g><rect class="cls-4" x="10.55" y="675.4" width="1123.4" height="678.04"/></g><g id="zoom_anotaciones" data-name="zoom anotaciones"><g id="LWPOLYLINE-61" data-name="LWPOLYLINE" class="cls-14"><path class="cls-10" d="M365.82,1103.92l35.72,143c1.49,6.31,102.2,14.11,108.52,12.61l210.73-53a11.75,11.75,0,0,0,8.73-14.14l-39.08-165.23a11.74,11.74,0,0,0-14.14-8.73l-301.75,71.37A11.75,11.75,0,0,0,365.82,1103.92Z"/></g><path class="cls-7" d="M599.7,772.85H556.21a5.93,5.93,0,0,0-5.93,5.94v43.49a5.93,5.93,0,0,0,5.93,5.93H599.7a5.94,5.94,0,0,0,5.93-5.93V778.79A5.94,5.94,0,0,0,599.7,772.85Zm-19.77,35.59H574v5.93a2,2,0,0,1-2,2h-3.95a2,2,0,0,1-2-2V786.69a2,2,0,0,1,2-2h11.86a11.86,11.86,0,0,1,0,23.72Zm0-15.82H574v7.91h5.93a4,4,0,0,0,0-7.91Z"/><path class="cls-7" d="M736.11,1303.37a4,4,0,1,0,7.67,1.92l3.12-12.47-6.52-6.52-4.27,17.07Zm1.84-24.23,5.08-19.66a1.92,1.92,0,0,0-1.47-2.35,10.16,10.16,0,0,0-12.27,7.06l-3.12,12.13a1.94,1.94,0,0,0,1.47,2.35l7.85,1.89A2,2,0,0,0,738,1279.14Zm33.63-14.34h-2a2,2,0,0,0-2,2v2h-4.29l-5.78-5.78a7.26,7.26,0,0,0-12.18,3.37L742,1279.65a4,4,0,0,0,1,3.76l10.7,10.7v10.22a4,4,0,1,0,7.91,0v-10.22a7.86,7.86,0,0,0-2.31-5.59l-5.79-5.79c0-.06.06-.11.08-.17l2.45-9.83,2.78,2.77a3.94,3.94,0,0,0,2.79,1.16h5.93v29.65a2,2,0,0,0,2,2h2a2,2,0,0,0,2-2v-39.54A2,2,0,0,0,771.58,1264.8Zm-15.82-7.91a5.93,5.93,0,1,0-5.93-5.93A5.93,5.93,0,0,0,755.76,1256.89Z"/><line class="cls-15" x1="739.67" y1="1331.88" x2="794.56" y2="1319.05"/><polygon class="cls-7" points="793.99 1329.43 808.54 1315.79 789.45 1310.01 793.99 1329.43"/><g id="LWPOLYLINE-62" data-name="LWPOLYLINE"><polygon class="cls-10" points="578.83 1221.18 579.33 1196.17 555.79 1160.61 401.9 1167.83 401.9 1160.09 394.95 1159.33 389.87 1159.62 389.89 1175.41 360.2 1196.04 360.25 1199.99 363.25 1199.98 363.42 1243.12 349.03 1242.5 345.93 1242.71 345.88 1247.51 345.93 1247.51 345.93 1252.31 407.31 1255.71 407.31 1256.2 445.15 1258.32 456.05 1256.93 525.13 1262.33 578.19 1253.13 578.83 1221.18"/></g><polyline class="cls-16" points="701.08 925.13 757.23 1162.37 650.99 1188.38"/><polygon class="cls-10" points="651.57 1175.41 633.56 1192.65 657.5 1199.62 651.57 1175.41"/></g><g id="TXT"><text class="cls-17" transform="translate(424.64 1332.7)">Ruta de las Cino Lagunas</text><text class="cls-18" transform="translate(5.51 613.46)">RÍO TORMES</text><text class="cls-19" transform="translate(687.66 42.77)">AV-941</text><text class="cls-20" transform="translate(175.24 26.07)">Navalperal de Tormes</text><text class="cls-18" transform="translate(48.27 274.77)">22km</text><text class="cls-18" transform="translate(1043.69 77.71)">19km</text><text class="cls-17" transform="translate(970.35 116.42)">Navarredonda <tspan x="49.61" y="28.8">de Gredos</tspan></text><text class="cls-17" transform="translate(3.09 316.99)">El Barco de Ávila</text><line class="cls-21" x1="101.19" y1="284.73" x2="6.99" y2="284.73"/><path class="cls-7" d="M17.25,277.53a.76.76,0,0,1-.23,1l-9.68,6.16L17,290.9a.74.74,0,0,1,.23,1,.76.76,0,0,1-1,.23L5.54,285.37a.75.75,0,0,1,0-1.27l10.67-6.8a.76.76,0,0,1,.4-.11A.77.77,0,0,1,17.25,277.53Z"/><line class="cls-21" x1="1046.65" y1="88.76" x2="1140.85" y2="88.76"/><path class="cls-7" d="M1130.6,96a.74.74,0,0,1,.23-1l9.68-6.17-9.68-6.16a.75.75,0,0,1-.23-1,.76.76,0,0,1,1-.23l10.67,6.8a.75.75,0,0,1,0,1.27l-10.67,6.79a.74.74,0,0,1-1-.23Z"/></g></svg>