<svg xmlns="http://www.w3.org/2000/svg" xmlns:xlink="http://www.w3.org/1999/xlink" viewBox="0 0 1684.43 719.66"><defs><style>.cls-1,.cls-18,.cls-3{fill:#f7faf3;}.cls-1,.cls-11,.cls-12,.cls-13,.cls-15,.cls-21,.cls-4{stroke:#064a00;}.cls-1,.cls-11,.cls-12,.cls-13,.cls-15,.cls-16,.cls-21{stroke-miterlimit:10;}.cls-1,.cls-12{stroke-dasharray:7 7;}.cls-2{fill:#add2eb;}.cls-11,.cls-12,.cls-13,.cls-15,.cls-16,.cls-21,.cls-4,.cls-6,.cls-7{fill:none;}.cls-4,.cls-6,.cls-7{stroke-linecap:round;stroke-linejoin:round;}.cls-4{stroke-width:0.5px;}.cls-17,.cls-19,.cls-20,.cls-5{fill:#064a00;}.cls-16,.cls-6,.cls-7{stroke:#0a7e00;}.cls-6{stroke-width:3px;stroke-dasharray:0 7;}.cls-7{stroke-width:2px;stroke-dasharray:0 5;}.cls-8{fill:#0a7e00;}.cls-9{clip-path:url(#clip-path);}.cls-10{fill:#f0eed8;}.cls-13{stroke-dasharray:5 5;}.cls-14{opacity:0.1;}.cls-15,.cls-16{stroke-width:5px;}.cls-16{stroke-dasharray:10 7;}.cls-17,.cls-18{font-size:18px;}.cls-17{font-family:CenturyGothic, Century Gothic;}.cls-18,.cls-19{font-family:CenturyGothic-Bold, Century Gothic;font-weight:700;}.cls-19{font-size:32px;}.cls-20{font-size:21px;font-family:CenturyGothic-Italic, Century Gothic;font-style:italic;}.cls-21{stroke-width:1.5px;}</style><clipPath id="clip-path"><ellipse class="cls-1" cx="1374.96" cy="309.54" rx="302.75" ry="302.27"/></clipPath></defs><title>plano navalperal de tormes</title><g id="_03_río" data-name="03 río"><g id="LWPOLYLINE"><polygon class="cls-2" points="1016.47 528.12 1023.51 526.56 1028.85 525.43 1033.94 524.4 1038.75 523.46 1043.24 522.63 1047.4 521.91 1051.25 521.27 1054.85 520.7 1058.27 520.16 1061.54 519.63 1064.73 519.09 1067.89 518.51 1071.07 517.88 1074.32 517.16 1077.65 516.38 1081.04 515.55 1084.5 514.69 1088.03 513.83 1091.6 512.97 1095.23 512.14 1098.92 511.37 1102.64 510.65 1106.43 510 1110.3 509.39 1114.25 508.81 1118.31 508.26 1122.5 507.72 1126.81 507.19 1131.28 506.64 1135.91 506.07 1140.65 505.48 1145.45 504.87 1150.27 504.24 1155.05 503.58 1159.74 502.9 1164.28 502.19 1168.15 501.53 1168.15 526.09 1167.79 526.22 1155.74 530.61 1147.52 533.4 1141.97 535.09 1137.93 536.16 1134.41 537.03 1131.17 537.8 1128.16 538.47 1125.33 539.05 1122.62 539.57 1119.97 540.03 1117.33 540.44 1114.65 540.82 1111.88 541.17 1109.02 541.5 1106.1 541.8 1103.14 542.05 1100.14 542.27 1097.13 542.43 1094.12 542.55 1091.13 542.6 1088.17 542.6 1085.26 542.53 1082.37 542.42 1079.52 542.27 1076.69 542.09 1073.9 541.89 1071.13 541.67 1068.38 541.44 1065.65 541.22 1062.89 541.01 1060.09 540.83 1057.18 540.67 1054.13 540.56 1050.91 540.51 1047.48 540.53 1043.79 540.62 1039.84 540.79 1035.79 541.03 1031.83 541.3 1028.15 541.58 1024.96 541.84 1022.44 542.06 1020.78 542.21 1020.19 542.27 1016.47 528.12"/></g><g id="LWPOLYLINE-2" data-name="LWPOLYLINE"><polygon class="cls-2" points="1011.5 543.98 1007.85 544.95 1001.07 546.58 992.29 548.47 982.2 550.65 971.08 553.16 958.76 555.51 945.95 558.04 933.04 560.68 920.42 563.34 908.49 565.95 897.63 568.44 888.13 570.74 879.83 572.9 872.46 574.96 865.77 576.98 859.49 579.02 853.34 581.14 847.08 583.38 840.42 585.81 833.18 588.45 825.42 591.28 817.31 594.23 808.97 597.25 800.56 600.27 792.21 603.24 784.08 606.11 776.31 608.8 769.01 611.29 762.18 613.55 755.81 615.6 749.87 617.45 744.32 619.1 739.14 620.55 734.32 621.82 729.81 622.91 725.59 623.83 721.59 624.61 717.74 625.26 713.95 625.82 710.14 626.31 706.25 626.77 702.19 627.21 697.88 627.66 693.28 628.15 688.43 628.67 683.41 629.19 678.28 629.72 673.12 630.22 668.01 630.69 663.01 631.12 658.2 631.48 653.64 631.77 649.37 632.02 645.43 632.25 641.84 632.51 638.64 632.81 635.87 633.2 633.55 633.7 631.71 634.35 630.38 635.17 629.54 636.22 629.13 637.51 629.14 639.1 629.52 641.02 630.24 643.31 631.27 646 632.55 649.13 634.07 652.73 635.79 656.75 637.69 661.13 639.73 665.83 641.89 670.77 644.14 675.9 646.46 681.16 648.81 686.5 651.17 691.86 653.5 697.17 655.75 702.35 657.89 707.36 659.88 712.1 661.66 716.53 663.22 720.57 663.55 721.51 647.76 721.51 647.52 720.73 645.95 716.15 644.04 711.08 641.79 705.46 639.22 699.41 636.43 693.09 633.48 686.64 630.45 680.23 627.4 674 624.41 668.12 621.56 662.72 618.89 657.94 616.38 653.74 613.99 650.06 611.67 646.84 609.37 644.01 607.05 641.53 604.67 639.31 602.17 637.31 599.53 635.47 596.72 633.77 593.74 632.23 590.59 630.83 587.26 629.57 583.74 628.47 580.02 627.51 576.11 626.7 571.99 626.03 567.66 625.51 563.12 625.14 558.37 624.92 553.39 624.86 548.19 624.96 542.77 625.21 537.12 625.63 531.23 626.23 525.01 627.01 518.39 628.02 511.28 629.27 503.59 630.8 495.23 632.62 486.11 634.77 476.15 637.28 465.29 640.15 453.59 643.36 441.12 646.87 427.99 650.65 414.27 654.65 400.05 658.84 385.42 663.18 370.46 667.63 355.26 672.15 339.93 676.71 324.57 681.28 309.28 685.83 294.17 690.32 279.35 694.73 264.91 699.01 250.98 703.15 237.5 707.14 223.82 711.09 209.13 715.13 192.65 719.43 184.15 721.51 -2.27 721.51 5.58 719.58 18.72 716.67 30.47 714.37 41.03 712.57 50.6 711.14 59.37 709.98 67.53 708.99 75.29 708.04 82.81 707.05 90.16 706.01 97.38 704.93 104.5 703.84 111.57 702.74 118.63 701.65 125.71 700.58 132.86 699.54 140.09 698.56 147.34 697.61 154.5 696.71 161.47 695.83 168.16 694.98 174.48 694.15 180.33 693.33 185.6 692.51 190.25 691.69 194.38 690.85 198.17 689.98 201.75 689.04 205.3 688.04 208.97 686.95 212.9 685.76 217.27 684.44 222.2 682.98 227.76 681.37 233.99 679.61 240.93 677.67 248.61 675.56 257.08 673.27 266.39 670.78 276.56 668.09 287.61 665.19 299.45 662.12 311.95 658.88 324.99 655.53 338.46 652.07 352.22 648.55 366.15 644.99 380.13 641.42 394.05 637.87 407.76 634.37 421.15 630.94 434.09 627.63 446.44 624.46 458.09 621.46 468.9 618.66 478.75 616.1 487.56 613.8 495.41 611.75 502.44 609.93 508.77 608.33 514.56 606.93 519.92 605.73 524.99 604.69 529.91 603.82 534.79 603.08 539.63 602.49 544.43 602.04 549.17 601.71 553.84 601.52 558.43 601.45 562.92 601.5 567.31 601.67 571.57 601.96 575.71 602.36 579.72 602.85 583.6 603.43 587.34 604.1 590.94 604.85 594.39 605.66 597.69 606.53 600.84 607.46 603.86 608.42 606.76 609.41 609.58 610.41 612.34 611.41 615.06 612.41 617.76 613.38 620.47 614.31 623.21 615.19 625.98 616.02 628.81 616.79 631.71 617.51 634.68 618.17 637.74 618.76 640.9 619.28 644.17 619.74 647.57 620.13 651.05 620.44 654.6 620.69 658.19 620.87 661.79 620.98 665.37 621.03 668.89 621.02 672.34 620.95 675.69 620.81 678.95 620.61 682.14 620.33 685.29 619.97 688.42 619.52 691.55 618.96 694.69 618.3 697.88 617.52 701.13 616.61 704.45 615.59 707.85 614.45 711.35 613.21 714.95 611.87 718.66 610.43 722.5 608.9 726.48 607.29 730.59 605.61 734.84 603.86 739.2 602.05 743.67 600.19 748.24 598.28 752.88 596.33 757.59 594.35 762.36 592.34 767.17 590.31 772.01 588.29 776.9 586.27 781.82 584.29 786.78 582.36 791.77 580.49 796.8 578.7 801.85 577.01 806.93 575.43 812.01 573.95 817.07 572.58 822.07 571.31 827 570.13 831.83 569.03 836.52 568.02 841.05 567.09 845.41 566.22 849.6 565.42 853.63 564.68 857.51 563.98 861.25 563.31 864.87 562.67 868.38 562.06 871.8 561.45 875.12 560.84 878.36 560.23 881.51 559.61 884.59 558.99 887.58 558.35 890.48 557.7 893.31 557.02 896.06 556.33 898.73 555.62 901.37 554.88 904.01 554.14 906.7 553.39 909.47 552.64 912.37 551.9 915.44 551.18 918.72 550.48 922.24 549.8 926.01 549.13 930.03 548.45 934.29 547.72 938.79 546.93 943.53 546.06 948.5 545.08 953.7 543.96 959.12 542.7 964.74 541.32 970.51 539.84 976.41 538.29 982.38 536.7 988.4 535.09 994.44 533.51 1000.45 531.97 1006.4 530.49 1007.75 530.17 1011.5 543.98"/></g></g><g id="_02_carretera" data-name="02 carretera"><g id="LWPOLYLINE-3" data-name="LWPOLYLINE"><path class="cls-3" d="M1168.15,115.94l-.92-.43-3-1.41-3-1.49-3.12-1.55-3.25-1.63-3.38-1.7L1148,106h0l-3.55-1.77h0l-3.59-1.78h0l-3.61-1.76,0,0-3.58-1.73,0,0L1130,97.21l0,0-3.46-1.6-.06,0L1123.11,94l-.07,0-3.25-1.42-.08,0-3.14-1.32-.09,0-3-1.23-.11,0-3-1.13-.12,0-2.87-1-.13,0-2.78-.93-.15-.05-2.7-.83-.19,0-2.69-.74-.27-.06-3-.69-.26,0-3.79-.69-.19,0-5-.75-.12,0-6.56-.86h-.07l-8.57-1h0l-11-1.25h0L1046,78.1h0l-16.91-1.84-19.41-2.09-21.11-2.26-22-2.35-22.2-2.37L922.77,64.9l-20.18-2.14-18-1.92-15.24-1.62-12.66-1.34h0l-10.43-1.1h0l-8.57-.87h0l-7.07-.68h0l-5.94-.53h-.07l-5.17-.41h-.09L814.48,54h-.09l-4.66-.24h-.09L805,53.55H805l-4.56-.1h-.08l-4.49,0h-.09l-4.41,0h-.09l-4.33.09h-.1l-4.24.16h-.1l-4.14.21h-.1l-4.05.27h-.08l-4,.32h-.07l-3.91.36h0l-3.88.38h0l-3.88.4-3.9.4-3.92.39-4,.36-4,.33-4.1.3-4.12.24-4.09.19-4,.13-3.91.05-3.75,0-3.55-.1-3.34-.2-3.16-.27-3-.35-2.92-.41-2.87-.48-2.84-.53-2.86-.57L691,54.48l-3-.64-3-.66h0l-3.1-.65h-.06l-3.15-.63-.08,0-3.19-.59-.11,0L672,50.71l-.13,0-3.28-.48-.16,0-3.31-.4-.17,0-3.35-.31-.18,0L658,49.22h-.17l-3.38-.13h-.16L651,49h-.16l-3.35,0h-.16l-3.32.13h-.16l-3.28.21h-.16l-3.21.29-.17,0-3.14.37-.19,0-3.08.46-.21,0-3,.56-.23,0-3,.67-.24.06-3,.8-.24.07-3,.93-.24.08-3,1.07-.24.09L611,56.25l-.23.1-3.18,1.41-.26.13-3.37,1.69-.27.15L600,61.81l-.25.15-4.11,2.58-.21.13-4.67,3.2-.16.12-5.37,3.92-.12.09-6.18,4.76-.1.08-6.91,5.89L570.66,84l-2.61,2.56L563.12,92l-4.23,4.43L555.27,100l-3.11,2.87-2.7,2.31L547.05,107l-2.19,1.57-2.05,1.32-2.06,1.14-2.24,1.06L536,113.18l-3,1.09-3.62,1.18L525,116.77l-5.07,1.5L514.11,120l-6.44,1.85-7,2L493.08,126h0l-8,2.31h0l-8.43,2.46h0l-8.79,2.59h0l-9.08,2.71h0l-9.28,2.81h0L440,141.72l-9.41,2.87-9.33,2.84-9.16,2.78-8.89,2.68-8.53,2.53-8.09,2.37-7.66,2.2-7.2,2L365,164h0l-6.27,1.81h0l-5.8,1.7h-.05l-5.31,1.61-.09,0-4.81,1.53-.13,0-4.37,1.49-.2.08-4.14,1.57-.25.1-4.19,1.81-.24.11-4.5,2.17-.21.11-5.08,2.68-.15.08-5.95,3.35-.09.06L306,188.47l-.06,0-8.48,5.1,0,0-10,6.12h0l-11.31,6.94h0l-12.16,7.5L251.33,222l-12.65,7.78-12.27,7.52-11.49,7-10.28,6.18-8.78,5.16-7.41,4.19-6.3,3.35-5.43,2.62-4.85,2.05-4.56,1.61-4.6,1.33-5,1.16-5.59,1.1-6.67,1.08-8.28,1.11-10.41,1.17-13,1.26L97.64,279l-19.77,1.57-80.13,6v6.2l7.09-.52,6.17-.46,5.34-.39L21,291.1l4-.29,3.53-.26,3.14-.23,2.85-.21,2.68-.2,2.52-.19,2.38-.17,2.27-.17,2.17-.16,2.09-.16,2-.15,2-.14,1.95-.15,1.93-.14,1.9-.14,1.88-.14,1.85-.14,1.83-.14,1.81-.14,1.78-.13,1.75-.13,1.74-.13,1.71-.13,1.68-.13,1.67-.13,1.64-.12,1.62-.13,1.59-.12,1.58-.12,1.55-.12,1.54-.12,1.51-.12,1.49-.11,1.47-.12,1.45-.11L93,285.7l1.41-.11,1.4-.11,1.37-.11,1.35-.11,1.34-.11,1.31-.11,1.3-.1,1.28-.11,1.26-.1,1.25-.1,1.23-.1,1.21-.1,1.19-.1,1.18-.1,1.16-.1,1.15-.1,1.13-.1,1.12-.09,1.1-.1,1.08-.1,1.07-.09,1.06-.1,1-.09,1-.09,1-.1,1-.09,1-.09,1-.09,1-.09.94-.1.93-.09.92-.09.91-.09.89-.09.88-.09.87-.09.86-.09L135,282l.83-.1.82-.09.82-.09.8-.09.79-.09.78-.09.77-.1.76-.09.75-.09.74-.1.73-.09.72-.09.71-.1.7-.1.69-.09.69-.1.68-.1.66-.1.66-.1.66-.1.64-.1.64-.1.63-.1.62-.1.61-.11.61-.11.6-.1.6-.11.59-.11.58-.11.58-.11.57-.11.57-.12.56-.11.55-.12.55-.12.55-.12.54-.12.54-.12.53-.13.53-.12.53-.13.52-.13.52-.13.52-.14.51-.13.52-.14.51-.15.51-.14.51-.15.51-.15.52-.16.51-.16.51-.17.52-.16.52-.18.52-.18.52-.18.53-.19.53-.2.53-.2.54-.2.55-.22.55-.22.55-.22.57-.24.57-.24.58-.25.58-.25.6-.27.6-.27.61-.28.62-.29.64-.3.64-.31.65-.31.67-.33.68-.34.69-.34.7-.36.71-.37.73-.38.75-.39.76-.4.77-.41.79-.43.8-.43.82-.45.84-.46.86-.47.87-.49.89-.5.91-.51.93-.53.95-.54,1-.55,1-.57,1-.59,1-.59,1.05-.62,1.08-.63,1.09-.64,1.12-.66,1.14-.67,1.17-.69,1.18-.71,1.21-.72,1.23-.73,1.26-.75,1.27-.77,1.3-.78,1.32-.79,1.33-.8,1.36-.82,1.37-.83,1.4-.85,1.4-.85,1.43-.87,1.44-.87,1.45-.89,1.47-.89,1.48-.91,1.5-.91,1.5-.92,1.51-.93,1.53-.93,1.53-.94,1.54-1,1.55-.95,1.56-.95,1.56-1,1.57-1,1.57-1,1.57-1,1.58-1,1.57-1,1.58-1,1.58-1,1.58-1,1.58-1,1.57-1,1.57-1,1.57-1,1.56-1,1.56-1,1.55-1,1.55-1,1.53-.95,1.53-.94,1.52-.93,1.51-.93,1.5-.93,1.48-.91,1.48-.91,1.46-.89,1.44-.89,1.43-.88,1.42-.87,1.39-.86,1.38-.84,1.37-.84,1.34-.82,1.32-.81,1.31-.8,1.28-.78,1.26-.77,1.24-.75,1.22-.74,1.19-.73,1.17-.71,1.14-.69,1.13-.68,1.09-.66,1.08-.65,1-.63,1-.61,1-.6,1-.59,1-.57.94-.55.91-.55.9-.52.88-.52.86-.5.84-.49.83-.47.8-.46.79-.45.77-.44.76-.43.74-.41.72-.41.71-.39.7-.38.68-.38.67-.36.66-.35.64-.34.64-.34.62-.32.62-.32.6-.31.6-.3.58-.29.58-.28.57-.28.56-.27.56-.26.55-.26.55-.25.54-.25.53-.24.53-.23.53-.23.53-.23.52-.22.52-.22.53-.21.52-.21.52-.21.52-.2.52-.2.52-.2.52-.19.53-.2.53-.19.53-.19.54-.19.54-.19.55-.19.55-.19.56-.19.56-.18.57-.19.58-.19.59-.19.59-.19.6-.2.6-.19.62-.19.62-.2.63-.19.64-.2.64-.2.65-.2.66-.2.67-.2.68-.2.68-.21.69-.2.7-.21.7-.21.71-.21.73-.21.72-.22.74-.21.74-.22.75-.21.76-.22.77-.23.77-.22.78-.22.79-.23.79-.23.81-.23.81-.23.81-.24.83-.23.83-.24.84-.24.85-.24.85-.24.86-.25.87-.25.88-.25.88-.25.89-.25.9-.26.9-.26.91-.26.92-.26.93-.27.93-.27.94-.27.95-.27,1-.27,1-.28,1-.28,1-.28,1-.29,1-.29,1-.29,1-.29,1-.3,1-.29,1-.3,1-.31,1-.3,1-.31,1.06-.31,1.06-.32,1.06-.31,1.07-.32,1.08-.32,1.08-.32,1.09-.33,1.09-.33,1.1-.33,1.11-.33,1.11-.33,1.11-.34,1.12-.33,1.12-.34,1.13-.34,1.13-.35,1.14-.34,1.14-.35,1.14-.34,1.15-.35,1.15-.35,1.15-.35,1.15-.35,1.16-.35,1.16-.36,1.16-.35,1.17-.36,1.16-.35,1.17-.36,1.17-.35,1.17-.36,1.17-.36,1.18-.36,1.17-.35,1.18-.36,1.17-.36,1.18-.36,1.17-.36,1.18-.35,1.17-.36,1.18-.36,1.17-.36,1.17-.35,1.17-.36,1.17-.35,1.17-.36,1.17-.35,1.17-.36,1.16-.35,1.16-.35,1.16-.35,1.16-.35,1.16-.35,1.15-.35,1.15-.34,1.14-.34,1.14-.35,1.14-.34,1.14-.34,1.13-.33,1.13-.34,1.12-.33,1.12-.34,1.11-.33,1.11-.32,1.1-.33,1.1-.33,1.1-.32,1.09-.32,1.08-.32,1.08-.31,1.07-.32,1.07-.31,1.06-.31,1.06-.3,1.05-.31,1-.3,1-.3,1-.3,1-.3,1-.29,1-.29,1-.29,1-.29,1-.29,1-.28,1-.28,1-.28,1-.27.95-.28.95-.27.94-.27.93-.27.92-.26.92-.26.91-.26.9-.26.89-.25.88-.25.87-.25.87-.25.85-.25.85-.24.84-.24.83-.24.82-.23.81-.23.8-.23.79-.23.78-.22.77-.23.76-.22.75-.21.75-.22.73-.21.72-.21.71-.2.7-.21.69-.2.67-.2.67-.19.66-.2.64-.19.64-.19.62-.18.61-.18.6-.18.59-.18.58-.18.57-.17.55-.17.55-.17.54-.16.52-.17.52-.16.5-.16.5-.16.49-.15.47-.16.47-.15.46-.15.45-.16.44-.15.44-.15.43-.14.41-.15.42-.15.4-.15.4-.14.39-.15.38-.14.38-.15.38-.15.36-.14.36-.15.36-.14.35-.15.35-.15.34-.15.33-.15.34-.15.32-.15.33-.15.32-.16L543,117l.31-.15.32-.16.31-.16.3-.17.31-.16.3-.17.31-.17.3-.17.3-.17.29-.18.3-.18.3-.18.29-.19.3-.18.3-.2.3-.19.29-.2.3-.2.3-.2.3-.21.31-.22.3-.21.31-.22.31-.23.31-.23.31-.23.32-.24.32-.25.32-.25.33-.25.33-.26.33-.27.34-.27.34-.28.35-.28.35-.3.35-.3.37-.3.36-.32.37-.32.38-.33.38-.34.39-.35.4-.36.4-.36L558,106l.41-.38.43-.4.42-.4.44-.42.45-.43.45-.44.46-.45.46-.46.48-.47.48-.49.5-.49.5-.51.51-.53.52-.53.53-.55.54-.57.55-.58.56-.59.57-.6.58-.63.59-.63.59-.65.6-.64.58-.65.58-.63.56-.62.54-.59.51-.57.48-.54.48-.53.51-.54.56-.59.64-.65.76-.75.9-.86,1.08-1,1.27-1.16,1.46-1.32,1.64-1.43,1.8-1.54,2-1.61,2.1-1.66,2.22-1.69,2.34-1.7L595,71.84l2.54-1.65,2.61-1.62L602.87,67l2.74-1.49,2.78-1.41,2.82-1.3,2.83-1.2,2.84-1.08,2.86-1,2.89-.84,2.91-.74,3-.64,3-.55,3.07-.45,3.14-.37,3.21-.29,3.27-.21,3.32-.13,3.36,0,3.37,0,3.38.13,3.37.22,3.35.31,3.32.4,3.27.49,3.24.54,3.19.6,3.15.63,3.1.64,3,.66,3,.65,3,.62,2.94.59,2.95.55,3,.49,3.08.44,3.19.37,3.34.29,3.52.2,3.71.11,3.89,0,4-.06,4.12-.13,4.17-.2,4.2-.25,4.17-.29,4.12-.34,4-.37,3.95-.39,3.91-.4,3.88-.4,3.89-.38,3.91-.36,4-.32,4-.27,4.14-.21L787,59.8l4.33-.09,4.41,0,4.48,0,4.55.1,4.61.17,4.66.23,4.77.3,5.17.41,5.94.53,7.07.68,8.58.88L856,64.12l12.65,1.35,15.24,1.62,18,1.91,20.18,2.15,21.57,2.29,22.2,2.36,22,2.35,21.1,2.27,19.4,2.09,16.91,1.84,13.84,1.53,11,1.25,8.57,1,6.56.86,5,.75,3.79.69,3,.68,2.69.74,2.7.82,2.78.93,2.87,1,3,1.13,3,1.23,3.15,1.32,3.25,1.42,3.35,1.51,3.45,1.6,3.54,1.68,3.58,1.73,3.6,1.76,3.6,1.78,3.55,1.77,3.47,1.74,3.38,1.7,3.26,1.63,3.15,1.57,3.08,1.51,3,1.45,3,1.39.58.25Z"/></g></g><g id="_02_puente" data-name="02 puente"><g id="LWPOLYLINE-4" data-name="LWPOLYLINE"><polyline class="cls-4" points="1012.54 562.46 1015.06 557.93 1011.01 542.58 1006.97 527.23 1002.56 524.52"/></g><g id="LWPOLYLINE-5" data-name="LWPOLYLINE"><polyline class="cls-4" points="1028.13 558.36 1023.71 555.65 1019.67 540.3 1015.63 524.95 1018.14 520.42"/></g></g><g id="_01_pueblo" data-name="01 pueblo"><g id="LWPOLYLINE-6" data-name="LWPOLYLINE"><polygon class="cls-5" points="196.51 275.48 196.41 280.5 200.49 280.58 199.18 284.62 193.9 283.32 193.29 288.04 209.18 293.27 210.63 288.87 204.24 286.77 206.16 282.06 202.19 281.16 202.49 275.78 196.51 275.48"/></g><g id="LWPOLYLINE-7" data-name="LWPOLYLINE"><polygon class="cls-5" points="211.8 275.53 210.44 282.92 218.94 285.78 214.66 294.73 223.21 298.44 229.81 286.01 235.66 285.05 248.99 284.3 249.74 278.77 249.74 273.16 243.21 273.75 236.8 274 230.49 275.05 230.18 278.68 221.77 276 211.8 275.53"/></g><g id="LWPOLYLINE-8" data-name="LWPOLYLINE"><polyline class="cls-5" points="221.61 308.03 226.41 310.36 229.73 303.52 224.61 301.49 221.61 308.03"/></g><g id="LWPOLYLINE-9" data-name="LWPOLYLINE"><polygon class="cls-5" points="237.33 302.46 246.94 308.16 250.51 303.06 260.63 308.5 265.9 300.42 270.91 302.46 273.63 297.96 267.19 294.07 265.98 298.22 257.9 295.92 255.18 301.36 250.8 299.17 254.84 291.08 264.11 293.03 265.56 283.35 252.97 280.12 249.15 288.44 245.08 286.58 243.37 290.31 246.6 292.78 246.6 296.26 242.52 294.31 237.33 302.46"/></g><g id="LWPOLYLINE-10" data-name="LWPOLYLINE"><polygon class="cls-5" points="255.83 270.17 256.09 276.66 266.56 276.32 265.98 264.52 259.64 264.73 259.78 270 255.83 270.17"/></g><g id="LWPOLYLINE-11" data-name="LWPOLYLINE"><polygon class="cls-5" points="210.05 262.53 211.73 269.61 218.27 267.83 216.27 260.64 210.05 262.53"/></g><g id="LWPOLYLINE-12" data-name="LWPOLYLINE"><rect class="cls-5" x="237.61" y="218.62" width="7.43" height="5.84" transform="translate(-81.1 163.59) rotate(-32.36)"/></g><g id="LWPOLYLINE-13" data-name="LWPOLYLINE"><polygon class="cls-5" points="206.52 227.41 207.57 235.41 215.39 234.38 214.32 226.16 206.52 227.41"/></g><g id="LWPOLYLINE-14" data-name="LWPOLYLINE"><polygon class="cls-5" points="247.57 202.06 249.29 207.85 256.92 206.18 254.58 198.61 247.57 202.06"/></g><g id="LWPOLYLINE-15" data-name="LWPOLYLINE"><polygon class="cls-5" points="261.71 162.11 261.26 168.32 257.9 168.32 258.96 175.54 266.69 174.93 266.36 170.72 274.03 170.72 273.13 165.02 261.71 162.11"/></g><g id="LWPOLYLINE-16" data-name="LWPOLYLINE"><polygon class="cls-5" points="285.26 172.96 285.69 180.46 297.1 180.23 298.43 187.4 306.27 185.42 303.37 174.14 285.26 172.96"/></g><g id="LWPOLYLINE-17" data-name="LWPOLYLINE"><polygon class="cls-5" points="344.8 154.18 345.09 158.07 347.6 158.24 348.57 165.89 355.25 165.04 354.06 157.5 350.99 157.66 350.61 153.74 344.8 154.18"/></g><g id="LWPOLYLINE-18" data-name="LWPOLYLINE"><polygon class="cls-5" points="235.77 251.67 236.57 259.22 240.24 258.93 240.33 259.98 246.59 259.27 246.46 258.24 250 257.95 248.85 249.87 244.73 250.2 244.84 251.45 239.66 251.93 239.58 251.07 235.77 251.67"/></g><g id="LWPOLYLINE-19" data-name="LWPOLYLINE"><polygon class="cls-5" points="251.05 241.82 251.41 250.22 259.59 249.87 259.22 241.52 251.05 241.82"/></g><g id="LWPOLYLINE-20" data-name="LWPOLYLINE"><polyline class="cls-5" points="243.71 264.78 244.32 269.78 252.4 268.29 254.73 265.85 256.75 263.12 254.73 255.2 250.22 256.37 251.71 261.96 251.38 262.9 243.71 264.78"/></g><g id="LWPOLYLINE-21" data-name="LWPOLYLINE"><polyline class="cls-5" points="268.94 265.19 270.88 271.55 289.47 264.93 290.21 266.06 295.41 265.09 295.33 263.75 306.15 259.43 314.69 257.41 323.03 257.41 321.08 247.87 318.7 248.37 317.14 243.77 311.23 245.78 303.43 249.17 295.8 253.63 293.1 254.99 293.89 258.21 289.27 259.1 288.21 257.03 277.98 261.73 268.94 265.19"/></g><g id="LWPOLYLINE-22" data-name="LWPOLYLINE"><polygon class="cls-5" points="343.61 254.92 348.65 253.75 348.13 251.53 356.51 248.87 356.22 248.1 361.06 243.73 355.75 240.07 348.96 237.39 345.46 237.22 345.63 241.57 346.62 241.57 347.21 246.22 345.7 246.53 341.37 247.2 342.39 253.83 337.96 254.41 336.95 246.14 344.67 244.69 344.16 241.97 343.55 242.08 343.27 237.1 334.8 238.1 334.9 238.93 326.41 240.24 326.51 240.89 322.76 241.75 323.13 248.29 324.01 253.12 325.85 262.99 332.45 261.22 331.91 256.12 333.95 255.84 334.61 260.77 339.2 260.16 339.12 257.48 343.89 256.75 343.61 254.92"/></g><g id="LWPOLYLINE-23" data-name="LWPOLYLINE"><polygon class="cls-5" points="352.35 252.22 351.76 253.68 351.76 256.21 357.91 256.41 358 252.05 352.35 252.22"/></g><g id="LWPOLYLINE-24" data-name="LWPOLYLINE"><polyline class="cls-5" points="363.04 244.03 364.03 250.5 368.93 250.5 369.29 254.77 365.33 254.77 365.33 258.9 370.32 258.9 370.06 254.86 376.49 255.4 379.27 255.4 382.46 254.46 385.23 254.26 388.01 246.91 383.58 244.92 376.52 243.29 372.13 242.71 367.83 242.71 364.67 242.71 363.04 244.03"/></g><g id="LWPOLYLINE-25" data-name="LWPOLYLINE"><polyline class="cls-5" points="374.09 259.49 376.32 268.27 381.69 264.31 386.88 259.31 387.38 256.72 385.33 255.31 379.1 257.17 374.09 259.49"/></g><g id="LWPOLYLINE-26" data-name="LWPOLYLINE"><polyline class="cls-5" points="404.86 251.48 405.15 258.62 420.92 257.97 420.97 256.71 428.63 256.02 427.71 249.37 419.9 250.25 419.97 250.85 404.86 251.48"/></g><g id="LWPOLYLINE-27" data-name="LWPOLYLINE"><polygon class="cls-5" points="432.51 251.86 434.85 259.23 441.51 257.12 439.22 249.89 432.51 251.86"/></g><g id="LWPOLYLINE-28" data-name="LWPOLYLINE"><polygon class="cls-5" points="468.09 257.23 470.57 263.44 479.81 259.76 477.28 253.4 468.09 257.23"/></g><g id="LWPOLYLINE-29" data-name="LWPOLYLINE"><polygon class="cls-5" points="442.51 253.93 444.57 259.8 461.48 253.87 459.29 248.05 442.51 253.93"/></g><g id="LWPOLYLINE-30" data-name="LWPOLYLINE"><polygon class="cls-5" points="453.38 269.75 454.51 272.92 470.31 266.8 469.12 263.73 453.38 269.75"/></g><g id="LWPOLYLINE-31" data-name="LWPOLYLINE"><polyline class="cls-5" points="509.8 253.69 515.9 258.04 519.31 253.46 521.51 251.54 516.11 246.58 513.52 249.39 512.67 248.82 509.8 253.69"/></g><g id="LWPOLYLINE-32" data-name="LWPOLYLINE"><polygon class="cls-5" points="267.89 243.14 270.86 248.92 272.62 248.38 274.05 251.58 276.66 250.41 278.63 258.39 292.42 252.06 308.29 244.07 315.37 240.51 315.11 239.47 317.34 238.2 317.04 232.23 312.97 232.83 305.79 234.69 306.43 236 291.37 242.54 290.84 242.77 293.87 250.45 292.2 251.31 288.23 242.42 287.35 240.48 288.95 239.76 286.19 231.92 284.45 232.33 283.59 228.66 279.43 229.64 280.38 233.69 278.3 234.8 271.17 238.13 267.89 243.14"/></g><g id="LWPOLYLINE-33" data-name="LWPOLYLINE"><polygon class="cls-5" points="317.95 227.56 319.26 237.15 324.91 236 325.15 237.21 332.6 235.69 332.28 234.34 338.05 233.44 338.05 226.88 338.92 226.6 337.05 217.41 331.28 218.8 325.61 219.52 318.35 219.59 317.95 227.56"/></g><g id="LWPOLYLINE-34" data-name="LWPOLYLINE"><polygon class="cls-5" points="337.19 213.19 340.21 221.63 341.72 232.28 346.92 231.55 346.52 225.26 349.2 224.98 348.36 218.29 350.65 217.51 350.2 215.67 354.14 214.38 354.64 215.89 358.97 214.06 356.11 208.03 352.08 206.29 349.56 206.74 337.19 213.19"/></g><g id="LWPOLYLINE-35" data-name="LWPOLYLINE"><polyline class="cls-5" points="359.62 216.04 355.18 217.53 356.75 224.15 355.01 224.56 356.69 230.93 362.94 229.29 361.12 221.63 359.62 216.04"/></g><g id="LWPOLYLINE-36" data-name="LWPOLYLINE"><polygon class="cls-5" points="357.3 231.93 359.39 238.58 366.67 236.66 364.52 229.78 357.3 231.93"/></g><g id="LWPOLYLINE-37" data-name="LWPOLYLINE"><polyline class="cls-5" points="368.59 231.83 366.6 232.44 368.63 237.77 377.2 234.39 380.37 230.37 380.8 227.14 379.11 220.1 376.94 217.02 371.29 217.36 370.54 214.51 369.75 210.18 375.88 209.03 376.41 211.87 375.65 213.95 380.92 217.85 385.78 213.27 389.56 210.18 389.22 201.31 380.46 201.82 374.76 201.48 369.88 202.27 363.72 203.27 356.95 204.57 357.78 207.12 360.15 213.57 362.23 220.22 363.73 219.85 365.11 223.75 367.97 222.96 370.51 222.45 371.74 225.35 371.99 227.92 367.94 228.28 368.59 231.83"/></g><g id="LWPOLYLINE-38" data-name="LWPOLYLINE"><polyline class="cls-5" points="379.24 233.73 379.96 236.57 382.14 241.11 394.25 243.41 394.12 237.66 401.57 237.66 401.08 244.07 404.92 244.97 407.11 243.21 407.56 239.5 403.09 238.88 403.37 235.22 406.55 235.47 406.46 236.71 408.36 236.88 409.05 226.05 400.15 225.07 399.93 227.1 395.97 227.1 395.73 230.61 391.98 230.61 391.89 231.96 384.65 232.22 384.19 230.87 379.24 233.73"/></g><g id="LWPOLYLINE-39" data-name="LWPOLYLINE"><polyline class="cls-5" points="380.68 220.63 381.39 223.81 382.98 224.35 383.64 223.52 387.42 225.99 386.83 230.39 391.19 230.2 392.42 226.92 391.73 225 392.16 224.1 395.47 224.22 395.55 222.15 404.24 222.55 404.24 223.93 408.93 224.09 409.19 216.69 407.15 211.67 402.37 212.59 398.7 202.98 393.15 205.1 391.92 206.71 390.96 209.84 390.88 214.16 391.89 214.9 393.35 218.97 391.73 218.88 390.96 217.27 386.49 214.57 380.68 220.63"/></g><g id="LWPOLYLINE-40" data-name="LWPOLYLINE"><polyline class="cls-5" points="410.87 223.65 410.01 240.39 413.02 240.92 413.02 246.61 420.23 246.61 419.31 242.62 426.9 240.33 428.67 244.84 434.11 242.95 432.47 238.24 438.69 236.07 440.98 241.57 451.78 236.66 452.31 237.83 455.81 236.24 452.74 229.46 449.49 226.85 444.71 220.44 443.34 218.21 435.15 221.12 436.15 223.93 433.77 225.07 434.67 227.29 424.1 231.02 423.56 225.4 420.01 221.72 416.85 222.57 418.75 227.7 415.65 228.86 414.54 222.64 410.87 223.65"/></g><g id="LWPOLYLINE-41" data-name="LWPOLYLINE"><polygon class="cls-5" points="401.29 198.16 405.79 208.56 416.28 204.67 415.54 202.66 419.65 201.15 420.84 199.6 421.21 198.36 421.39 196.66 420.68 195.23 418.8 194.17 416.38 194.36 414.63 194.65 412.84 195.31 412.2 193.54 401.29 198.16"/></g><g id="LWPOLYLINE-42" data-name="LWPOLYLINE"><polygon class="cls-5" points="420.6 210.35 421.27 212.11 411.46 215.05 413.4 220.7 417.15 219.41 416.77 218.31 420.37 217.11 420.72 218.17 424.99 216.85 425.78 219.43 431.02 218.18 430.78 217.19 435.33 216.81 434.65 209.25 428.44 209.81 425.66 210.06 425.05 208.66 423.34 204.16 418.89 205.85 420.6 210.35"/></g><g id="LWPOLYLINE-43" data-name="LWPOLYLINE"><polyline class="cls-5" points="457.68 240.15 460.25 244.17 466.98 240.78 468.09 244.31 478.36 243.83 478.51 246.96 487.66 247.5 487.34 248.66 493.91 251.09 494.93 248.35 495.22 244.22 491.45 244.05 491.66 228.26 489.57 228.19 489.16 224.5 485.42 224.95 483.28 221.12 476.82 225.91 468.45 231.63 469.09 232.56 457.68 240.15"/></g><g id="LWPOLYLINE-44" data-name="LWPOLYLINE"><polygon class="cls-5" points="496.13 237.28 496.08 242.73 497.71 242.73 497.71 245.99 503.3 246.03 503.3 239.26 500.31 239.26 500.22 237.28 496.13 237.28"/></g><g id="LWPOLYLINE-45" data-name="LWPOLYLINE"><polygon class="cls-5" points="396.65 182.3 399.57 188.99 413.25 183.37 409.61 176.32 396.65 182.3"/></g><g id="LWPOLYLINE-46" data-name="LWPOLYLINE"><polygon class="cls-5" points="393.44 170.98 395.01 175.11 406.72 170.66 403.77 163.5 395.15 166.5 396.27 169.71 393.44 170.98"/></g><g id="LWPOLYLINE-47" data-name="LWPOLYLINE"><polygon class="cls-5" points="431.93 190.54 423.69 190.54 423.55 200 429.26 200 427.45 202.94 428.27 204.91 431.26 207.95 435.06 207.49 434.69 200.05 432.36 199.99 432.36 197.47 434.6 197.47 434.51 195.34 438.07 195.34 439.04 197.41 442.53 196.62 442.81 197.82 439.95 198.81 440.91 201.6 439.8 203.69 439.9 208.27 439.92 209.15 441.07 209.49 445.16 207.71 443.34 204.46 445.55 203.28 447.89 207.67 454.29 204.25 450.32 196.94 448.06 195.27 450.57 193.8 446.43 183.83 438.9 186.95 438.58 186.29 435.84 187.6 436.9 189.82 431.93 190.54"/></g><g id="LWPOLYLINE-48" data-name="LWPOLYLINE"><polygon class="cls-5" points="490.11 214.52 491.77 219.51 498.21 217.36 496.45 212.34 490.11 214.52"/></g><g id="LWPOLYLINE-49" data-name="LWPOLYLINE"><polygon class="cls-5" points="324.27 194.06 326.77 202.74 328.49 202.24 329.61 206.1 334.13 204.72 330.97 194.43 329.15 194.99 328.54 193.02 324.27 194.06"/></g><g id="LWPOLYLINE-50" data-name="LWPOLYLINE"><polyline class="cls-5" points="331.03 184.62 332.95 192.01 334.2 191.64 336.7 202.81 338.93 202.31 341.04 208.62 347.15 205.68 352.44 203.77 355.86 202.65 360.61 201.73 359.33 195.16 354.74 196.05 353.71 189.52 342.16 190.17 341.82 188.55 338.73 189.22 337.09 183.04 331.03 184.62"/></g><g id="LWPOLYLINE-51" data-name="LWPOLYLINE"><polygon class="cls-5" points="343.04 178.95 345.05 185.81 358.78 181.78 359.01 182.54 367.44 179.99 367.09 178.82 371.74 177.42 372.17 178.86 377.81 177.08 377.13 174.91 386.25 172.24 384.64 167.01 343.04 178.95"/></g><g id="LWPOLYLINE-52" data-name="LWPOLYLINE"><polygon class="cls-5" points="474.59 197.75 478.24 205.18 482.69 202.99 483.49 204.62 486.93 202.93 481.9 192.52 474.59 197.75"/></g><g id="LWPOLYLINE-53" data-name="LWPOLYLINE"><polygon class="cls-5" points="449.59 222.31 453.56 227.04 455.09 230.1 457.44 228.92 455.7 225.13 457.15 223.76 453.18 219.41 449.59 222.31"/></g><g id="LWPOLYLINE-54" data-name="LWPOLYLINE"><polygon class="cls-5" points="447.12 199.55 448.74 202.85 451.8 201.27 450.09 197.96 447.12 199.55"/></g><g id="LWPOLYLINE-55" data-name="LWPOLYLINE"><polygon class="cls-5" points="503.7 173.84 503.13 185.42 504.05 185.36 502.96 190.44 500.99 190.44 500.94 197.33 499.28 201.62 504.26 201.94 504.78 197.69 509.02 197.9 509.02 200.95 513.64 200.95 513.64 197.07 517.26 197.07 517.73 198.78 525.24 194.06 524.57 191.27 516.12 191.11 516.12 192.41 509.44 191.63 510.19 185.18 511.13 172.96 503.7 173.84"/></g><g id="LWPOLYLINE-56" data-name="LWPOLYLINE"><polygon class="cls-5" points="514.04 172.81 514.14 178.26 521.57 177.74 521 172.19 514.04 172.81"/></g><g id="LWPOLYLINE-57" data-name="LWPOLYLINE"><polygon class="cls-5" points="267.68 315.87 274.02 320.67 280.67 311.88 274.38 307.12 267.68 315.87"/></g></g><g id="_04_camino" data-name="04 camino"><g id="POLYLINE"><polyline class="cls-6" points="958.75 530.59 950.39 532.96 942.75 535.22 935.93 536.86 928.11 538.88 920.28 540.63 912.69 541.55 905.34 542.35 898.28 543 891.56 543.52 885.22 543.88 879.27 544.08 873.67 544.12 868.35 543.99 863.22 543.7 858.21 543.24 853.24 542.62 848.24 541.83 843.13 540.87 837.86 539.75 832.45 538.48 826.95 537.08 821.38 535.57 815.81 533.97 810.27 532.3 804.81 530.58 799.46 528.84 794.27 527.08 789.26 525.35 784.47 523.66 779.9 522.05 775.58 520.55 771.54 519.19 767.8 517.99 764.38 516.98 761.3 516.19 758.5 515.57 755.95 515.06 753.58 514.61 751.33 514.17 749.16 513.68 747.01 513.08 744.83 512.33 742.57 511.38 740.23 510.24 737.82 508.93 735.35 507.48 732.83 505.89 730.26 504.21 727.66 502.44 725.04 500.61 722.4 498.74 719.71 496.85 716.96 494.95 714.1 493.07 711.11 491.23 707.97 489.43 704.64 487.71 701.1 486.07 697.33 484.54 693.37 483.05 689.27 481.56 685.08 480.01 680.86 478.35 676.65 476.53 672.5 474.49 668.47 472.18 664.6 469.55 660.85 466.62 657.21 463.42 653.62 459.99 650.07 456.33 646.51 452.5 642.92 448.51 639.25 444.39 635.48 440.18 631.63 435.9 627.73 431.6 623.81 427.29 619.89 423.02 616.02 418.81 612.21 414.71 608.5 410.74 604.9 406.93 601.45 403.27 598.13 399.74 594.98 396.34 591.98 393.05 589.16 389.84 586.52 386.71 584.07 383.64 581.82 380.61 579.76 377.64 577.87 374.72 576.14 371.85 574.55 369.05 573.1 366.32 571.76 363.66 570.52 361.07 569.37 358.57 568.31 356.13 567.34 353.76 566.44 351.43 565.62 349.15 564.88 346.89 564.22 344.65 563.62 342.41 563.09 340.18 562.58 337.95 562.06 335.73 561.46 333.52 560.75 331.34 559.89 329.19 558.82 327.08 557.51 325 555.91 322.98 554.07 320.99 552.03 319.02 549.83 317.06 547.52 315.09 545.14 313.1 542.75 311.08 540.39 309.01 538.09 306.86 535.85 304.59 533.67 302.11 531.53 299.37 529.42 296.3 527.34 292.82 525.28 288.87 523.22 284.38 518.87 276.11 512.34 267.36"/></g><g id="POLYLINE-2" data-name="POLYLINE"><polyline class="cls-6" points="958.75 530.59 969.83 527.66 978.68 525.36 985.6 523.61 990.89 522.35 994.84 521.52 997.76 521.06 999.94 520.9 1001.68 520.97 1003.23 521.23 1004.66 521.7 1005.99 522.4 1007.23 523.37 1008.41 524.65 1009.55 526.26 1010.68 528.25 1011.8 530.65 1012.94 533.46 1014.07 536.61 1015.15 540 1016.14 543.52 1017.02 547.09 1017.74 550.59 1018.28 553.92 1018.6 557 1018.61 559.74 1018.05 562.21 1016.62 564.5 1014.01 566.71 1009.9 568.93 1003.99 571.24 995.97 573.75 985.54 576.54"/></g><g id="POLYLINE-3" data-name="POLYLINE"><polyline class="cls-7" points="188.23 267 189.86 269.05 191.54 270.63 193.3 271.82 195.15 272.66 197.12 273.23 199.21 273.57 201.44 273.77 203.84 273.86 206.4 273.92 209.11 273.94 211.93 273.93 214.8 273.89 217.69 273.82 220.57 273.73 223.4 273.6 226.13 273.45 228.73 273.27 231.2 273.07 233.53 272.85 235.74 272.62 237.82 272.37 239.78 272.12 241.61 271.87 243.32 271.61 244.91 271.36 246.39 271.1 247.75 270.84 249 270.57 250.14 270.29 251.17 269.98 252.11 269.64 252.94 269.28 253.68 268.88 254.34 268.46 254.91 268.01 255.42 267.56 255.87 267.1 256.27 266.64 256.64 266.2 256.97 265.78 257.28 265.38 257.58 265.01 257.91 264.67 258.27 264.36 258.68 264.08 259.17 263.82 259.76 263.59 260.45 263.39 261.27 263.22 262.21 263.07 263.23 262.94 264.32 262.82 265.46 262.7 266.62 262.58 267.79 262.45 268.94 262.31 270.07 262.14 271.21 261.93 272.4 261.66 273.69 261.31 275.13 260.84 276.77 260.25 278.65 259.51 280.82 258.6 283.31 257.5 286.05 256.26 288.98 254.89 292.02 253.45 295.09 251.97 298.12 250.5 301.03 249.06 303.75 247.7 306.23 246.45 308.5 245.31 310.61 244.26 312.61 243.3 314.57 242.41 316.55 241.59 318.58 240.81 320.73 240.09 323.04 239.39 325.48 238.74 328 238.13 330.55 237.58 333.09 237.1 335.57 236.69 337.93 236.37 340.15 236.13 342.17 236 344.01 235.96 345.69 236 347.24 236.13 348.68 236.34 350.03 236.61 351.31 236.95 352.56 237.35 353.78 237.8 354.99 238.29 356.22 238.79 357.48 239.29 358.77 239.77 360.12 240.22 361.55 240.61 363.06 240.94 364.66 241.18 366.35 241.35 368.11 241.47 369.93 241.56 371.78 241.64 373.65 241.73 375.53 241.85 377.4 242.02 379.24 242.26 381.06 242.55 382.87 242.89 384.68 243.28 386.48 243.69 388.3 244.12 390.12 244.57 391.97 245.01 393.85 245.45 395.74 245.88 397.63 246.29 399.51 246.68 401.35 247.04 403.15 247.38 404.88 247.69 406.55 247.96 408.13 248.19 409.69 248.37 411.3 248.51 413.03 248.6 414.94 248.63 417.12 248.61 419.62 248.52 422.53 248.37 425.88 248.16 429.6 247.89 433.6 247.6 437.79 247.31 442.08 247.04 446.37 246.82 450.56 246.66 454.57 246.59 458.32 246.62 461.82 246.76 465.08 246.98 468.15 247.28 471.04 247.64 473.77 248.05 476.38 248.5 478.9 248.98 481.33 249.47 483.69 249.99 485.96 250.52 488.13 251.09 490.2 251.68 492.17 252.3 494.02 252.97 495.75 253.67 497.35 254.42 498.86 255.23 500.28 256.1 501.67 257.06 503.03 258.11 504.41 259.27 505.83 260.55 507.31 261.96 508.88 263.52 510.56 265.3 509.83 264.91"/></g><path class="cls-8" d="M955.07,613.76c-14.53-21.07-17.23-23.23-17.23-31a19.2,19.2,0,0,1,38.4,0c0,7.74-2.69,9.9-17.22,31a2.4,2.4,0,0,1-3.95,0Zm2-23a8,8,0,1,0-8-8A8,8,0,0,0,957,590.79Z"/><circle class="cls-8" cx="190.21" cy="268.87" r="3.62"/></g><g id="zoom"><ellipse class="cls-3" cx="1374.96" cy="309.54" rx="302.75" ry="302.27"/><g class="cls-9"><path class="cls-10" d="M1465.14,197.88l43.39,183.17-10,2.36-43.4-183.17-3.51-5.07-3.43-4-3.35-3.07-3.28-2.26-3.2-1.59-3.1-1.06-3-.65-2.92-.4-2.86-.23-3-.07-3.33.12-3.9.32-4.71.57-5.7.82-7,1.11-8.41,1.42-10,1.75-11.38,2-12.41,2.22-13.14,2.35L1330,196.94l-13.61,2.4-13.34,2.33-12.78,2.19-12,2-11.41,1.83-11.16,1.73-11.22,1.69-11.6,1.68-12.31,1.76-13.32,1.88-14.66,2-16.51,2.33-19.62,2.87-24.17,3.72-30.17,4.88-37.61,6.36L1018,246.74,961.18,257,892.54,269.6l-1.86-10.12,68.64-12.63h0l56.84-10.23h0l46.51-8.13h.06l37.62-6.36h.07l30.17-4.88h.08l24.17-3.72.08,0,19.61-2.86h.06l16.51-2.32,14.67-2.06,20-10.16,15.38-7.84,11.74-6.09,9.11-4.89,7.52-4.24,6.93-4.16,7.37-4.65,8.81-5.69,4,9.55-8.16,4.43-.07.05-7.17,4.52-.17.1-6.8,4.08-.22.13-7.42,4.19-.19.1-9,4.85-.12.06-11.71,6.07-.05,0-10.67,5.44,8.1-1.18,11.18-1.67,11.1-1.72,11.36-1.82,11.94-2,12.73-2.17,13.33-2.32,13.58-2.41,13.53-2.41,13.12-2.34,12.42-2.22,11.38-2h0l10-1.74h.06l8.41-1.43h.09l7-1.12.16,0,5.71-.83.25,0,4.69-.55.37,0,3.9-.33.5,0,3.34-.11h.59l3,.07a5.83,5.83,0,0,1,.59,0l2.85.22.55.06,2.92.39c.28,0,.56.09.83.15l3,.65a11.22,11.22,0,0,1,1.13.33l3.11,1a9.44,9.44,0,0,1,1.27.53l3.19,1.6a8.32,8.32,0,0,1,1.26.74l3.28,2.26a10.14,10.14,0,0,1,1.09.87l3.36,3.06a10.54,10.54,0,0,1,.87.9l3.43,4c.24.28.45.56.66.86Z"/><g id="LWPOLYLINE-58" data-name="LWPOLYLINE"><path class="cls-10" d="M1275.6,86.07l18.6,78.51a5.59,5.59,0,0,0,6.73,4.14l143.6-33.91a5.59,5.59,0,0,0,4.15-6.72l-18.6-78.5a5.59,5.59,0,0,0-6.73-4.15l-143.6,33.91A5.59,5.59,0,0,0,1275.6,86.07Z"/></g><polygon class="cls-2" points="1822.91 113.94 1835.19 182.02 1811.28 188.83 1788.58 194.65 1767.18 199.59 1747.17 203.73 1728.63 207.16 1711.66 209.98 1696.36 212.28 1682.8 214.15 1670.99 215.69 1660.57 216.97 1651.06 218.08 1642.03 219.12 1633 220.18 1623.52 221.31 1613.15 222.64 1601.42 224.24 1587.97 226.16 1572.96 228.47 1556.61 231.18 1539.17 234.29 1520.88 237.84 1501.99 241.84 1482.72 246.31 1480.65 246.84 1473.35 216 1474.05 215.81 1492.31 210.57 1510.71 205.11 1529.03 199.52 1547.1 193.91 1564.69 188.34 1581.61 182.94 1597.67 177.78 1612.74 172.94 1626.97 168.39 1640.58 164.1 1653.76 160.02 1666.74 156.11 1679.75 152.32 1692.99 148.61 1706.67 144.93 1720.94 141.25 1735.69 137.56 1750.71 133.81 1765.79 130.01 1780.75 126.14 1795.39 122.19 1809.51 118.11 1822.91 113.94"/><path class="cls-2" d="M1456.1,220.73l7.23,30.53c-38.36,8.16-76.73,16.33-115,24.79q-84.29,18.6-168.19,38.76c-33,7.86-66,15.81-98.44,26-26.26,8.22-52.2,17.87-79,22.9-28.77,5.39-58.54,5.42-87.85,8.37-10.64,1.07-21.21,2.51-31.79,4l11.92-46.69c23.67-2.09,47.32-4.2,70.64-8.36,27.55-4.93,54.6-12.73,82.1-18.07,39.38-7.62,79.68-10.15,119.2-16.73,60.37-10,118.94-29.49,178.78-42.73,34.47-7.62,69.36-13.19,103.74-21.13Z"/><g id="LWPOLYLINE-59" data-name="LWPOLYLINE"><polyline class="cls-11" points="1460.84 259.3 1463.97 253.98 1459.61 235.56 1455.25 217.15 1450.06 213.8"/></g><g id="LWPOLYLINE-60" data-name="LWPOLYLINE"><polyline class="cls-11" points="1486.56 253.22 1481.37 249.87 1477.01 231.46 1472.64 213.04 1475.78 207.73"/></g></g><ellipse class="cls-12" cx="1374.96" cy="309.54" rx="302.75" ry="302.27"/><circle class="cls-12" cx="957.17" cy="557.23" r="90.89"/><line class="cls-13" x1="1093.11" y1="198.38" x2="881.2" y2="505.9"/><line class="cls-13" x1="966.73" y1="649.94" x2="1381.47" y2="611.65"/></g><g id="zoom_anotaciones" data-name="zoom anotaciones"><g id="LWPOLYLINE-61" data-name="LWPOLYLINE" class="cls-14"><path class="cls-8" d="M1190.37,350.06l28.91,115.71c1.21,5.11,82.72,11.42,87.83,10.21l170.55-42.89a9.51,9.51,0,0,0,7.06-11.45l-31.63-133.72a9.51,9.51,0,0,0-11.44-7.07l-244.22,57.77A9.5,9.5,0,0,0,1190.37,350.06Z"/></g><path class="cls-5" d="M1379.66,82.12h-35.2a4.8,4.8,0,0,0-4.8,4.8v35.2a4.8,4.8,0,0,0,4.8,4.8h35.2a4.8,4.8,0,0,0,4.8-4.8V86.92A4.8,4.8,0,0,0,1379.66,82.12Zm-16,28.8h-4.8v4.8a1.6,1.6,0,0,1-1.6,1.6h-3.2a1.6,1.6,0,0,1-1.6-1.6V93.32a1.6,1.6,0,0,1,1.6-1.6h9.6a9.6,9.6,0,0,1,0,19.2Zm0-12.8h-4.8v6.4h4.8a3.2,3.2,0,0,0,0-6.4Z"/><path class="cls-5" d="M1490.06,511.48a3.19,3.19,0,0,0,2.32,3.88,3.09,3.09,0,0,0,.78.1,3.21,3.21,0,0,0,3.11-2.42l2.52-10.1-5.28-5.28-3.45,13.82Zm1.49-19.61,4.11-15.91a1.57,1.57,0,0,0-1.19-1.91,8.22,8.22,0,0,0-9.93,5.72l-2.53,9.81a1.57,1.57,0,0,0,1.19,1.91l6.36,1.53A1.65,1.65,0,0,0,1491.55,491.87Zm27.21-11.61h-1.6a1.6,1.6,0,0,0-1.6,1.6v1.6h-3.47l-4.68-4.68a5.88,5.88,0,0,0-9.86,2.73l-2.69,10.77a3.16,3.16,0,0,0,.84,3l8.66,8.67v8.27a3.2,3.2,0,1,0,6.4,0V504a6.36,6.36,0,0,0-1.87-4.53l-4.69-4.68.07-.14,2-8,2.24,2.24a3.19,3.19,0,0,0,2.26.94h4.8v24a1.6,1.6,0,0,0,1.6,1.6h1.6a1.6,1.6,0,0,0,1.6-1.6v-32A1.6,1.6,0,0,0,1518.76,480.26Zm-12.8-6.4a4.8,4.8,0,1,0-4.8-4.8A4.8,4.8,0,0,0,1506,473.86Z"/><line class="cls-15" x1="1492.94" y1="534.56" x2="1534.7" y2="524.8"/><polygon class="cls-5" points="1534.13 535.17 1548.68 521.53 1529.59 515.75 1534.13 535.17"/><g id="LWPOLYLINE-62" data-name="LWPOLYLINE"><polygon class="cls-8" points="1362.77 444.96 1363.17 424.72 1344.12 395.94 1219.57 401.78 1219.57 395.52 1213.95 394.9 1209.84 395.14 1209.85 407.92 1185.82 424.62 1185.87 427.82 1188.29 427.8 1188.43 462.72 1176.78 462.21 1174.27 462.39 1174.23 466.27 1174.27 466.27 1174.27 470.15 1223.95 472.91 1223.95 473.31 1254.58 475.02 1263.4 473.89 1319.31 478.26 1362.25 470.82 1362.77 444.96"/></g><polyline class="cls-16" points="1461.7 205.36 1507.15 397.36 1424.49 417.61"/><polygon class="cls-8" points="1425.07 404.63 1407.06 421.87 1431 428.85 1425.07 404.63"/></g><g id="TXT"><text class="cls-17" transform="translate(4.51 676.18)">RÍO TORMES</text><text class="cls-18" transform="translate(613.98 41.5)">AV-941</text><text class="cls-19" transform="translate(175.24 93.43)">Navalperal de Tormes</text><text class="cls-20" transform="translate(1351.92 543.49)">Ruta de las <tspan x="0" y="25.2">Cino Lagunas</tspan></text><text class="cls-17" transform="translate(52.92 313.49)">22km</text><text class="cls-17" transform="translate(1051.85 64.58)">19km</text><text class="cls-20" transform="translate(881.33 26.68)">Navarredonda de Gredos</text><text class="cls-20" transform="translate(0.08 355.72)">El Barco de Ávila</text><line class="cls-21" x1="98.19" y1="325.67" x2="3.99" y2="325.67"/><path class="cls-5" d="M14.25,318.47a.74.74,0,0,1-.23,1l-9.68,6.17L14,331.83a.75.75,0,0,1-.81,1.27L2.54,326.3a.74.74,0,0,1-.35-.63.73.73,0,0,1,.35-.63l10.67-6.8a.77.77,0,0,1,.4-.12A.78.78,0,0,1,14.25,318.47Z"/><line class="cls-21" x1="1050.16" y1="39.95" x2="1144.36" y2="39.95"/><path class="cls-5" d="M1134.11,47.15a.75.75,0,0,1,.23-1L1144,40l-9.68-6.16a.75.75,0,0,1,.8-1.27l10.68,6.8a.74.74,0,0,1,.34.63.75.75,0,0,1-.34.63l-10.68,6.8a.72.72,0,0,1-.4.12A.75.75,0,0,1,1134.11,47.15Z"/></g></svg>