<svg xmlns="http://www.w3.org/2000/svg" xmlns:xlink="http://www.w3.org/1999/xlink" viewBox="0 0 1144.71 1476.4"><defs><style>.cls-1,.cls-19,.cls-4{fill:#f7faf3;}.cls-1,.cls-11,.cls-14,.cls-16,.cls-23,.cls-3,.cls-5{stroke:#064a00;}.cls-1,.cls-11,.cls-14,.cls-16,.cls-17,.cls-23,.cls-3{stroke-miterlimit:10;}.cls-1,.cls-11{stroke-dasharray:7 7;}.cls-2{fill:#add2eb;}.cls-11,.cls-14,.cls-16,.cls-17,.cls-23,.cls-3,.cls-5,.cls-7,.cls-8{fill:none;}.cls-3{stroke-dasharray:5 5;}.cls-5,.cls-7,.cls-8{stroke-linecap:round;stroke-linejoin:round;}.cls-5{stroke-width:0.5px;}.cls-18,.cls-20,.cls-21,.cls-22,.cls-6{fill:#064a00;}.cls-17,.cls-7,.cls-8{stroke:#0a7e00;}.cls-7{stroke-width:3px;stroke-dasharray:0 7;}.cls-8{stroke-width:2px;stroke-dasharray:0 5;}.cls-9{fill:#0a7e00;}.cls-10{clip-path:url(#clip-path);}.cls-12{clip-path:url(#clip-path-2);}.cls-13{fill:#f0eed8;}.cls-15{opacity:0.1;}.cls-16,.cls-17{stroke-width:5px;}.cls-17{stroke-dasharray:10 7;}.cls-18,.cls-19{font-size:21px;}.cls-18{font-family:CenturyGothic, Century Gothic;}.cls-19,.cls-20{font-family:CenturyGothic-Bold, Century Gothic;font-weight:700;}.cls-20{font-size:32px;}.cls-21{font-size:24px;}.cls-21,.cls-22{font-family:CenturyGothic-Italic, Century Gothic;font-style:italic;}.cls-22{font-size:27.3px;}.cls-23{stroke-width:1.5px;}</style><clipPath id="clip-path"><ellipse class="cls-1" cx="-452.61" cy="1053.03" rx="302.75" ry="302.27"/></clipPath><clipPath id="clip-path-2"><ellipse class="cls-1" cx="573.62" cy="1042.88" rx="412.16" ry="411.51"/></clipPath></defs><title>plano navalperal de tormes</title><g id="_03_río" data-name="03 río"><g id="LWPOLYLINE"><polygon class="cls-2" points="1016.47 484.2 1023.51 482.65 1028.85 481.52 1033.94 480.48 1038.75 479.55 1043.24 478.72 1047.4 478 1051.25 477.36 1054.85 476.78 1058.27 476.24 1061.54 475.72 1064.73 475.18 1067.89 474.6 1071.07 473.96 1074.32 473.25 1077.65 472.46 1081.04 471.63 1084.5 470.78 1088.03 469.91 1091.6 469.05 1095.23 468.23 1098.92 467.45 1102.64 466.74 1106.43 466.08 1110.3 465.47 1114.25 464.9 1118.31 464.35 1122.5 463.81 1126.81 463.27 1131.28 462.72 1135.91 462.16 1140.65 461.57 1145.45 460.96 1150.27 460.32 1155.05 459.67 1159.74 458.98 1164.28 458.27 1168.15 457.61 1168.15 482.17 1167.79 482.31 1155.74 486.7 1147.52 489.49 1141.97 491.17 1137.93 492.24 1134.41 493.12 1131.17 493.88 1128.16 494.55 1125.33 495.14 1122.62 495.66 1119.97 496.11 1117.33 496.53 1114.65 496.9 1111.88 497.26 1109.02 497.59 1106.1 497.88 1103.14 498.14 1100.14 498.35 1097.13 498.52 1094.12 498.63 1091.13 498.69 1088.17 498.68 1085.26 498.62 1082.37 498.51 1079.52 498.36 1076.69 498.18 1073.9 497.97 1071.13 497.75 1068.38 497.53 1065.65 497.31 1062.89 497.1 1060.09 496.91 1057.18 496.76 1054.13 496.65 1050.91 496.6 1047.48 496.61 1043.79 496.7 1039.84 496.88 1035.79 497.11 1031.83 497.38 1028.15 497.66 1024.96 497.93 1022.44 498.15 1020.78 498.3 1020.19 498.35 1016.47 484.2"/></g><g id="LWPOLYLINE-2" data-name="LWPOLYLINE"><polygon class="cls-2" points="1011.5 500.06 1007.85 501.03 1001.07 502.66 992.29 504.55 982.2 506.73 971.08 509.25 958.76 511.6 945.95 514.13 933.04 516.76 920.42 519.43 908.49 522.04 897.63 524.52 888.13 526.83 879.83 528.98 872.46 531.04 865.77 533.07 859.49 535.11 853.34 537.22 847.08 539.47 840.42 541.89 833.18 544.54 825.42 547.37 817.31 550.32 808.97 553.33 800.56 556.36 792.21 559.33 784.08 562.19 776.31 564.89 769.01 567.37 762.18 569.63 755.81 571.69 749.87 573.54 744.32 575.18 739.14 576.64 734.32 577.91 729.81 579 725.59 579.92 721.59 580.69 717.74 581.34 713.95 581.9 710.14 582.4 706.25 582.85 702.19 583.29 697.88 583.75 693.28 584.24 688.43 584.75 683.41 585.28 678.28 585.8 673.12 586.31 668.01 586.78 663.01 587.2 658.2 587.56 653.64 587.86 649.37 588.1 645.43 588.34 641.84 588.59 638.64 588.89 635.87 589.28 633.55 589.78 631.71 590.43 630.38 591.26 629.54 592.3 629.13 593.6 629.14 595.19 629.52 597.11 630.24 599.39 631.27 602.08 632.55 605.22 634.07 608.82 635.79 612.84 637.69 617.22 639.73 621.91 641.89 626.85 644.14 631.99 646.46 637.25 648.81 642.59 651.17 647.95 653.5 653.25 655.75 658.44 657.89 663.44 659.88 668.19 661.66 672.62 663.22 676.65 663.55 677.59 647.76 677.59 647.52 676.81 645.95 672.24 644.04 667.16 641.79 661.54 639.22 655.49 636.43 649.17 633.48 642.73 630.45 636.32 627.4 630.09 624.41 624.2 621.56 618.81 618.89 614.02 616.38 609.82 613.99 606.14 611.67 602.92 609.37 600.1 607.05 597.61 604.67 595.4 602.17 593.39 599.53 591.55 596.72 589.86 593.74 588.31 590.59 586.91 587.26 585.66 583.74 584.55 580.02 583.6 576.11 582.78 571.99 582.11 567.66 581.59 563.12 581.22 558.37 581 553.39 580.94 548.19 581.04 542.77 581.3 537.12 581.72 531.23 582.31 525.01 583.1 518.39 584.11 511.28 585.36 503.59 586.88 495.23 588.71 486.11 590.86 476.15 593.36 465.29 596.23 453.59 599.44 441.12 602.96 427.99 606.73 414.27 610.74 400.05 614.93 385.42 619.26 370.46 623.71 355.26 628.23 339.93 632.79 324.57 637.37 309.28 641.91 294.17 646.4 279.35 650.81 264.91 655.1 250.98 659.24 237.5 663.23 223.82 667.17 209.13 671.22 192.65 675.51 -4.95 707.46 -2.27 677.59 5.58 675.66 18.72 672.76 30.47 670.46 41.03 668.65 50.6 667.23 59.37 666.07 67.53 665.07 75.29 664.12 82.81 663.13 90.16 662.09 97.38 661.02 104.5 659.93 111.57 658.83 118.63 657.73 125.71 656.66 132.86 655.63 140.09 654.64 147.34 653.7 154.5 652.79 161.47 651.92 168.16 651.07 174.48 650.24 180.33 649.41 185.6 648.6 190.25 647.78 194.38 646.94 198.17 646.06 201.75 645.13 205.3 644.13 208.97 643.04 212.9 641.84 217.27 640.52 222.2 639.06 227.76 637.46 233.99 635.69 240.93 633.76 248.61 631.65 257.08 629.35 266.39 626.86 276.56 624.17 287.61 621.28 299.45 618.2 311.95 614.97 324.99 611.61 338.46 608.16 352.22 604.64 366.15 601.08 380.13 597.51 394.05 593.95 407.76 590.45 421.15 587.03 434.09 583.71 446.44 580.54 458.09 577.54 468.9 574.75 478.75 572.19 487.56 569.88 495.41 567.83 502.44 566.01 508.77 564.41 514.56 563.02 519.92 561.81 524.99 560.78 529.91 559.9 534.79 559.17 539.63 558.58 544.43 558.12 549.17 557.8 553.84 557.6 558.43 557.53 562.92 557.59 567.31 557.76 571.57 558.05 575.71 558.44 579.72 558.93 583.6 559.52 587.34 560.19 590.94 560.93 594.39 561.75 597.69 562.62 600.84 563.54 603.86 564.5 606.76 565.49 609.58 566.5 612.34 567.5 615.06 568.49 617.76 569.46 620.47 570.39 623.21 571.27 625.98 572.1 628.81 572.88 631.71 573.6 634.68 574.25 637.74 574.84 640.9 575.37 644.17 575.83 647.57 576.21 651.05 576.53 654.6 576.77 658.19 576.95 661.79 577.07 665.37 577.12 668.89 577.11 672.34 577.03 675.69 576.9 678.95 576.7 682.14 576.42 685.29 576.06 688.42 575.6 691.55 575.05 694.69 574.38 697.88 573.6 701.13 572.7 704.45 571.67 707.85 570.54 711.35 569.29 714.95 567.95 718.66 566.51 722.5 564.99 726.48 563.38 730.59 561.7 734.84 559.95 739.2 558.14 743.67 556.27 748.24 554.36 752.88 552.41 757.59 550.43 762.36 548.42 767.17 546.4 772.01 544.37 776.9 542.36 781.82 540.38 786.78 538.45 791.77 536.58 796.8 534.79 801.85 533.09 806.93 531.51 812.01 530.04 817.07 528.67 822.07 527.39 827 526.21 831.83 525.12 836.52 524.11 841.05 523.17 845.41 522.31 849.6 521.51 853.63 520.76 857.51 520.06 861.25 519.4 864.87 518.76 868.38 518.14 871.8 517.53 875.12 516.92 878.36 516.31 881.51 515.7 884.59 515.07 887.58 514.43 890.48 513.78 893.31 513.11 896.06 512.42 898.73 511.7 901.37 510.97 904.01 510.22 906.7 509.47 909.47 508.73 912.37 507.99 915.44 507.26 918.72 506.56 922.24 505.89 926.01 505.22 930.03 504.53 934.29 503.81 938.79 503.02 943.53 502.14 948.5 501.16 953.7 500.05 959.12 498.79 964.74 497.4 970.51 495.92 976.41 494.37 982.38 492.78 988.4 491.18 994.44 489.59 1000.45 488.05 1006.4 486.58 1007.75 486.26 1011.5 500.06"/></g><line class="cls-3" x1="1046.4" y1="529.87" x2="986.28" y2="1059.02"/><line class="cls-3" x1="905.88" y1="437.21" x2="437.96" y2="652.17"/></g><g id="_02_carretera" data-name="02 carretera"><g id="LWPOLYLINE-3" data-name="LWPOLYLINE"><path class="cls-4" d="M1168.15,72l-.92-.42-3-1.42-3-1.48-3.12-1.56-3.25-1.63-3.38-1.7L1148,62.07h0l-3.55-1.77h0l-3.59-1.77,0,0-3.61-1.76h0L1133.6,55l0,0L1130,53.29l0,0-3.46-1.6-.06,0-3.35-1.51-.07,0-3.25-1.42-.08,0-3.14-1.32-.09,0-3-1.22-.11,0-3-1.13-.12,0-2.87-1-.13,0-2.78-.93-.15-.05-2.7-.82-.19-.06-2.69-.73-.27-.07-3-.68-.26,0-3.79-.69-.19,0-5-.75h-.12l-6.56-.87h-.07l-8.57-1h0l-11-1.26h0L1046,34.19h0l-16.91-1.84-19.41-2.09L988.58,28l-22-2.36-22.2-2.36L922.77,21l-20.18-2.15-18-1.91-15.24-1.62L856.69,14h0l-10.43-1.09h0L837.66,12h0l-7.07-.69h0l-5.94-.53h-.07l-5.17-.4h-.09l-4.76-.3h-.09l-4.66-.23h-.09L805,9.64H805l-4.56-.1h-.08l-4.49,0h-.09l-4.41,0h-.09l-4.33.09h-.1l-4.24.15h-.1l-4.14.22h-.1l-4.05.27h-.08l-4,.32h-.07l-3.91.36h0l-3.88.39h0l-3.88.4-3.9.39-3.92.39-4,.37-4,.33-4.1.29-4.12.25-4.09.19-4,.12-3.91.06-3.75,0L714.91,14l-3.34-.19-3.16-.27-3-.35-2.92-.42-2.87-.47-2.84-.53-2.86-.58L691,10.57l-3-.65-3-.65h0l-3.1-.65h-.06L678.6,8h-.08l-3.19-.6-.11,0L672,6.8l-.13,0-3.28-.48-.16,0-3.31-.41-.17,0-3.35-.31h-.18L658,5.31h-.17l-3.38-.13h-.16l-3.38,0h-.16l-3.35,0h-.16L644,5.3h-.16l-3.28.21-.16,0-3.21.29H637l-3.14.38-.19,0-3.08.46-.21,0-3,.56-.23,0-3,.67-.24.06-3,.79-.24.07-3,.93-.24.08-3,1.08-.24.08L611,12.34l-.23.09-3.18,1.42-.26.12-3.37,1.7-.27.14L600,17.9a2,2,0,0,0-.25.14l-4.11,2.59-.21.13L590.74,24a.91.91,0,0,0-.16.11L585.21,28l-.12.1-6.18,4.75-.1.08-6.91,5.9-1.24,1.26-2.61,2.56-4.93,5.42-4.23,4.43-3.62,3.58-3.11,2.87-2.7,2.3-2.41,1.89-2.19,1.56L542.81,66l-2.06,1.15-2.24,1.06-2.56,1-3,1.09-3.62,1.18L525,72.86l-5.07,1.5L514.11,76l-6.44,1.84-7,2-7.56,2.16h0l-8,2.3h0l-8.43,2.45h0l-8.79,2.58h0l-9.08,2.71h0l-9.28,2.8h0L440,97.8l-9.41,2.87-9.33,2.85-9.16,2.78L403.21,109l-8.53,2.54-8.09,2.36-7.66,2.2-7.2,2.06L365,120.05h0l-6.27,1.8h0l-5.8,1.7-.05,0-5.31,1.6-.09,0-4.81,1.53-.13,0-4.37,1.49-.2.07-4.14,1.58-.25.1-4.19,1.8-.24.11-4.5,2.18-.21.1-5.08,2.69-.15.08-5.95,3.35-.09.05L306,144.55l-.06,0-8.48,5.09,0,0-10,6.12h0l-11.31,6.94h0l-12.16,7.49L251.33,178l-12.65,7.79-12.27,7.51-11.49,7-10.28,6.18-8.78,5.16-7.41,4.19-6.3,3.34-5.43,2.63-4.85,2-4.56,1.62-4.6,1.32-5,1.16-5.59,1.1-6.67,1.09-8.28,1.11-10.41,1.16-13,1.27-16.15,1.4-19.77,1.58-80.13,6v6.2l7.09-.52,6.17-.45,5.34-.39,4.63-.34,4-.3,3.53-.26,3.14-.23,2.85-.21,2.68-.2,2.52-.18,2.38-.18,2.27-.17,2.17-.16,2.09-.15,2-.15,2-.15,1.95-.14,1.93-.15,1.9-.14,1.88-.14,1.85-.14L64,244l1.81-.13,1.78-.13,1.75-.14,1.74-.13,1.71-.13,1.68-.13,1.67-.12,1.64-.13,1.62-.12,1.59-.12,1.58-.12,1.55-.12,1.54-.12,1.51-.12,1.49-.12L90.1,242l1.45-.12,1.43-.11,1.41-.11,1.4-.11,1.37-.11,1.35-.11,1.34-.1,1.31-.11,1.3-.11,1.28-.1,1.26-.1,1.25-.11,1.23-.1,1.21-.1,1.19-.1,1.18-.1,1.16-.1,1.15-.1,1.13-.09,1.12-.1,1.1-.1,1.08-.09,1.07-.1,1.06-.09,1-.09,1-.1,1-.09,1-.09,1-.1,1-.09,1-.09.94-.09.93-.09.92-.09.91-.09.89-.09.88-.1.87-.09.86-.09.85-.09.83-.09.82-.09.82-.09.8-.09.79-.1.78-.09.77-.09.76-.09.75-.1.74-.09.73-.1.72-.09.71-.1.7-.09.69-.1.69-.09.68-.1.66-.1.66-.1.66-.1.64-.1.64-.1.63-.11.62-.1.61-.1.61-.11.6-.11.6-.11.59-.1.58-.11.58-.12.57-.11.57-.11.56-.12.55-.11.55-.12.55-.12.54-.12.54-.13.53-.12.53-.13.53-.12.52-.13.52-.14.52-.13.51-.14L165,233l.51-.14.51-.15.51-.15.51-.15.52-.15.51-.17.51-.16.52-.17.52-.17.52-.18.52-.19.53-.19.53-.19.53-.2.54-.21.55-.21.55-.22.55-.23.57-.23.57-.24.58-.25.58-.26.6-.26.6-.27.61-.29.62-.29.64-.29.64-.31.65-.32.67-.33.68-.33.69-.35.7-.36.71-.36.73-.38.75-.39.76-.4.77-.42.79-.42.8-.44.82-.44.84-.47.86-.47.87-.49.89-.49.91-.52.93-.52.95-.54,1-.56,1-.57,1-.58,1-.6,1.05-.61,1.08-.63,1.09-.64,1.12-.66,1.14-.68,1.17-.69,1.18-.7,1.21-.72,1.23-.74,1.26-.75,1.27-.76,1.3-.78,1.32-.79,1.33-.81,1.36-.82,1.37-.83,1.4-.84,1.4-.86,1.43-.86,1.44-.88,1.45-.88,1.47-.9,1.48-.9,1.5-.91,1.5-.92,1.51-.93,1.53-.94,1.53-.93,1.54-1,1.55-.95,1.56-1,1.56-.95,1.57-1,1.57-1,1.57-1,1.58-1,1.57-1,1.58-1,1.58-1,1.58-1,1.58-1,1.57-1,1.57-1,1.57-1,1.56-1,1.56-1,1.55-1,1.55-1,1.53-.94,1.53-.94,1.52-.94,1.51-.93,1.5-.92,1.48-.92,1.48-.9,1.46-.9,1.44-.89,1.43-.88,1.42-.86,1.39-.86,1.38-.85,1.37-.83,1.34-.83,1.32-.81,1.31-.79,1.28-.79,1.26-.76,1.24-.76,1.22-.74,1.19-.72,1.17-.71,1.14-.7,1.13-.67,1.09-.66,1.08-.65,1-.63,1-.62,1-.6,1-.58,1-.57.94-.56.91-.54.9-.53.88-.51.86-.5.84-.49.83-.48.8-.46.79-.45.77-.44.76-.42.74-.42.72-.4.71-.4.7-.38.68-.37.67-.36.66-.35.64-.35.64-.33.62-.33.62-.31.6-.31.6-.3.58-.29L329,139l.57-.27.56-.28.56-.26.55-.26.55-.25.54-.24.53-.24.53-.24.53-.23.53-.22.52-.23.52-.21.53-.22.52-.2.52-.21.52-.2.52-.2.52-.2.52-.2.53-.19.53-.19.53-.2.54-.19.54-.19.55-.18.55-.19.56-.19.56-.19.57-.19.58-.19.59-.19.59-.19.6-.19.6-.19.62-.2.62-.19.63-.2.64-.19.64-.2.65-.2.66-.2.67-.2.68-.21.68-.2.69-.21.7-.21.7-.2.71-.21.73-.22.72-.21.74-.21.74-.22.75-.22.76-.22.77-.22.77-.22.78-.23.79-.23.79-.22.81-.23.81-.24.81-.23.83-.24.83-.23.84-.24.85-.25.85-.24.86-.25.87-.24.88-.25.88-.26.89-.25.9-.26.9-.25.91-.27.92-.26.93-.26.93-.27.94-.27.95-.27,1-.28,1-.28,1-.28,1-.28,1-.28,1-.29,1-.29,1-.29,1-.3,1-.3,1-.3,1-.3,1-.31,1-.31,1.06-.31,1.06-.31,1.06-.32,1.07-.31,1.08-.33,1.08-.32,1.09-.32,1.09-.33,1.1-.33,1.11-.33,1.11-.34,1.11-.33,1.12-.34,1.12-.34,1.13-.34,1.13-.34,1.14-.35,1.14-.34,1.14-.35,1.15-.35,1.15-.34,1.15-.35,1.15-.36,1.16-.35,1.16-.35,1.16-.36,1.17-.35,1.16-.36,1.17-.35,1.17-.36,1.17-.36,1.17-.35,1.18-.36,1.17-.36,1.18-.36,1.17-.35,1.18-.36,1.17-.36,1.18-.36,1.17-.36,1.18-.35,1.17-.36,1.17-.36,1.17-.35,1.17-.36,1.17-.35,1.17-.36,1.17-.35,1.16-.35,1.16-.36,1.16-.35L457,99.2l1.16-.34,1.15-.35,1.15-.35,1.14-.34,1.14-.34,1.14-.34L465,96.8l1.13-.34,1.13-.34,1.12-.33,1.12-.33,1.11-.33,1.11-.33,1.1-.33,1.1-.32,1.1-.32,1.09-.32,1.08-.32,1.08-.32,1.07-.31,1.07-.31,1.06-.31,1.06-.31,1.05-.3,1-.31,1-.3,1-.3,1-.29,1-.3,1-.29,1-.29,1-.29,1-.28,1-.28,1-.29,1-.27,1-.28.95-.27.95-.27.94-.27.93-.27.92-.26.92-.27.91-.26.9-.25.89-.26.88-.25.87-.25.87-.25.85-.24.85-.24.84-.24.83-.24.82-.24.81-.23.8-.23.79-.22.78-.23.77-.22.76-.22.75-.22.75-.21.73-.21.72-.21.71-.21.7-.2.69-.2.67-.2.67-.2.66-.19.64-.19.64-.19.62-.19.61-.18.6-.18.59-.18.58-.17.57-.17.55-.17.55-.17.54-.17.52-.16.52-.16.5-.16.5-.16.49-.16.47-.15.47-.16.46-.15.45-.15.44-.15.44-.15.43-.15.41-.15.42-.14.4-.15.4-.15.39-.14.38-.15.38-.14.38-.15.36-.15.36-.14.36-.15.35-.15.35-.15L541,74l.33-.15.34-.15.32-.16.33-.15.32-.15L543,73l.31-.16.32-.16.31-.16.3-.16.31-.17.3-.16.31-.17.3-.17.3-.18.29-.17.3-.18.3-.19.29-.18.3-.19.3-.19.3-.19.29-.2.3-.2.3-.21.3-.21.31-.21.3-.22.31-.22.31-.22.31-.23.31-.24.32-.24.32-.24.32-.25.33-.26.33-.26.33-.26.34-.27.34-.28.35-.29.35-.29.35-.3.37-.31.36-.31.37-.33.38-.33.38-.34.39-.34.4-.36.4-.37.41-.37.41-.39.43-.39.42-.41.44-.42.45-.42.45-.44.46-.45.46-.46.48-.48.48-.48.5-.5.5-.51.51-.52.52-.54.53-.55.54-.56.55-.58.56-.59.57-.61.58-.62.59-.64.59-.64.6-.65.58-.64.58-.63.56-.62.54-.6.51-.56.48-.54.48-.53.51-.55.56-.58.64-.66.76-.74.9-.87,1.08-1,1.27-1.17,1.46-1.31,1.64-1.44,1.8-1.53,2-1.61L588,33l2.22-1.7,2.34-1.7L595,27.93l2.54-1.66,2.61-1.61,2.69-1.56,2.74-1.49,2.78-1.4,2.82-1.31L614,17.71l2.84-1.08,2.86-1,2.89-.85,2.91-.74,3-.64,3-.54,3.07-.46,3.14-.37,3.21-.29,3.27-.21,3.32-.13,3.36,0,3.37,0,3.38.13,3.37.23,3.35.31,3.32.4,3.27.48,3.24.55,3.19.59,3.15.63,3.1.65,3,.65,3,.65,3,.62,2.94.59,2.95.55,3,.5,3.08.44,3.19.36,3.34.29,3.52.21,3.71.11,3.89,0,4-.06,4.12-.13,4.17-.19,4.2-.25,4.17-.3,4.12-.34,4-.37,3.95-.39,3.91-.4,3.88-.39,3.89-.39,3.91-.35,4-.32,4-.27,4.14-.21,4.25-.15,4.33-.09,4.41,0,4.48,0,4.55.1,4.61.17,4.66.23,4.77.31L824,17l5.94.53,7.07.69,8.58.87L856,20.21l12.65,1.34,15.24,1.62,18,1.92,20.18,2.14,21.57,2.3,22.2,2.36,22,2.35L1009,36.5l19.4,2.09,16.91,1.84L1059.17,42l11,1.26,8.57,1,6.56.86,5,.75,3.79.69,3,.69,2.69.73,2.7.83,2.78.93,2.87,1,3,1.12,3,1.23,3.15,1.32,3.25,1.42,3.35,1.51,3.45,1.61,3.54,1.67,3.58,1.73,3.6,1.77,3.6,1.77,3.55,1.77,3.47,1.75,3.38,1.69,3.26,1.64,3.15,1.57,3.08,1.51,3,1.44,3,1.39.58.26Z"/></g></g><g id="_02_puente" data-name="02 puente"><g id="LWPOLYLINE-4" data-name="LWPOLYLINE"><polyline class="cls-5" points="1012.54 518.54 1015.06 514.02 1011.01 498.66 1006.97 483.31 1002.56 480.61"/></g><g id="LWPOLYLINE-5" data-name="LWPOLYLINE"><polyline class="cls-5" points="1028.13 514.44 1023.71 511.74 1019.67 496.38 1015.63 481.03 1018.14 476.5"/></g></g><g id="_01_pueblo" data-name="01 pueblo"><g id="LWPOLYLINE-6" data-name="LWPOLYLINE"><polygon class="cls-6" points="196.51 231.56 196.41 236.59 200.49 236.67 199.18 240.71 193.9 239.4 193.29 244.13 209.18 249.35 210.63 244.96 204.24 242.86 206.16 238.15 202.19 237.24 202.49 231.86 196.51 231.56"/></g><g id="LWPOLYLINE-7" data-name="LWPOLYLINE"><polygon class="cls-6" points="211.8 231.61 210.44 239 218.94 241.87 214.66 250.81 223.21 254.53 229.81 242.09 235.66 241.13 248.99 240.38 249.74 234.85 249.74 229.24 243.21 229.83 236.8 230.09 230.49 231.14 230.18 234.76 221.77 232.08 211.8 231.61"/></g><g id="LWPOLYLINE-8" data-name="LWPOLYLINE"><polyline class="cls-6" points="221.61 264.11 226.41 266.44 229.73 259.61 224.61 257.57 221.61 264.11"/></g><g id="LWPOLYLINE-9" data-name="LWPOLYLINE"><polygon class="cls-6" points="237.33 258.55 246.94 264.24 250.51 259.14 260.63 264.58 265.9 256.51 270.91 258.55 273.63 254.05 267.19 250.16 265.98 254.3 257.9 252.01 255.18 257.44 250.8 255.25 254.84 247.16 264.11 249.12 265.56 239.43 252.97 236.2 249.15 244.53 245.08 242.66 243.37 246.39 246.6 248.86 246.6 252.35 242.52 250.39 237.33 258.55"/></g><g id="LWPOLYLINE-10" data-name="LWPOLYLINE"><polygon class="cls-6" points="255.83 226.25 256.09 232.75 266.56 232.4 265.98 220.61 259.64 220.82 259.78 226.08 255.83 226.25"/></g><g id="LWPOLYLINE-11" data-name="LWPOLYLINE"><polygon class="cls-6" points="210.05 218.62 211.73 225.7 218.27 223.91 216.27 216.72 210.05 218.62"/></g><g id="LWPOLYLINE-12" data-name="LWPOLYLINE"><rect class="cls-6" x="237.61" y="174.7" width="7.43" height="5.84" transform="translate(-57.6 156.77) rotate(-32.36)"/></g><g id="LWPOLYLINE-13" data-name="LWPOLYLINE"><polygon class="cls-6" points="206.52 183.5 207.57 191.5 215.39 190.47 214.32 182.25 206.52 183.5"/></g><g id="LWPOLYLINE-14" data-name="LWPOLYLINE"><polygon class="cls-6" points="247.57 158.15 249.29 163.93 256.92 162.26 254.58 154.69 247.57 158.15"/></g><g id="LWPOLYLINE-15" data-name="LWPOLYLINE"><polygon class="cls-6" points="261.71 118.2 261.26 124.41 257.9 124.41 258.96 131.63 266.69 131.01 266.36 126.81 274.03 126.81 273.13 121.11 261.71 118.2"/></g><g id="LWPOLYLINE-16" data-name="LWPOLYLINE"><polygon class="cls-6" points="285.26 129.04 285.69 136.54 297.1 136.32 298.43 143.49 306.27 141.5 303.37 130.22 285.26 129.04"/></g><g id="LWPOLYLINE-17" data-name="LWPOLYLINE"><polygon class="cls-6" points="344.8 110.27 345.09 114.15 347.6 114.32 348.57 121.97 355.25 121.13 354.06 113.58 350.99 113.74 350.61 109.82 344.8 110.27"/></g><g id="LWPOLYLINE-18" data-name="LWPOLYLINE"><polygon class="cls-6" points="235.77 207.76 236.57 215.31 240.24 215.01 240.33 216.07 246.59 215.35 246.46 214.32 250 214.04 248.85 205.95 244.73 206.28 244.84 207.54 239.66 208.01 239.58 207.16 235.77 207.76"/></g><g id="LWPOLYLINE-19" data-name="LWPOLYLINE"><polygon class="cls-6" points="251.05 197.9 251.41 206.3 259.59 205.96 259.22 197.61 251.05 197.9"/></g><g id="LWPOLYLINE-20" data-name="LWPOLYLINE"><polyline class="cls-6" points="243.71 220.87 244.32 225.87 252.4 224.38 254.73 221.94 256.75 219.2 254.73 211.29 250.22 212.45 251.71 218.05 251.38 218.98 243.71 220.87"/></g><g id="LWPOLYLINE-21" data-name="LWPOLYLINE"><polyline class="cls-6" points="268.94 221.28 270.88 227.63 289.47 221.01 290.21 222.15 295.41 221.18 295.33 219.84 306.15 215.51 314.69 213.5 323.03 213.5 321.08 203.95 318.7 204.45 317.14 199.86 311.23 201.86 303.43 205.25 295.8 209.72 293.1 211.08 293.89 214.3 289.27 215.19 288.21 213.11 277.98 217.82 268.94 221.28"/></g><g id="LWPOLYLINE-22" data-name="LWPOLYLINE"><polygon class="cls-6" points="343.61 211 348.65 209.83 348.13 207.61 356.51 204.96 356.22 204.19 361.06 199.82 355.75 196.16 348.96 193.47 345.46 193.3 345.63 197.65 346.62 197.65 347.21 202.3 345.7 202.61 341.37 203.28 342.39 209.91 337.96 210.49 336.95 202.22 344.67 200.78 344.16 198.05 343.55 198.17 343.27 193.18 334.8 194.19 334.9 195.02 326.41 196.32 326.51 196.98 322.76 197.83 323.13 204.38 324.01 209.21 325.85 219.07 332.45 217.3 331.91 212.2 333.95 211.93 334.61 216.86 339.2 216.25 339.12 213.56 343.89 212.84 343.61 211"/></g><g id="LWPOLYLINE-23" data-name="LWPOLYLINE"><polygon class="cls-6" points="352.35 208.31 351.76 209.77 351.76 212.3 357.91 212.49 358 208.14 352.35 208.31"/></g><g id="LWPOLYLINE-24" data-name="LWPOLYLINE"><polyline class="cls-6" points="363.04 200.11 364.03 206.59 368.93 206.59 369.29 210.86 365.33 210.86 365.33 214.99 370.32 214.99 370.06 210.94 376.49 211.49 379.27 211.49 382.46 210.55 385.23 210.35 388.01 202.99 383.58 201 376.52 199.38 372.13 198.79 367.83 198.79 364.67 198.79 363.04 200.11"/></g><g id="LWPOLYLINE-25" data-name="LWPOLYLINE"><polyline class="cls-6" points="374.09 215.58 376.32 224.35 381.69 220.4 386.88 215.4 387.38 212.8 385.33 211.39 379.1 213.26 374.09 215.58"/></g><g id="LWPOLYLINE-26" data-name="LWPOLYLINE"><polyline class="cls-6" points="404.86 207.57 405.15 214.7 420.92 214.05 420.97 212.79 428.63 212.1 427.71 205.46 419.9 206.34 419.97 206.93 404.86 207.57"/></g><g id="LWPOLYLINE-27" data-name="LWPOLYLINE"><polygon class="cls-6" points="432.51 207.94 434.85 215.32 441.51 213.21 439.22 205.97 432.51 207.94"/></g><g id="LWPOLYLINE-28" data-name="LWPOLYLINE"><polygon class="cls-6" points="468.09 213.31 470.57 219.53 479.81 215.85 477.28 209.49 468.09 213.31"/></g><g id="LWPOLYLINE-29" data-name="LWPOLYLINE"><polygon class="cls-6" points="442.51 210.02 444.57 215.88 461.48 209.95 459.29 204.13 442.51 210.02"/></g><g id="LWPOLYLINE-30" data-name="LWPOLYLINE"><polygon class="cls-6" points="453.38 225.83 454.51 229.01 470.31 222.89 469.12 219.81 453.38 225.83"/></g><g id="LWPOLYLINE-31" data-name="LWPOLYLINE"><polyline class="cls-6" points="509.8 209.78 515.9 214.12 519.31 209.54 521.51 207.63 516.11 202.66 513.52 205.47 512.67 204.91 509.8 209.78"/></g><g id="LWPOLYLINE-32" data-name="LWPOLYLINE"><polygon class="cls-6" points="267.89 199.22 270.86 205 272.62 204.47 274.05 207.66 276.66 206.49 278.63 214.47 292.42 208.14 308.29 200.16 315.37 196.6 315.11 195.55 317.34 194.28 317.04 188.31 312.97 188.91 305.79 190.78 306.43 192.08 291.37 198.62 290.84 198.86 293.87 206.53 292.2 207.39 288.23 198.51 287.35 196.56 288.95 195.84 286.19 188 284.45 188.41 283.59 184.75 279.43 185.73 280.38 189.78 278.3 190.89 271.17 194.22 267.89 199.22"/></g><g id="LWPOLYLINE-33" data-name="LWPOLYLINE"><polygon class="cls-6" points="317.95 183.65 319.26 193.24 324.91 192.09 325.15 193.3 332.6 191.78 332.28 190.42 338.05 189.53 338.05 182.97 338.92 182.69 337.05 173.5 331.28 174.88 325.61 175.61 318.35 175.68 317.95 183.65"/></g><g id="LWPOLYLINE-34" data-name="LWPOLYLINE"><polygon class="cls-6" points="337.19 169.27 340.21 177.72 341.72 188.37 346.92 187.63 346.52 181.34 349.2 181.06 348.36 174.37 350.65 173.59 350.2 171.75 354.14 170.46 354.64 171.97 358.97 170.15 356.11 164.11 352.08 162.38 349.56 162.82 337.19 169.27"/></g><g id="LWPOLYLINE-35" data-name="LWPOLYLINE"><polyline class="cls-6" points="359.62 172.13 355.18 173.62 356.75 180.23 355.01 180.65 356.69 187.02 362.94 185.37 361.12 177.72 359.62 172.13"/></g><g id="LWPOLYLINE-36" data-name="LWPOLYLINE"><polygon class="cls-6" points="357.3 188.01 359.39 194.67 366.67 192.75 364.52 185.87 357.3 188.01"/></g><g id="LWPOLYLINE-37" data-name="LWPOLYLINE"><polyline class="cls-6" points="368.59 187.92 366.6 188.52 368.63 193.86 377.2 190.48 380.37 186.46 380.8 183.22 379.11 176.19 376.94 173.1 371.29 173.45 370.54 170.59 369.75 166.26 375.88 165.12 376.41 167.96 375.65 170.04 380.92 173.93 385.78 169.35 389.56 166.26 389.22 157.39 380.46 157.91 374.76 157.57 369.88 158.36 363.72 159.35 356.95 160.65 357.78 163.2 360.15 169.66 362.23 176.31 363.73 175.93 365.11 179.84 367.97 179.04 370.51 178.54 371.74 181.43 371.99 184 367.94 184.36 368.59 187.92"/></g><g id="LWPOLYLINE-38" data-name="LWPOLYLINE"><polyline class="cls-6" points="379.24 189.82 379.96 192.66 382.14 197.2 394.25 199.49 394.12 193.75 401.57 193.75 401.08 200.16 404.92 201.06 407.11 199.3 407.56 195.59 403.09 194.97 403.37 191.31 406.55 191.56 406.46 192.79 408.36 192.96 409.05 182.14 400.15 181.16 399.93 183.18 395.97 183.18 395.73 186.69 391.98 186.69 391.89 188.04 384.65 188.31 384.19 186.95 379.24 189.82"/></g><g id="LWPOLYLINE-39" data-name="LWPOLYLINE"><polyline class="cls-6" points="380.68 176.72 381.39 179.9 382.98 180.44 383.64 179.61 387.42 182.08 386.83 186.48 391.19 186.28 392.42 183.01 391.73 181.09 392.16 180.19 395.47 180.31 395.55 178.24 404.24 178.63 404.24 180.01 408.93 180.18 409.19 172.78 407.15 167.76 402.37 168.67 398.7 159.07 393.15 161.18 391.92 162.79 390.96 165.92 390.88 170.25 391.89 170.98 393.35 175.05 391.73 174.97 390.96 173.36 386.49 170.66 380.68 176.72"/></g><g id="LWPOLYLINE-40" data-name="LWPOLYLINE"><polyline class="cls-6" points="410.87 179.73 410.01 196.48 413.02 197 413.02 202.69 420.23 202.69 419.31 198.7 426.9 196.41 428.67 200.93 434.11 199.03 432.47 194.32 438.69 192.16 440.98 197.66 451.78 192.75 452.31 193.91 455.81 192.32 452.74 185.55 449.49 182.94 444.71 176.52 443.34 174.3 435.15 177.21 436.15 180.01 433.77 181.16 434.67 183.38 424.1 187.1 423.56 181.49 420.01 177.8 416.85 178.66 418.75 183.79 415.65 184.94 414.54 178.72 410.87 179.73"/></g><g id="LWPOLYLINE-41" data-name="LWPOLYLINE"><polygon class="cls-6" points="401.29 154.24 405.79 164.65 416.28 160.75 415.54 158.74 419.65 157.23 420.84 155.69 421.21 154.44 421.39 152.75 420.68 151.32 418.8 150.26 416.38 150.44 414.63 150.74 412.84 151.39 412.2 149.63 401.29 154.24"/></g><g id="LWPOLYLINE-42" data-name="LWPOLYLINE"><polygon class="cls-6" points="420.6 166.43 421.27 168.2 411.46 171.14 413.4 176.78 417.15 175.5 416.77 174.4 420.37 173.19 420.72 174.26 424.99 172.94 425.78 175.51 431.02 174.26 430.78 173.28 435.33 172.9 434.65 165.33 428.44 165.9 425.66 166.15 425.05 164.75 423.34 160.25 418.89 161.94 420.6 166.43"/></g><g id="LWPOLYLINE-43" data-name="LWPOLYLINE"><polyline class="cls-6" points="457.68 196.24 460.25 200.26 466.98 196.86 468.09 200.4 478.36 199.91 478.51 203.04 487.66 203.59 487.34 204.74 493.91 207.18 494.93 204.44 495.22 200.31 491.45 200.13 491.66 184.35 489.57 184.28 489.16 180.59 485.42 181.04 483.28 177.2 476.82 182 468.45 187.71 469.09 188.65 457.68 196.24"/></g><g id="LWPOLYLINE-44" data-name="LWPOLYLINE"><polygon class="cls-6" points="496.13 193.36 496.08 198.82 497.71 198.82 497.71 202.07 503.3 202.12 503.3 195.34 500.31 195.34 500.22 193.36 496.13 193.36"/></g><g id="LWPOLYLINE-45" data-name="LWPOLYLINE"><polygon class="cls-6" points="396.65 138.38 399.57 145.08 413.25 139.45 409.61 132.4 396.65 138.38"/></g><g id="LWPOLYLINE-46" data-name="LWPOLYLINE"><polygon class="cls-6" points="393.44 127.06 395.01 131.19 406.72 126.75 403.77 119.59 395.15 122.58 396.27 125.8 393.44 127.06"/></g><g id="LWPOLYLINE-47" data-name="LWPOLYLINE"><polygon class="cls-6" points="431.93 146.63 423.69 146.63 423.55 156.08 429.26 156.08 427.45 159.02 428.27 161 431.26 164.03 435.06 163.57 434.69 156.13 432.36 156.07 432.36 153.55 434.6 153.55 434.51 151.43 438.07 151.43 439.04 153.49 442.53 152.7 442.81 153.91 439.95 154.89 440.91 157.69 439.8 159.78 439.9 164.35 439.92 165.23 441.07 165.57 445.16 163.79 443.34 160.55 445.55 159.37 447.89 163.75 454.29 160.34 450.32 153.03 448.06 151.36 450.57 149.88 446.43 139.91 438.9 143.04 438.58 142.38 435.84 143.69 436.9 145.9 431.93 146.63"/></g><g id="LWPOLYLINE-48" data-name="LWPOLYLINE"><polygon class="cls-6" points="490.11 170.61 491.77 175.59 498.21 173.44 496.45 168.43 490.11 170.61"/></g><g id="LWPOLYLINE-49" data-name="LWPOLYLINE"><polygon class="cls-6" points="324.27 150.15 326.77 158.82 328.49 158.33 329.61 162.18 334.13 160.81 330.97 150.52 329.15 151.08 328.54 149.1 324.27 150.15"/></g><g id="LWPOLYLINE-50" data-name="LWPOLYLINE"><polyline class="cls-6" points="331.03 140.71 332.95 148.09 334.2 147.72 336.7 158.9 338.93 158.4 341.04 164.7 347.15 161.76 352.44 159.85 355.86 158.74 360.61 157.82 359.33 151.24 354.74 152.13 353.71 145.6 342.16 146.25 341.82 144.63 338.73 145.3 337.09 139.12 331.03 140.71"/></g><g id="LWPOLYLINE-51" data-name="LWPOLYLINE"><polygon class="cls-6" points="343.04 135.03 345.05 141.9 358.78 137.86 359.01 138.63 367.44 136.08 367.09 134.91 371.74 133.5 372.17 134.94 377.81 133.17 377.13 130.99 386.25 128.32 384.64 123.09 343.04 135.03"/></g><g id="LWPOLYLINE-52" data-name="LWPOLYLINE"><polygon class="cls-6" points="474.59 153.84 478.24 161.26 482.69 159.08 483.49 160.71 486.93 159.02 481.9 148.6 474.59 153.84"/></g><g id="LWPOLYLINE-53" data-name="LWPOLYLINE"><polygon class="cls-6" points="449.59 178.39 453.56 183.13 455.09 186.18 457.44 185 455.7 181.22 457.15 179.84 453.18 175.49 449.59 178.39"/></g><g id="LWPOLYLINE-54" data-name="LWPOLYLINE"><polygon class="cls-6" points="447.12 155.63 448.74 158.93 451.8 157.36 450.09 154.05 447.12 155.63"/></g><g id="LWPOLYLINE-55" data-name="LWPOLYLINE"><polygon class="cls-6" points="503.7 129.93 503.13 141.51 504.05 141.45 502.96 146.52 500.99 146.52 500.94 153.41 499.28 157.71 504.26 158.02 504.78 153.77 509.02 153.98 509.02 157.04 513.64 157.04 513.64 153.15 517.26 153.15 517.73 154.86 525.24 150.15 524.57 147.35 516.12 147.2 516.12 148.49 509.44 147.72 510.19 141.27 511.13 129.05 503.7 129.93"/></g><g id="LWPOLYLINE-56" data-name="LWPOLYLINE"><polygon class="cls-6" points="514.04 128.89 514.14 134.35 521.57 133.83 521 128.27 514.04 128.89"/></g><g id="LWPOLYLINE-57" data-name="LWPOLYLINE"><polygon class="cls-6" points="267.68 271.95 274.02 276.75 280.67 267.97 274.38 263.21 267.68 271.95"/></g></g><g id="_04_camino" data-name="04 camino"><g id="POLYLINE"><polyline class="cls-7" points="958.75 486.68 950.39 489.05 942.75 491.3 935.93 492.95 928.11 494.97 920.28 496.72 912.69 497.64 905.34 498.43 898.28 499.09 891.56 499.6 885.22 499.96 879.27 500.16 873.67 500.2 868.35 500.07 863.22 499.78 858.21 499.33 853.24 498.7 848.24 497.92 843.13 496.96 837.86 495.83 832.45 494.56 826.95 493.16 821.38 491.65 815.81 490.05 810.27 488.38 804.81 486.67 799.46 484.92 794.27 483.17 789.26 481.43 784.47 479.75 779.9 478.14 775.58 476.64 771.54 475.27 767.8 474.07 764.38 473.07 761.3 472.28 758.5 471.65 755.95 471.14 753.58 470.69 751.33 470.25 749.16 469.76 747.01 469.17 744.83 468.42 742.57 467.47 740.23 466.33 737.82 465.02 735.35 463.56 732.83 461.98 730.26 460.29 727.66 458.52 725.04 456.69 722.4 454.82 719.71 452.93 716.96 451.04 714.1 449.16 711.11 447.31 707.97 445.52 704.64 443.8 701.1 442.16 697.33 440.62 693.37 439.13 689.27 437.64 685.08 436.09 680.86 434.44 676.65 432.62 672.5 430.57 668.47 428.26 664.6 425.63 660.85 422.7 657.21 419.51 653.62 416.07 650.07 412.42 646.51 408.58 642.92 404.59 639.25 400.48 635.48 396.27 631.63 391.99 627.73 387.68 623.81 383.37 619.89 379.1 616.02 374.9 612.21 370.79 608.5 366.82 604.9 363.01 601.45 359.35 598.13 355.83 594.98 352.43 591.98 349.13 589.16 345.92 586.52 342.79 584.07 339.72 581.82 336.7 579.76 333.72 577.87 330.8 576.14 327.94 574.55 325.14 573.1 322.41 571.76 319.75 570.52 317.16 569.37 314.65 568.31 312.22 567.34 309.84 566.44 307.52 565.62 305.23 564.88 302.97 564.22 300.73 563.62 298.5 563.09 296.26 562.58 294.03 562.06 291.81 561.46 289.61 560.75 287.43 559.89 285.28 558.82 283.16 557.51 281.09 555.91 279.06 554.07 277.07 552.03 275.11 549.83 273.14 547.52 271.18 545.14 269.19 542.75 267.16 540.39 265.09 538.09 262.95 535.85 260.67 533.67 258.2 531.53 255.46 529.42 252.38 527.34 248.9 525.28 244.95 523.22 240.46 518.87 232.2 512.34 223.45"/></g><g id="POLYLINE-2" data-name="POLYLINE"><polyline class="cls-7" points="958.75 486.68 969.83 483.75 978.68 481.44 985.6 479.69 990.89 478.44 994.84 477.61 997.76 477.15 999.94 476.99 1001.68 477.06 1003.23 477.32 1004.66 477.78 1005.99 478.48 1007.23 479.45 1008.41 480.73 1009.55 482.35 1010.68 484.34 1011.8 486.73 1012.94 489.54 1014.07 492.69 1015.15 496.08 1016.14 499.61 1017.02 503.17 1017.74 506.67 1018.28 510.01 1018.6 513.08 1018.61 515.83 1018.05 518.3 1016.62 520.59 1014.01 522.8 1009.9 525.01 1003.99 527.33 995.97 529.83 985.54 532.63"/></g><g id="POLYLINE-3" data-name="POLYLINE"><polyline class="cls-8" points="188.23 223.09 189.86 225.13 191.54 226.72 193.3 227.9 195.15 228.75 197.12 229.31 199.21 229.66 201.44 229.85 203.84 229.95 206.4 230 209.11 230.03 211.93 230.02 214.8 229.98 217.69 229.91 220.57 229.81 223.4 229.69 226.13 229.53 228.73 229.36 231.2 229.16 233.53 228.94 235.74 228.7 237.82 228.46 239.78 228.21 241.61 227.95 243.32 227.69 244.91 227.44 246.39 227.19 247.75 226.93 249 226.66 250.14 226.37 251.17 226.06 252.11 225.73 252.94 225.37 253.68 224.97 254.34 224.54 254.91 224.1 255.42 223.64 255.87 223.18 256.27 222.73 256.64 222.29 256.97 221.86 257.28 221.47 257.58 221.1 257.91 220.76 258.27 220.44 258.68 220.16 259.17 219.91 259.76 219.68 260.45 219.48 261.27 219.31 262.21 219.16 263.23 219.03 264.32 218.9 265.46 218.78 266.62 218.66 267.79 218.53 268.94 218.39 270.07 218.22 271.21 218.02 272.4 217.75 273.69 217.39 275.13 216.93 276.77 216.34 278.65 215.6 280.82 214.69 283.31 213.59 286.05 212.34 288.98 210.98 292.02 209.54 295.09 208.06 298.12 206.58 301.03 205.14 303.75 203.78 306.23 202.53 308.5 201.39 310.61 200.34 312.61 199.38 314.57 198.49 316.55 197.67 318.58 196.9 320.73 196.17 323.04 195.48 325.48 194.82 328 194.22 330.55 193.67 333.09 193.19 335.57 192.78 337.93 192.45 340.15 192.22 342.17 192.08 344.01 192.04 345.69 192.09 347.24 192.22 348.68 192.42 350.03 192.7 351.31 193.04 352.56 193.44 353.78 193.89 354.99 194.37 356.22 194.87 357.48 195.37 358.77 195.86 360.12 196.3 361.55 196.7 363.06 197.02 364.66 197.26 366.35 197.43 368.11 197.55 369.93 197.64 371.78 197.73 373.65 197.82 375.53 197.94 377.4 198.11 379.24 198.34 381.06 198.63 382.87 198.98 384.68 199.36 386.48 199.77 388.3 200.21 390.12 200.65 391.97 201.1 393.85 201.54 395.74 201.96 397.63 202.37 399.51 202.76 401.35 203.13 403.15 203.47 404.88 203.77 406.55 204.04 408.13 204.27 409.69 204.46 411.3 204.6 413.03 204.69 414.94 204.72 417.12 204.7 419.62 204.61 422.53 204.46 425.88 204.24 429.6 203.98 433.6 203.69 437.79 203.4 442.08 203.13 446.37 202.9 450.56 202.74 454.57 202.67 458.32 202.71 461.82 202.84 465.08 203.06 468.15 203.36 471.04 203.72 473.77 204.13 476.38 204.59 478.9 205.06 481.33 205.56 483.69 206.07 485.96 206.61 488.13 207.17 490.2 207.76 492.17 208.39 494.02 209.05 495.75 209.76 497.35 210.51 498.86 211.31 500.28 212.19 501.67 213.15 503.03 214.2 504.41 215.36 505.83 216.64 507.31 218.05 508.88 219.61 510.56 221.39 509.83 221"/></g><path class="cls-9" d="M955.07,569.84c-14.53-21.06-17.23-23.22-17.23-31a19.2,19.2,0,0,1,38.4,0c0,7.74-2.69,9.9-17.22,31a2.4,2.4,0,0,1-3.95,0Zm2-23a8,8,0,1,0-8-8A8,8,0,0,0,957,546.88Z"/><circle class="cls-9" cx="190.21" cy="224.95" r="3.62"/></g><g id="zoom"><ellipse class="cls-4" cx="-452.61" cy="1053.03" rx="302.75" ry="302.27"/><g class="cls-10"><polygon class="cls-2" points="-4.66 857.43 7.62 925.51 -16.29 932.32 -38.99 938.14 -60.39 943.08 -80.41 947.22 -98.95 950.65 -115.91 953.47 -131.22 955.77 -144.77 957.64 -156.58 959.17 -167.01 960.46 -176.51 961.57 -185.55 962.61 -194.57 963.66 -204.05 964.8 -214.43 966.13 -226.16 967.73 -239.6 969.65 -254.62 971.96 -270.96 974.67 -288.41 977.78 -306.69 981.33 -325.59 985.33 -344.86 989.8 -346.92 990.33 -354.22 959.49 -353.53 959.3 -335.26 954.06 -316.87 948.6 -298.54 943.01 -280.48 937.39 -262.89 931.83 -245.96 926.43 -229.9 921.27 -214.83 916.43 -200.6 911.88 -187 907.59 -173.82 903.51 -160.83 899.6 -147.83 895.81 -134.59 892.1 -120.91 888.42 -106.63 884.74 -91.88 881.05 -76.87 877.3 -61.78 873.5 -46.82 869.63 -32.18 865.67 -18.07 861.6 -4.66 857.43"/></g><ellipse class="cls-11" cx="-452.61" cy="1053.03" rx="302.75" ry="302.27"/><circle class="cls-11" cx="957.17" cy="513.32" r="90.89"/><ellipse class="cls-4" cx="573.62" cy="1042.88" rx="412.16" ry="411.51"/><g class="cls-12"><path class="cls-13" d="M686.26,895.16l56.41,238.13-13,3.07L673.29,898.23l-4.56-6.59-4.46-5.2-4.36-4-4.26-2.94-4.16-2.07-4-1.38-3.93-.85-3.8-.51-3.72-.3-3.87-.09-4.33.15-5.07.42-6.12.74-7.41,1.06-9.05,1.44L589.23,880l-13,2.26-14.79,2.62-16.13,2.89-17.08,3-17.58,3.13L493,897.07l-17.36,3L459,902.94l-15.59,2.58-14.84,2.38-14.5,2.25-14.59,2.19-15.08,2.18-16,2.29-17.32,2.45L332,921.91l-21.46,3L285,928.67l-31.42,4.83-39.22,6.35-48.9,8.27L105,958.69,31.11,972-58.12,988.4l-2.42-13.15,89.23-16.42a.06.06,0,0,0,0,0l73.91-13.29h.06l60.46-10.57h.08l48.91-8.27h.09l39.21-6.35h.1L283,915.45l.1,0,25.5-3.73h.07l21.47-3L349.2,906l26.06-13.21,20-10.19,15.27-7.91,11.84-6.36,9.78-5.53,9-5.4,9.58-6L462.17,844l5.13,12.41-10.6,5.75a.27.27,0,0,1-.1.06l-9.31,5.88-.23.14-8.83,5.3-.29.17-9.65,5.44-.24.13-11.77,6.31-.16.08-15.22,7.88-.06,0L387,900.63l10.54-1.54L412,896.92l14.44-2.24,14.76-2.37,15.53-2.58,16.55-2.82,17.33-3,17.65-3.12,17.59-3.13,17-3.06,16.15-2.87,14.8-2.62h0l13-2.27H587l10.93-1.86h.13l9-1.45.21,0,7.42-1.08.32,0,6.1-.72a4.07,4.07,0,0,1,.49-.05l5.07-.42a4.73,4.73,0,0,1,.65,0l4.33-.15h.78l3.88.09a6.62,6.62,0,0,1,.77,0l3.71.29.71.07,3.8.51c.35,0,.72.12,1.08.19l3.92.86a12.9,12.9,0,0,1,1.47.42l4,1.37a12,12,0,0,1,1.65.69l4.15,2.07a12.85,12.85,0,0,1,1.64,1l4.26,2.93a14.17,14.17,0,0,1,1.42,1.14l4.37,4a15.67,15.67,0,0,1,1.13,1.17l4.46,5.19a11.13,11.13,0,0,1,.85,1.1Z"/><g id="LWPOLYLINE-58" data-name="LWPOLYLINE"><path class="cls-13" d="M439.86,749.82l24.18,102a7.28,7.28,0,0,0,8.75,5.4l186.68-44.09a7.26,7.26,0,0,0,5.4-8.73L640.69,702.39a7.26,7.26,0,0,0-8.75-5.39L445.26,741.08A7.28,7.28,0,0,0,439.86,749.82Z"/></g><polygon class="cls-2" points="1151.37 786.04 1167.33 874.54 1136.25 883.4 1106.74 890.97 1078.92 897.39 1052.9 902.77 1028.8 907.24 1006.75 910.9 986.85 913.89 969.23 916.32 953.88 918.31 940.32 919.98 927.96 921.43 916.22 922.78 904.48 924.15 892.16 925.63 878.67 927.36 863.42 929.43 845.94 931.94 826.42 934.94 805.17 938.46 782.5 942.51 758.73 947.11 734.16 952.31 709.12 958.13 706.43 958.81 696.94 918.72 697.84 918.48 721.59 911.66 745.5 904.56 769.33 897.3 792.8 890 815.67 882.76 837.67 875.74 858.55 869.04 878.15 862.74 896.65 856.83 914.33 851.25 931.47 845.95 948.35 840.86 965.25 835.94 982.46 831.12 1000.25 826.34 1018.81 821.55 1037.98 816.75 1057.5 811.88 1077.11 806.94 1096.56 801.9 1115.6 796.76 1133.94 791.47 1151.37 786.04"/><path class="cls-2" d="M674.51,924.88l9.39,39.68c-49.86,10.61-99.74,21.23-149.54,32.22q-109.58,24.19-218.65,50.4c-42.9,10.21-85.74,20.55-128,33.78-34.13,10.69-67.86,23.24-102.72,29.78-37.41,7-76.11,7-114.22,10.87-13.82,1.39-27.57,3.27-41.31,5.16l15.49-60.7c30.77-2.73,61.52-5.46,91.83-10.88,35.81-6.4,71-16.55,106.73-23.48,51.19-9.91,103.58-13.2,155-21.75,78.48-13.05,154.62-38.34,232.41-55.55,44.82-9.91,90.17-17.14,134.87-27.47C668.69,926.26,671.6,925.58,674.51,924.88Z"/><g id="LWPOLYLINE-59" data-name="LWPOLYLINE"><polyline class="cls-14" points="680.67 975.01 684.75 968.1 679.08 944.16 673.4 920.22 666.66 915.86"/></g><g id="LWPOLYLINE-60" data-name="LWPOLYLINE"><polyline class="cls-14" points="714.11 967.11 707.36 962.76 701.69 938.82 696.02 914.88 700.1 907.97"/></g></g><ellipse class="cls-11" cx="573.62" cy="1042.88" rx="412.16" ry="411.51"/></g><g id="zoom_anotaciones" data-name="zoom anotaciones"><g id="LWPOLYLINE-61" data-name="LWPOLYLINE" class="cls-15"><path class="cls-9" d="M329.06,1093l37.58,150.42c1.57,6.64,107.54,14.85,114.18,13.28l221.72-55.77a12.35,12.35,0,0,0,9.18-14.87L670.6,1012.22a12.36,12.36,0,0,0-14.87-9.19l-317.49,75.1A12.36,12.36,0,0,0,329.06,1093Z"/></g><path class="cls-6" d="M575.13,744.68H529.37a6.24,6.24,0,0,0-6.24,6.24v45.76a6.25,6.25,0,0,0,6.24,6.24h45.76a6.24,6.24,0,0,0,6.24-6.24V750.92A6.24,6.24,0,0,0,575.13,744.68Zm-20.8,37.44h-6.24v6.24a2.08,2.08,0,0,1-2.08,2.08h-4.16a2.09,2.09,0,0,1-2.08-2.08V759.24a2.08,2.08,0,0,1,2.08-2.08h12.48a12.48,12.48,0,0,1,0,25Zm0-16.64h-6.24v8.32h6.24a4.16,4.16,0,0,0,0-8.32Z"/><path class="cls-6" d="M718.65,1302.85a4.17,4.17,0,0,0,3,5.05,4.42,4.42,0,0,0,1,.12,4.17,4.17,0,0,0,4-3.15l3.28-13.12-6.86-6.87-4.5,18Zm1.94-25.49,5.35-20.69a2,2,0,0,0-1.55-2.48,10.69,10.69,0,0,0-12.91,7.44l-3.29,12.75a2,2,0,0,0,1.55,2.48l8.27,2A2.13,2.13,0,0,0,720.59,1277.36Zm35.38-15.1h-2.08a2.08,2.08,0,0,0-2.08,2.08v2.08h-4.52l-6.08-6.08a7.63,7.63,0,0,0-12.81,3.55l-3.5,14a4.15,4.15,0,0,0,1.09,3.95l11.26,11.27v10.75a4.16,4.16,0,0,0,8.32,0v-10.75a8.23,8.23,0,0,0-2.44-5.89l-6.08-6.08c0-.07.06-.12.08-.19l2.58-10.34,2.92,2.91a4.16,4.16,0,0,0,2.94,1.22h6.24v31.2a2.08,2.08,0,0,0,2.08,2.08H756a2.08,2.08,0,0,0,2.08-2.08v-41.6A2.08,2.08,0,0,0,756,1262.26Zm-16.64-8.32a6.24,6.24,0,1,0-6.24-6.24A6.24,6.24,0,0,0,739.33,1253.94Z"/><line class="cls-16" x1="722.4" y1="1332.85" x2="780.88" y2="1319.18"/><polygon class="cls-6" points="780.31 1329.55 794.86 1315.91 775.77 1310.13 780.31 1329.55"/><g id="LWPOLYLINE-62" data-name="LWPOLYLINE"><polygon class="cls-9" points="553.18 1216.37 553.7 1190.06 528.93 1152.64 367.02 1160.24 367.02 1152.1 359.71 1151.3 354.37 1151.6 354.38 1168.22 323.15 1189.93 323.21 1194.08 326.36 1194.07 326.54 1239.45 311.39 1238.8 308.13 1239.03 308.09 1244.07 308.13 1244.08 308.13 1249.12 372.72 1252.71 372.72 1253.22 412.53 1255.45 424 1253.98 496.68 1259.67 552.5 1249.99 553.18 1216.37"/></g><polyline class="cls-17" points="681.79 904.89 740.88 1154.49 628.19 1182.09"/><polygon class="cls-9" points="628.77 1169.11 610.76 1186.36 634.7 1193.33 628.77 1169.11"/></g><g id="TXT"><text class="cls-18" transform="translate(4.51 631.48)">RÍO TORMES</text><text class="cls-19" transform="translate(693.62 44.82)">AV-941</text><text class="cls-20" transform="translate(175.24 28.07)">Navalperal de Tormes</text><text class="cls-18" transform="translate(47.27 271.79)">22km</text><text class="cls-18" transform="translate(1040.75 81.28)">19km</text><text class="cls-21" transform="translate(970.41 119.99)">Navarredonda <tspan x="49.61" y="28.8">de Gredos</tspan></text><text class="cls-21" transform="translate(2.09 314.01)">El Barco de Ávila</text><text class="cls-22" transform="translate(539.07 1344.46)">Ruta de las <tspan x="0" y="32.76">Cino Lagunas</tspan></text><line class="cls-23" x1="100.19" y1="281.75" x2="5.99" y2="281.75"/><path class="cls-6" d="M16.25,274.55a.76.76,0,0,1-.23,1l-9.68,6.16L16,287.92a.75.75,0,0,1,.23,1,.76.76,0,0,1-1,.23L4.54,282.39a.75.75,0,0,1,0-1.27l10.67-6.8a.86.86,0,0,1,.4-.11A.77.77,0,0,1,16.25,274.55Z"/><line class="cls-23" x1="1046.71" y1="89.33" x2="1140.91" y2="89.33"/><path class="cls-6" d="M1130.65,96.53a.74.74,0,0,1,.23-1l9.68-6.17-9.68-6.16a.75.75,0,1,1,.81-1.27l10.67,6.8a.74.74,0,0,1,.35.63.73.73,0,0,1-.35.63l-10.67,6.8a.72.72,0,0,1-.4.12A.76.76,0,0,1,1130.65,96.53Z"/></g></svg>